<?xml version="1.0" standalone="no"?>
<!DOCTYPE svg PUBLIC "-//W3C//DTD SVG 1.1//EN" "http://www.w3.org/Graphics/SVG/1.1/DTD/svg11.dtd" >
<svg xmlns="http://www.w3.org/2000/svg" xmlns:xlink="http://www.w3.org/1999/xlink" version="1.1">
<metadata></metadata>
<defs>
<font id="league_spartanlight" horiz-adv-x="985" >
<font-face units-per-em="2000" ascent="1600" descent="-400" />
<missing-glyph horiz-adv-x="483" />
<glyph unicode="&#xfb01;" horiz-adv-x="1057" d="M31 821h184v240q0 92 23 160t62 105.5t83.5 55.5t95.5 18q46 0 86 -11.5t55.5 -20.5t24.5 -17l-48 -88q-43 37 -114 37q-32 0 -57.5 -10t-50 -35t-38 -78t-13.5 -131v-225h248v-100h-248v-721h-109v721h-184v100zM824 1156q-35 0 -60.5 25.5t-25.5 60.5q0 36 25.5 61.5 t60.5 25.5q36 0 62.5 -25.5t26.5 -61.5q0 -35 -26 -60.5t-63 -25.5zM767 0v821h111v-821h-111z" />
<glyph unicode="&#xfb02;" horiz-adv-x="1027" d="M31 821h184v240q0 92 23 160t62 105.5t83.5 55.5t95.5 18q46 0 86 -11.5t55.5 -20.5t24.5 -17l-48 -88q-43 37 -114 37q-32 0 -57.5 -10t-50 -35t-38 -78t-13.5 -131v-225h248v-100h-248v-721h-109v721h-184v100zM866 0h-113v1376h113v-1376z" />
<glyph horiz-adv-x="0" />
<glyph horiz-adv-x="666" />
<glyph unicode="&#xd;" horiz-adv-x="1200" />
<glyph unicode=" "  horiz-adv-x="483" />
<glyph unicode="&#x09;" horiz-adv-x="483" />
<glyph unicode="&#xa0;" horiz-adv-x="483" />
<glyph unicode="!" horiz-adv-x="625" d="M255 335l-26 1041h132l-29 -1041h-77zM293 -24q-46 0 -78.5 32.5t-32.5 78.5q0 48 32 80.5t79 32.5t79.5 -32.5t32.5 -80.5q0 -46 -33 -78.5t-79 -32.5z" />
<glyph unicode="&#x22;" horiz-adv-x="729" d="M203 1297q37 0 58.5 -25.5t21.5 -60.5v-5q0 -52 -60 -322h-60q-39 254 -39 322v5q0 35 21.5 60.5t57.5 25.5zM487 1297q36 0 57.5 -25.5t21.5 -60.5v-5q0 -37 -61 -322h-59q-39 268 -39 322v5q0 35 21.5 60.5t58.5 25.5z" />
<glyph unicode="#" horiz-adv-x="1237" d="M155 480h191l96 362h-210l27 85h205l104 393h84l-104 -393h274l104 393h83l-104 -393h198l-27 -85h-193l-96 -362h212l-27 -84h-207l-105 -396h-83l105 396h-274l-105 -396h-83l104 396h-196zM430 480h274l96 362h-274z" />
<glyph unicode="$" horiz-adv-x="1026" d="M479 1534h82v-193q82 -7 154.5 -33.5t102 -47t42.5 -33.5l-60 -92q-124 104 -291 104q-130 0 -204 -54.5t-74 -150.5q0 -47 21.5 -87t65.5 -74.5t92 -60.5t120 -59q64 -28 109.5 -52t101 -63.5t90.5 -80.5t59 -100t24 -126q0 -139 -97 -234t-256 -116v-187h-82v182h-1 q-64 0 -129.5 12t-113 29t-88.5 36.5t-62 32.5t-26 18l66 96q20 -15 45.5 -30.5t72.5 -38t110 -36.5t130 -14q150 0 232.5 71t82.5 185q0 41 -13 78t-40.5 68.5t-55.5 56t-74.5 51.5t-80 43.5t-87.5 42.5q-79 37 -131.5 68.5t-102 75t-74 98t-24.5 120.5q0 127 104 213 t260 92v190z" />
<glyph unicode="%" horiz-adv-x="1422" d="M1038 1320h91l-779 -1320h-91zM94 1029q0 104 74 173t182 69q105 0 179 -69.5t74 -172.5q0 -102 -72.5 -171.5t-180.5 -69.5q-113 0 -184.5 69t-71.5 172zM182 1029q0 -76 45 -119.5t122 -43.5q72 0 119 43.5t47 119.5q0 73 -48 119t-118 46q-73 0 -120 -45.5t-47 -119.5 zM786 290q0 104 73.5 173t182.5 69q105 0 179.5 -69.5t74.5 -172.5q0 -102 -73 -171.5t-181 -69.5q-113 0 -184.5 69t-71.5 172zM874 290q0 -77 45.5 -120t121.5 -43q72 0 119 43.5t47 119.5q0 74 -48 119.5t-118 45.5q-73 0 -120 -45t-47 -120z" />
<glyph unicode="&#x26;" horiz-adv-x="1314" d="M73 318q0 57 18.5 109t45.5 89.5t67.5 72t74.5 55.5t77 41t65 28t48 16q-19 17 -45.5 48t-58 76t-52.5 102t-21 108q0 120 95 200.5t237 80.5q144 0 230.5 -79.5t86.5 -202.5q0 -49 -15 -94t-36.5 -78t-54 -63.5t-59.5 -49.5t-61.5 -37.5t-50.5 -25.5t-36 -15l328 -361 q73 82 134 198l76 -61q-17 -36 -63 -103.5t-78 -99.5l255 -272h-143l-189 205q-225 -229 -495 -229q-169 0 -274.5 95t-105.5 247zM621 1250q-101 0 -161.5 -57t-60.5 -131q0 -43 23.5 -95.5t58.5 -98.5t54 -67.5t33 -35.5q26 7 55.5 19.5t69.5 38t71.5 56.5t53.5 79.5 t22 103.5q0 80 -62 134t-157 54zM530 657q-29 -8 -61 -20t-86 -41t-94 -63.5t-70.5 -90t-30.5 -118.5q0 -117 79.5 -182t195.5 -65q121 0 236.5 61.5t183.5 137.5z" />
<glyph unicode="'" horiz-adv-x="436" d="M199 1297q37 0 58.5 -26.5t21.5 -66.5q0 -61 -60 -320h-61q-39 254 -39 320q0 40 21.5 66.5t58.5 26.5z" />
<glyph unicode="(" horiz-adv-x="589" d="M378 -401q-101 124 -182.5 361.5t-81.5 514.5q0 148 25 296t65 265t84.5 207.5t89.5 150.5l80 -51q-91 -118 -165 -353t-74 -515q0 -263 72 -487t160 -335z" />
<glyph unicode=")" horiz-adv-x="589" d="M149 -401l-74 54q89 112 161 335.5t72 486.5q0 280 -74.5 515.5t-165.5 352.5l80 51q45 -60 89.5 -150.5t85 -207.5t65.5 -265t25 -296q0 -277 -81.5 -514.5t-182.5 -361.5z" />
<glyph unicode="*" horiz-adv-x="848" d="M446 1150l199 68l25 -73l-205 -70l121 -173l-63 -44l-118 170l-126 -168l-63 43l130 172l-205 70l25 73l199 -68l2 211h77z" />
<glyph unicode="+" horiz-adv-x="1080" d="M571 616v-363h-97v363h-363v96h363v362h97v-362h361v-96h-361z" />
<glyph unicode="," horiz-adv-x="541" d="M251 208q55 0 93 -38.5t38 -98.5q0 -95 -54.5 -175.5t-134.5 -123.5l-58 56q50 23 95.5 65t56.5 91q-22 -11 -49 -11q-46 1 -78 34.5t-32 77.5q0 54 34.5 88.5t88.5 34.5z" />
<glyph unicode="-" horiz-adv-x="774" d="M111 406v99h515v-99h-515z" />
<glyph unicode="." horiz-adv-x="625" d="M293 -24q-46 0 -78.5 32.5t-32.5 78.5q0 48 32 80.5t79 32.5t79.5 -32.5t32.5 -80.5q0 -46 -33 -78.5t-79 -32.5z" />
<glyph unicode="/" horiz-adv-x="936" d="M720 1376h105l-659 -1568h-105z" />
<glyph unicode="0" horiz-adv-x="1151" d="M78 659q0 138 27.5 253t74 193.5t108.5 133.5t129.5 80t139.5 25t140 -25t130 -79.5t108 -133.5t73 -194t27 -253q0 -137 -27 -252t-73 -193.5t-108 -133t-130 -79.5t-140 -25q-71 0 -139 25t-130 79.5t-108.5 133t-74 193.5t-27.5 252zM191 659q0 -277 106 -428.5 t260 -151.5q155 0 260.5 151.5t105.5 428.5q0 141 -29.5 254t-80.5 183.5t-116.5 107.5t-139.5 37q-154 0 -260 -152.5t-106 -429.5z" />
<glyph unicode="1" horiz-adv-x="590" d="M297 1188l-238 -140v111l271 161h77v-1320h-110v1188z" />
<glyph unicode="2" horiz-adv-x="1064" d="M526 1243q-68 0 -129.5 -24t-101 -56.5t-71 -69.5t-44.5 -59t-16 -30l-100 42q1 6 9.5 23.5t27.5 45.5t44 58t64 61t83.5 55t105.5 39.5t128 15.5q187 0 288 -100t101 -290q0 -69 -33.5 -151t-82.5 -154.5t-120 -153.5t-129 -138.5t-128.5 -120t-99.5 -86t-60 -47.5h642 v-103h-820v94q236 191 366 317q352 342 352 543q0 155 -69 222t-207 67z" />
<glyph unicode="3" horiz-adv-x="1015" d="M105 1136q4 15 18 37.5t45 53t71.5 56t104 43.5t136.5 18q182 0 283.5 -98t101.5 -247q0 -118 -69 -203t-161 -99q100 -8 183.5 -95t83.5 -224q0 -173 -118.5 -287.5t-307.5 -114.5q-86 0 -160.5 24t-125 62.5t-83.5 81t-49 86.5l101 55q28 -79 110.5 -143t204.5 -64 q146 0 230 86t84 216q0 131 -90.5 198.5t-223.5 67.5h-26v92h34q114 0 196 69.5t82 184.5q0 111 -73 182t-210 71q-58 0 -106.5 -15t-77.5 -35.5t-50 -44t-29.5 -38.5t-9.5 -22z" />
<glyph unicode="4" horiz-adv-x="954" d="M715 1320v-939h150v-103h-150v-278h-110v278h-561v96l562 946h109zM605 381v740h-1l-437 -740h438z" />
<glyph unicode="5" horiz-adv-x="1045" d="M195 253q6 -14 16.5 -32t35 -45t55.5 -47.5t80 -36t106 -15.5q151 0 238.5 97t85.5 260q-2 147 -78.5 228t-204.5 81q-108 0 -182.5 -55t-101.5 -122l-103 32l110 722h617v-103h-518l-73 -490q7 15 34.5 39t93.5 50t146 26q159 0 264 -106t106 -299q2 -206 -112 -333.5 t-320 -127.5q-76 0 -141.5 19t-107.5 45t-74.5 59.5t-47.5 57t-22 42.5z" />
<glyph unicode="6" horiz-adv-x="1089" d="M550 850q176 0 300 -124.5t124 -311.5q0 -123 -61.5 -224t-164.5 -157.5t-225 -56.5q-192 0 -319 128t-127 328q0 125 42.5 220.5t122.5 196.5l375 471h135l-448 -552q29 33 95.5 57.5t150.5 24.5zM528 74q140 0 239.5 99.5t99.5 241.5q0 140 -99.5 239.5t-239.5 99.5 q-142 0 -242 -99.5t-100 -239.5q0 -142 100 -241.5t242 -99.5z" />
<glyph unicode="7" horiz-adv-x="1015" d="M123 1320h806v-86l-701 -1234h-125l696 1217h-676v103z" />
<glyph unicode="8" horiz-adv-x="1084" d="M524 -24q-180 0 -296.5 110.5t-116.5 272.5q0 141 71 228t184 125q-84 34 -141 108.5t-57 190.5q0 146 101.5 239.5t253.5 93.5t252.5 -93.5t100.5 -239.5q0 -217 -197 -299q113 -39 184.5 -126t71.5 -227q0 -162 -115.5 -272.5t-295.5 -110.5zM523 754q101 0 173.5 72.5 t72.5 174.5q0 101 -72.5 173.5t-173.5 72.5q-102 0 -175 -72.5t-73 -173.5q0 -102 73 -174.5t175 -72.5zM523 79q124 0 210 83t86 205t-86 206t-210 84q-125 0 -211 -83.5t-86 -206.5q0 -122 86 -205t211 -83z" />
<glyph unicode="9" horiz-adv-x="1087" d="M515 470q-176 0 -299.5 124.5t-123.5 311.5q0 123 61.5 224t164.5 157.5t225 56.5q191 0 318 -128t127 -328q0 -126 -42.5 -221.5t-122.5 -195.5l-375 -471h-134l448 552q-30 -33 -96 -57.5t-151 -24.5zM538 1246q-140 0 -239.5 -99.5t-99.5 -241.5q0 -140 99.5 -239.5 t239.5 -99.5q141 0 241 99.5t100 239.5q0 142 -100 241.5t-241 99.5z" />
<glyph unicode=":" horiz-adv-x="504" d="M249 637q-47 0 -79 32.5t-32 78.5q0 48 32 80.5t79 32.5t79.5 -32.5t32.5 -80.5q0 -46 -32.5 -78.5t-79.5 -32.5zM249 -24q-46 0 -78.5 32.5t-32.5 78.5q0 48 32 80.5t79 32.5t79.5 -32.5t32.5 -80.5q0 -46 -33 -78.5t-79 -32.5z" />
<glyph unicode=";" horiz-adv-x="523" d="M233 638q-46 0 -78.5 32.5t-32.5 78.5q0 48 32.5 80.5t78.5 32.5q47 0 79.5 -32.5t32.5 -80.5q0 -46 -33 -78.5t-79 -32.5zM238 208q55 0 93 -38.5t38 -98.5q0 -95 -54.5 -175.5t-134.5 -123.5l-58 56q50 23 95.5 65t56.5 91q-22 -11 -49 -11q-46 1 -78 34.5t-32 77.5 q0 54 34.5 88.5t88.5 34.5z" />
<glyph unicode="&#x3c;" horiz-adv-x="1072" d="M904 226l-810 386v107l810 388v-108l-710 -333l710 -334v-106z" />
<glyph unicode="=" horiz-adv-x="1012" d="M117 778v97h740v-97h-740zM117 456v96h740v-96h-740z" />
<glyph unicode="&#x3e;" horiz-adv-x="1072" d="M108 226v106l710 334l-710 333v108l810 -388v-107z" />
<glyph unicode="?" horiz-adv-x="906" d="M375 335v271q0 53 22.5 83.5t74.5 61.5q218 135 218 292q0 98 -70.5 149t-191.5 51q-109 0 -184.5 -59.5t-92.5 -122.5l-96 43q3 19 19 47t48.5 62t75 63t105.5 48.5t133 19.5q170 0 269.5 -80t99.5 -212q0 -59 -20.5 -111.5t-60.5 -97t-81 -77.5t-100 -72 q-40 -26 -52.5 -52.5t-12.5 -84.5v-222h-103zM427 -24q-46 0 -78.5 32.5t-32.5 78.5q0 48 32.5 80.5t78.5 32.5q47 0 79 -32.5t32 -80.5q0 -46 -32.5 -78.5t-78.5 -32.5z" />
<glyph unicode="@" horiz-adv-x="1541" d="M756 -24q-195 0 -355 85.5t-254.5 243t-94.5 356.5q0 198 100.5 355.5t266 242.5t360.5 85q186 0 341.5 -79.5t247.5 -226t92 -331.5q0 -84 -27 -153.5t-70 -113t-95.5 -67.5t-105.5 -24q-156 0 -165 139q-11 -63 -88 -115.5t-187 -52.5q-152 0 -244.5 96t-92.5 236 q0 138 91 230.5t242 92.5q96 0 166 -46t89 -82v105h89v-410q0 -15 3.5 -31.5t13 -36.5t30.5 -32.5t51 -12.5q32 0 66 16.5t65.5 49t51.5 88.5t20 126q0 151 -76 276t-210 197t-298 72q-163 0 -307 -75.5t-234 -213.5t-90 -304t85 -303t224.5 -213t298.5 -76 q141 0 252.5 54.5t161.5 121.5l81 -66q-61 -78 -193.5 -140.5t-301.5 -62.5zM732 407q112 0 177 72t65 178q0 102 -70 167.5t-172 65.5q-107 0 -177.5 -68t-70.5 -172t68.5 -173.5t179.5 -69.5z" />
<glyph unicode="A" horiz-adv-x="1138" d="M509 1320h121l472 -1320h-117l-122 343h-586l-125 -343h-117zM310 446h520l-259 737h-3z" />
<glyph unicode="B" horiz-adv-x="1040" d="M119 1320h326q85 0 154.5 -15.5t129.5 -50t93.5 -98.5t33.5 -153q0 -121 -68 -215t-138 -102q28 -2 62 -14.5t72 -38.5t68.5 -61.5t50.5 -88.5t20 -114q0 -169 -98 -269t-295 -100h-411v1320zM227 721h270q81 0 140 41.5t85 100t26 123.5q0 237 -286 237h-235v-502z M227 97h312q79 0 135 23t84.5 63.5t41 85.5t12.5 99q0 114 -76 186t-214 72h-295v-529z" />
<glyph unicode="C" horiz-adv-x="1251" d="M736 83q126 0 225.5 34t147.5 76l48 -95q-52 -47 -165 -84.5t-255 -37.5q-191 0 -347 91t-244 247t-88 344q0 141 51.5 267.5t141 218.5t216.5 146t270 54q142 0 255 -37.5t165 -84.5l-48 -95q-48 42 -147.5 76t-225.5 34q-154 0 -281.5 -72t-203.5 -204.5t-76 -299.5 q0 -168 76 -301t203.5 -205t281.5 -72z" />
<glyph unicode="D" horiz-adv-x="1110" d="M116 1320h270q155 0 273 -48.5t191 -137.5t109.5 -208t36.5 -265q0 -147 -36.5 -266.5t-109.5 -208.5t-191 -137.5t-273 -48.5h-270v1320zM223 1216v-1112h154q129 0 226.5 40.5t157.5 115.5t90 175t31 224t-28.5 224.5t-89.5 175.5t-158.5 116t-228.5 41h-154z" />
<glyph unicode="E" horiz-adv-x="1042" d="M124 1320h751v-103h-643v-504h626v-102h-626v-508h643v-103h-751v1320z" />
<glyph unicode="F" horiz-adv-x="885" d="M119 1320h651v-103h-543v-504h508v-102h-508v-611h-108v1320z" />
<glyph unicode="G" horiz-adv-x="1423" d="M670 707h664v-67q0 -134 -49.5 -256t-134.5 -212t-204.5 -143t-253.5 -53q-181 0 -330 93.5t-232 250t-83 341.5q0 184 83 340.5t232 249.5t330 93q163 0 292.5 -69.5t214.5 -186.5l-93 -59q-72 97 -178 153t-236 56q-151 0 -274 -79t-191 -210.5t-68 -287.5t68 -288 t191 -211t274 -79q146 0 264.5 71.5t186 192t73.5 265.5h-546v95z" />
<glyph unicode="H" horiz-adv-x="1224" d="M950 611h-718v-611h-108v1320h108v-607h718v607h107v-1320h-107v611z" />
<glyph unicode="I" horiz-adv-x="432" d="M141 1320h110v-1320h-110v1320z" />
<glyph unicode="J" horiz-adv-x="757" d="M631 399q0 -202 -84.5 -312.5t-257.5 -110.5q-55 0 -104 11t-81.5 27t-58 36t-38.5 35.5t-19 27.5l57 93q10 -19 24.5 -36t41.5 -39t71 -35t98 -13q88 0 143.5 44t77 112t21.5 162v919h109v-921z" />
<glyph unicode="K" horiz-adv-x="943" d="M351 660l558 -660h-133l-533 625v-625h-110v1320h110v-636l502 636h128z" />
<glyph unicode="L" horiz-adv-x="887" d="M119 1320h110v-1217h538v-103h-648v1320z" />
<glyph unicode="M" horiz-adv-x="1394" d="M1217 1320v-1320h-109v1037l7 110l-29 -116l-365 -972h-109l-365 972l-27 116l6 -110v-1037h-109v1320h134l406 -1112l10 -48l10 48l407 1112h133z" />
<glyph unicode="N" horiz-adv-x="1313" d="M984 0l-751 1203v-1203h-109v1320h161l752 -1203v1203h108v-1320h-161z" />
<glyph unicode="O" horiz-adv-x="1425" d="M47 661q0 190 84 346.5t232 246.5t329 90t329.5 -90t232 -246.5t83.5 -346.5q0 -191 -83 -347.5t-231.5 -247t-330.5 -90.5t-330.5 90.5t-231.5 247t-83 347.5zM159 661q0 -162 68 -294t190.5 -208t274.5 -76q153 0 275 76t189.5 208t67.5 294t-67.5 293.5t-189.5 207.5 t-275 76q-114 0 -213.5 -44.5t-169.5 -121t-110 -183.5t-40 -228z" />
<glyph unicode="P" horiz-adv-x="1003" d="M137 1320h323q94 0 171 -21.5t137.5 -66t94 -119.5t33.5 -176t-33.5 -178.5t-93.5 -125t-138 -71.5t-171 -24h-213v-538h-110v1320zM247 636h184q75 0 136 16t110.5 50t77 93t27.5 140q0 287 -351 287h-184v-586z" />
<glyph unicode="Q" horiz-adv-x="1395" d="M47 661q0 190 84 346.5t232 246.5t329 90t329.5 -90t232 -246.5t83.5 -346.5q0 -259 -148.5 -447t-383.5 -228q21 -6 77.5 -26.5t97.5 -30t86 -9.5q51 0 97.5 13.5t67 25.5t25.5 18l57 -86q-88 -79 -251 -79q-60 0 -116 15t-92 33.5t-87 33.5t-103 15q-55 0 -109.5 -24 t-80 -44t-31.5 -29l-65 74q93 77 183 103q-228 47 -371 233t-143 439zM159 661q0 -162 68 -294t190.5 -208t274.5 -76q153 0 275 76t189.5 208t67.5 294t-67.5 293.5t-189.5 207.5t-275 76q-114 0 -213.5 -44.5t-169.5 -121t-110 -183.5t-40 -228z" />
<glyph unicode="R" horiz-adv-x="1073" d="M126 1320h424q105 0 190 -42t138 -128t53 -203q0 -86 -30 -158t-77 -115t-98.5 -67t-98.5 -25l330 -582h-125l-316 574h-281v-574h-109v1320zM235 663h278q141 0 223.5 71t82.5 211t-82 208.5t-224 68.5h-278v-559z" />
<glyph unicode="S" horiz-adv-x="1026" d="M501 1344q76 0 145 -15.5t112.5 -37.5t68 -38t33.5 -26l-60 -92q-124 104 -291 104q-130 0 -204 -54.5t-74 -150.5q0 -47 21.5 -87t65.5 -74.5t92 -60.5t120 -59q64 -28 109.5 -52t101 -63.5t90.5 -80.5t59 -100t24 -126q0 -157 -122 -256t-314 -99q-64 0 -129.5 12 t-113 29t-88.5 36.5t-62 32.5t-26 18l66 96q20 -15 45.5 -30.5t72.5 -38t110 -36.5t130 -14q150 0 232.5 71t82.5 185q0 41 -13 78t-40.5 68.5t-55.5 56t-74.5 51.5t-80 43.5t-87.5 42.5q-79 37 -131.5 68.5t-102 75t-74 98t-24.5 120.5q0 132 110.5 218.5t275.5 86.5z" />
<glyph unicode="T" horiz-adv-x="973" d="M409 1217h-376v103h863v-103h-377v-1217h-110v1217z" />
<glyph unicode="U" horiz-adv-x="1229" d="M979 1320h109v-824q0 -120 -38 -219t-104 -164.5t-155.5 -101t-192.5 -35.5q-138 0 -249 61t-177 180.5t-66 278.5v824h108v-818q0 -188 110 -304.5t274 -116.5q163 0 272 116.5t109 304.5v818z" />
<glyph unicode="V" horiz-adv-x="1202" d="M647 0h-135l-490 1320h123l434 -1196l437 1196h122z" />
<glyph unicode="W" horiz-adv-x="1559" d="M1188 0h-145l-296 1171l-296 -1171h-145l-266 1320h123l220 -1176l303 1176h122l304 -1175l220 1175h123z" />
<glyph unicode="X" horiz-adv-x="1158" d="M635 710l474 -710h-138l-414 622l-415 -622h-132l472 710l-425 610h136l366 -525l363 525h133z" />
<glyph unicode="Y" horiz-adv-x="1060" d="M453 475l-438 845h131l362 -714l361 714h130l-436 -845v-475h-110v475z" />
<glyph unicode="Z" horiz-adv-x="1137" d="M146 1320h893l-784 -1217h741v-103h-943l789 1217h-696v103z" />
<glyph unicode="[" horiz-adv-x="665" d="M120 -416v1792h387v-94h-288v-1604h288v-94h-387z" />
<glyph unicode="\" horiz-adv-x="936" d="M837 0h-107l-659 1376h106z" />
<glyph unicode="]" horiz-adv-x="665" d="M481 -416h-386v94h288v1604h-288v94h386v-1792z" />
<glyph unicode="^" horiz-adv-x="861" d="M769 968h-112l-244 303l-244 -303h-113l316 376h83z" />
<glyph unicode="_" horiz-adv-x="806" d="M24 -140v84h752v-84h-752z" />
<glyph unicode="`" horiz-adv-x="688" d="M476 990l-323 204l76 96l296 -237z" />
<glyph unicode="a" horiz-adv-x="1032" d="M786 0v172q-5 -22 -29.5 -53.5t-63.5 -64.5t-100 -55.5t-128 -22.5q-84 0 -158.5 30t-130.5 84.5t-89 137.5t-33 182q0 198 119 316.5t292 118.5q67 0 127.5 -21.5t100 -53t64 -63.5t28.5 -57v171h110v-821h-109zM164 410q0 -150 94 -243t220 -93q133 0 218.5 92 t85.5 244q0 151 -85.5 244t-218.5 93q-126 0 -220 -93.5t-94 -243.5z" />
<glyph unicode="b" horiz-adv-x="1014" d="M112 0v1376h113v-726q9 60 105.5 127.5t226.5 67.5q172 0 284.5 -118t112.5 -317t-112.5 -316.5t-284.5 -117.5q-66 0 -129 21.5t-105 53t-69 64t-32 57.5v-172h-110zM842 410q0 152 -87.5 244.5t-210.5 92.5q-134 0 -226.5 -93.5t-92.5 -243.5t92 -243t227 -93 q123 0 210.5 92t87.5 244z" />
<glyph unicode="c" horiz-adv-x="819" d="M474 74q53 0 102 14.5t70.5 27.5t34.5 24l59 -86q-12 -11 -44 -27t-97 -33.5t-132 -17.5q-75 0 -146 28.5t-128.5 81t-92 137t-34.5 188.5t34.5 188.5t92 137t128.5 80.5t146 28q95 0 167 -31.5t100 -58.5l-58 -85q-82 77 -202 77q-117 0 -208.5 -92t-91.5 -244 t91.5 -244.5t208.5 -92.5z" />
<glyph unicode="d" horiz-adv-x="1014" d="M928 0h-111v172q-11 -58 -109 -127t-225 -69q-172 0 -284.5 117.5t-112.5 316.5t112.5 317t284.5 118q130 0 226.5 -67.5t104.5 -127.5v726h114v-1376zM197 410q0 -151 87.5 -243.5t211.5 -92.5q134 0 226 93t92 243t-92 243.5t-226 93.5q-123 0 -211 -93t-88 -244z" />
<glyph unicode="e" horiz-adv-x="934" d="M166 397q1 -139 80.5 -233.5t226.5 -94.5q59 0 109 16t83 42t53 50t33 49l71 -70q-59 -91 -142 -135.5t-213 -44.5q-128 0 -222.5 59t-142.5 159t-48 227q0 185 109 304.5t296 119.5q173 0 277.5 -111t104.5 -292q0 -25 -2 -45h-673zM727 492q-1 44 -15.5 86.5t-43.5 83 t-83 65.5t-125 25q-75 0 -131.5 -24t-88.5 -64t-48.5 -82.5t-20.5 -89.5h556z" />
<glyph unicode="f" horiz-adv-x="629" d="M31 821h184v240q0 92 23 160t62 105.5t83.5 55.5t95.5 18q46 0 86 -11.5t55.5 -20.5t24.5 -17l-48 -88q-43 37 -114 37q-32 0 -57.5 -10t-50 -35t-38 -78t-13.5 -131v-225h248v-100h-248v-721h-109v721h-184v100z" />
<glyph unicode="g" horiz-adv-x="1040" d="M489 -438q-144 0 -241 44.5t-144 114.5l83 73q17 -25 35 -43.5t52 -41.5t88 -35.5t124 -12.5q141 0 220.5 93t79.5 231v187q-5 -22 -29.5 -53.5t-63.5 -64.5t-100 -55.5t-128 -22.5q-84 0 -158.5 30t-130.5 84.5t-89 137.5t-33 182q0 198 119 316.5t292 118.5 q67 0 127.5 -21.5t100 -53t64 -63.5t28.5 -57v171h110v-845q0 -195 -115 -304.5t-291 -109.5zM164 410q0 -150 94 -243t220 -93q133 0 218.5 92t85.5 244q0 151 -85.5 244t-218.5 93q-126 0 -220 -93.5t-94 -243.5z" />
<glyph unicode="h" horiz-adv-x="997" d="M529 845q60 0 115.5 -19t102.5 -57t75 -103t28 -148v-518h-113v491q0 133 -61.5 196.5t-166.5 63.5q-104 0 -187.5 -86t-83.5 -206v-459h-113v1376h113v-714q11 60 98 121.5t193 61.5z" />
<glyph unicode="i" horiz-adv-x="428" d="M195 1156q-35 0 -60.5 25.5t-25.5 60.5q0 36 25.5 61.5t60.5 25.5q36 0 62.5 -25.5t26.5 -61.5q0 -35 -26 -60.5t-63 -25.5zM138 0v821h111v-821h-111z" />
<glyph unicode="j" horiz-adv-x="449" d="M229 1156q-36 0 -61.5 25.5t-25.5 60.5t25.5 61t61.5 26t61 -25.5t25 -61.5t-25 -61t-61 -25zM59 -440q-98 0 -150 40l51 88q29 -27 85 -27q31 0 53.5 12.5t35.5 33.5t20.5 55.5t10 70t2.5 86.5v902h112v-942q0 -156 -50.5 -237.5t-169.5 -81.5z" />
<glyph unicode="k" horiz-adv-x="782" d="M589 821h145l-441 -391l464 -430h-146l-412 380v-380h-111v1376h111v-900z" />
<glyph unicode="l" horiz-adv-x="398" d="M237 0h-113v1376h113v-1376z" />
<glyph unicode="m" horiz-adv-x="1463" d="M1031 845q277 0 277 -369v-476h-110v446q0 160 -43.5 231.5t-149.5 71.5q-44 0 -84 -17.5t-74.5 -52t-55 -95t-20.5 -138.5v-446h-106v446q0 152 -52.5 227.5t-144.5 75.5q-95 0 -162 -74.5t-67 -228.5v-446h-111v821h111v-130q18 54 91.5 104t173.5 50q53 0 97.5 -20.5 t72.5 -52.5t45 -64.5t23 -64.5q24 78 103.5 140t185.5 62z" />
<glyph unicode="n" horiz-adv-x="982" d="M524 845q60 0 115.5 -19t102 -57t74.5 -103t28 -148v-518h-113v491q0 133 -61.5 196.5t-167.5 63.5q-103 0 -186 -86t-83 -206v-459h-111v821h111v-159q12 60 99 121.5t192 61.5z" />
<glyph unicode="o" horiz-adv-x="989" d="M476 -24q-182 0 -302 124.5t-120 307.5q0 184 120 310.5t302 126.5t301 -126.5t119 -310.5q0 -183 -118.5 -307.5t-301.5 -124.5zM476 77q139 0 225.5 94t86.5 237q0 144 -86.5 240t-225.5 96q-138 0 -225.5 -96t-87.5 -240q0 -143 87 -237t226 -94z" />
<glyph unicode="p" horiz-adv-x="1043" d="M232 -416h-111v1237h114v-171q10 60 106 127.5t226 67.5q172 0 284 -118t112 -317t-113.5 -316.5t-285.5 -117.5q-130 0 -226.5 70.5t-105.5 125.5v-588zM853 410q0 151 -88.5 244t-212.5 93q-134 0 -225.5 -93.5t-91.5 -243.5t91 -243t226 -93q124 0 212.5 92.5 t88.5 243.5z" />
<glyph unicode="q" horiz-adv-x="1043" d="M811 -416v588q-3 -18 -19 -42t-46 -51t-68.5 -50t-91 -38t-108.5 -15q-172 0 -285.5 117.5t-113.5 316.5t112.5 317t284.5 118q130 0 226 -67.5t106 -127.5v171h114v-1237h-111zM190 410q0 -151 88.5 -243.5t212.5 -92.5q135 0 226 93t91 243t-91.5 243.5t-225.5 93.5 q-124 0 -212.5 -93t-88.5 -244z" />
<glyph unicode="r" horiz-adv-x="655" d="M234 0h-109v821h109v-131q22 53 91 104t161 51q53 0 95.5 -13.5t60.5 -30.5l-48 -94q-46 39 -135 39q-64 0 -118 -47t-80.5 -109t-26.5 -119v-471z" />
<glyph unicode="s" horiz-adv-x="778" d="M393 845q77 0 147.5 -24.5t104.5 -53.5l-54 -77q-26 24 -79 45t-112 21q-83 0 -138 -35t-55 -95q0 -58 53 -95t155 -63q47 -12 81.5 -24.5t69.5 -32t57 -44t35.5 -60.5t13.5 -81q0 -83 -47 -141t-119 -83.5t-162 -25.5q-92 0 -168.5 28.5t-114.5 61.5l56 87 q30 -32 91.5 -58t134.5 -26q94 0 154.5 44t60.5 113q0 37 -16 65t-48 47t-63.5 30t-78.5 23q-257 62 -257 237q0 96 86.5 156.5t211.5 60.5z" />
<glyph unicode="t" horiz-adv-x="631" d="M45 821h172v337h110v-337h224v-101h-224v-490q0 -153 106 -153q25 0 47 8t31 15t13 12l52 -85q-15 -15 -58.5 -33t-103.5 -18q-88 0 -142.5 56.5t-54.5 168.5v519h-172v101z" />
<glyph unicode="u" horiz-adv-x="988" d="M218 391q0 -148 65.5 -231t191.5 -83t191.5 83t65.5 231v430h110v-450q0 -176 -97 -285.5t-270 -109.5q-172 0 -269.5 109.5t-97.5 285.5v450h110v-430z" />
<glyph unicode="v" horiz-adv-x="941" d="M30 821h119l303 -715l301 715h119l-355 -821h-131z" />
<glyph unicode="w" horiz-adv-x="1260" d="M612 682l-217 -682h-132l-200 821h119l157 -697l214 681h117l213 -681l159 697h119l-200 -821h-132z" />
<glyph unicode="x" horiz-adv-x="971" d="M535 431l360 -431h-133l-297 362l-296 -362h-128l358 427l-321 394h133l257 -320l261 320h127z" />
<glyph unicode="y" horiz-adv-x="873" d="M421 108l303 713h115l-549 -1237h-115l185 416l-337 821h117z" />
<glyph unicode="z" horiz-adv-x="815" d="M79 821h669l-530 -728h515v-93h-706l531 728h-479v93z" />
<glyph unicode="{" horiz-adv-x="685" d="M119 526q129 0 129 138v491q0 109 42 165t149 56h90v-95h-75q-56 0 -81 -25t-25 -82v-523q0 -69 -30.5 -116.5t-87.5 -56.5q57 -9 87.5 -55t30.5 -114v-523q0 -51 22.5 -79t83.5 -28h75v-95h-90q-107 0 -149 56t-42 165v491q0 140 -129 140v90z" />
<glyph unicode="|" horiz-adv-x="367" d="M216 -244h-102v1654h102v-1654z" />
<glyph unicode="}" horiz-adv-x="781" d="M609 526v-90q-130 0 -130 -140v-491q0 -109 -42 -165t-148 -56h-90v95h75q61 0 83.5 28t22.5 79v523q0 68 30.5 114t87.5 55q-57 9 -87.5 56.5t-30.5 116.5v523q0 57 -25.5 82t-80.5 25h-75v95h90q106 0 148 -56t42 -165v-491q0 -138 130 -138z" />
<glyph unicode="~" horiz-adv-x="1177" d="M1033 731q-37 -76 -112 -138t-163 -62q-47 0 -90.5 18t-76.5 43.5t-64.5 50.5t-67.5 43t-72 18q-62 0 -112.5 -46.5t-75.5 -103.5l-93 45q39 76 113.5 138t163.5 62q48 0 92 -18t77.5 -43.5t65 -50.5t67 -43t71.5 -18q62 0 113 45.5t77 102.5z" />
<glyph unicode="&#xa1;" horiz-adv-x="625" d="M309 1346q46 0 79 -32.5t33 -78.5q0 -48 -32.5 -80.5t-79.5 -32.5t-79 32.5t-32 80.5q0 46 32.5 78.5t78.5 32.5zM271 987h77l29 -1041h-132z" />
<glyph unicode="&#xa2;" horiz-adv-x="819" d="M474 74q53 0 102 14.5t70.5 27.5t34.5 24l59 -86q-20 -18 -86.5 -44.5t-149.5 -32.5v-183h-81v184q-70 8 -133 39.5t-113.5 84.5t-80.5 133t-30 176t30 176t80.5 132.5t113.5 84t133 39.5v175h81v-175q82 -6 144.5 -35.5t85.5 -52.5l-58 -85q-82 77 -202 77 q-117 0 -208.5 -92t-91.5 -244t91.5 -244.5t208.5 -92.5z" />
<glyph unicode="&#xa3;" horiz-adv-x="1197" d="M108 616h183q-31 72 -59.5 170.5t-28.5 179.5q0 79 23.5 146t71 120t126.5 83.5t182 30.5q81 0 152.5 -24t121 -63.5t83 -82.5t49.5 -86l-93 -50q-28 79 -110.5 143.5t-200.5 64.5q-139 0 -218 -74.5t-79 -211.5q0 -70 29.5 -170.5t61.5 -175.5h417v-84h-385 q33 -94 33 -175q0 -75 -25 -140q40 -4 89 -28t87.5 -49.5t90 -46.5t98.5 -21q76 0 122 46t55 100l94 -37q-23 -79 -92.5 -142t-172.5 -63q-66 0 -129.5 25.5t-105 55.5t-98 55.5t-110.5 25.5q-67 0 -116.5 -50t-53.5 -88h-96q6 79 81.5 152t159.5 73q24 55 24 131 q0 79 -40 176h-221v84z" />
<glyph unicode="&#xa4;" horiz-adv-x="959" d="M481 136q-161 0 -278 101l-130 -129l-56 57l130 132q-88 115 -88 271q0 157 89 274l-131 131l56 58l130 -129q117 103 278 103q159 0 274 -101l127 127l57 -58l-128 -129q89 -117 89 -276t-89 -273l128 -130l-57 -57l-127 127q-115 -99 -274 -99zM481 237q138 0 224.5 94 t86.5 237q0 144 -86.5 240t-224.5 96q-139 0 -226.5 -96t-87.5 -240q0 -143 87.5 -237t226.5 -94z" />
<glyph unicode="&#xa5;" horiz-adv-x="1060" d="M75 374h378v101l-20 38h-358v86h314l-374 721h131l362 -714l361 714h130l-372 -721h314v-86h-358l-20 -38v-101h378v-87h-378v-287h-110v287h-378v87z" />
<glyph unicode="&#xa6;" horiz-adv-x="367" d="M206 845h-84v531h84v-531zM206 0h-84v531h84v-531z" />
<glyph unicode="&#xa7;" horiz-adv-x="1091" d="M476 -440q-77 0 -144 23t-112.5 60.5t-75 79t-43.5 83.5l99 36q20 -70 93 -128t183 -58q151 0 217.5 64t66.5 169q0 45 -16.5 83.5t-42.5 66.5t-69.5 55.5t-86 47t-104.5 43.5q-161 61 -236.5 132t-75.5 179q0 53 25 101t62.5 80.5t74.5 53.5t69 30q-43 31 -71 55.5 t-57.5 60.5t-44 81t-14.5 98q0 120 97 204t268 84q72 0 134 -22t103.5 -57t68 -74t37.5 -78l-89 -40q-20 67 -86.5 121.5t-164.5 54.5q-114 0 -186 -52t-72 -133q0 -45 16.5 -84.5t42 -68t65.5 -55t77 -44t87 -37.5q84 -33 139.5 -61.5t107 -68.5t76.5 -91t25 -116 q0 -97 -59 -165t-143 -106q76 -44 117 -114.5t41 -156.5q0 -47 -11.5 -91.5t-41 -90t-73.5 -79t-114.5 -54.5t-158.5 -21zM441 716q-38 -11 -72.5 -28t-66 -42.5t-50 -62t-18.5 -79.5q0 -124 224 -216q34 -14 76 -31.5t67.5 -27.5t39.5 -16q24 8 51.5 24.5t56.5 43t48 66 t19 84.5q0 53 -41.5 101t-99.5 81.5t-141 66.5q-15 5 -37 13.5t-38 15t-18 7.5z" />
<glyph unicode="&#xa8;" horiz-adv-x="965" d="M272 1206q35 0 61.5 -26t26.5 -62t-26 -61.5t-62 -25.5t-62 26t-26 61q0 36 26 62t62 26zM655 1206q35 0 61.5 -26t26.5 -62t-26 -61.5t-62 -25.5t-61.5 26t-25.5 61q0 36 25.5 62t61.5 26z" />
<glyph unicode="&#xa9;" horiz-adv-x="1509" d="M52 659q0 139 54.5 266t146 218.5t217.5 146t265 54.5t266 -54.5t218.5 -146t146 -218.5t54.5 -266t-54.5 -265t-146 -217.5t-218.5 -146t-266 -54.5q-138 0 -264.5 54.5t-218 146t-146 218t-54.5 264.5zM129 659q0 -122 48 -234t129.5 -193.5t193.5 -130t235 -48.5 t235.5 48.5t194 130t130 193.5t48.5 234q0 123 -48.5 235.5t-130 194t-194 130t-235.5 48.5t-235 -48.5t-193.5 -130t-129.5 -194t-48 -235.5zM746 860q-92 0 -150.5 -57t-58.5 -153q0 -97 59 -153t152 -56q46 0 84.5 12t57.5 26l32 -65q-27 -17 -77 -33t-104 -16 q-126 0 -210 81.5t-84 200.5q0 123 84 205.5t210 82.5q51 0 96 -12.5t63.5 -23t21.5 -15.5l-33 -69q-17 16 -57 30.5t-86 14.5z" />
<glyph unicode="&#xaa;" horiz-adv-x="824" d="M133 1075q0 123 74 196t182 73q68 0 117.5 -29t57.5 -57v72l91 -2v-507h-89v74h-2q-7 -27 -56.5 -58.5t-118.5 -31.5q-108 0 -182 73.5t-74 196.5zM221 1075q0 -84 49.5 -134.5t117.5 -50.5q75 0 127 53t52 132q0 80 -52.5 132t-126.5 52q-68 0 -117.5 -50.5 t-49.5 -133.5z" />
<glyph unicode="&#xab;" horiz-adv-x="944" d="M423 131l-60 -49l-285 363l285 361l60 -46l-252 -315zM795 131l-62 -49l-283 363l283 361l62 -46l-252 -315z" />
<glyph unicode="&#xac;" horiz-adv-x="828" d="M676 505v-323h-100v224h-465v99h565z" />
<glyph unicode="&#xad;" horiz-adv-x="774" d="M111 406v99h515v-99h-515z" />
<glyph unicode="&#xae;" horiz-adv-x="857" d="M52 984q0 148 105 254t252 106q150 0 255 -105.5t105 -254.5q0 -148 -105 -252.5t-255 -104.5q-147 0 -252 104.5t-105 252.5zM114 984q0 -123 86.5 -209t208.5 -86q125 0 211.5 85.5t86.5 209.5t-86.5 211t-211.5 87q-122 0 -208.5 -87t-86.5 -211zM313 1152h104 q48 0 78 -25.5t30 -72.5q0 -72 -65 -96l85 -137h-63l-75 131h-39v-131h-55v331zM368 995h36q66 0 66 58q0 31 -18.5 40.5t-53.5 9.5h-30v-108z" />
<glyph unicode="&#xaf;" horiz-adv-x="944" d="M176 1066v88h556v-88h-556z" />
<glyph unicode="&#xb0;" horiz-adv-x="586" d="M133 1235q0 58 40.5 95.5t100.5 37.5q59 0 99.5 -37.5t40.5 -95.5t-39.5 -95.5t-100.5 -37.5q-62 0 -101.5 37.5t-39.5 95.5zM192 1235q0 -34 23 -57.5t59 -23.5q35 0 59 23.5t24 57.5t-24 57t-59 23q-34 0 -58 -23t-24 -57z" />
<glyph unicode="&#xb1;" horiz-adv-x="1080" d="M571 752v-363h-97v363h-363v96h363v362h97v-362h361v-96h-361zM113 131v98h817v-98h-817z" />
<glyph unicode="&#xb2;" horiz-adv-x="466" d="M254 1305q-26 0 -50.5 -9.5t-40 -22t-27.5 -27t-17 -23.5t-6 -11l-39 16q1 4 7 15.5t21 29t34.5 33t50.5 27t67 11.5q73 0 112 -38.5t39 -113.5q0 -37 -25 -83.5t-55.5 -83t-73 -77t-62 -56.5t-38.5 -31h250v-40h-319v37q155 126 219 207q60 76 60 127q0 61 -26.5 87 t-80.5 26z" />
<glyph unicode="&#xb3;" horiz-adv-x="429" d="M60 1265q4 12 17.5 29t49.5 35.5t82 18.5q72 0 112.5 -39t40.5 -98q0 -47 -27.5 -80.5t-63.5 -38.5q39 -3 72 -38t33 -89q0 -69 -47 -114.5t-122 -45.5q-65 0 -108.5 31t-56.5 70l40 22q11 -32 43.5 -57t81.5 -25q58 0 91 34t33 85q0 52 -35.5 79t-88.5 27h-11v37h14 q45 0 77.5 27.5t32.5 72.5q0 44 -29 72.5t-83 28.5q-23 0 -42 -6t-30.5 -14t-20 -17.5t-12 -15.5t-3.5 -9z" />
<glyph unicode="&#xb4;" horiz-adv-x="973" d="M318 990l-48 63l294 237l77 -96z" />
<glyph unicode="&#xb5;" horiz-adv-x="988" d="M218 391q0 -148 65.5 -231t191.5 -83t191.5 83t65.5 231v430h110v-450q0 -176 -97 -285.5t-270 -109.5q-159 0 -257 96v-464h-110v1213h110v-430z" />
<glyph unicode="&#xb6;" horiz-adv-x="974" d="M807 0h-77v1235h-122v-1235h-75v619h-74q-98 0 -175 33.5t-121.5 87t-67.5 115t-23 123.5q0 63 23 122t67.5 109t121.5 80.5t175 30.5h348v-1320z" />
<glyph unicode="&#xb7;" horiz-adv-x="504" d="M249 317q-47 0 -79 32.5t-32 78.5q0 48 32 80.5t79 32.5t79.5 -32.5t32.5 -80.5q0 -46 -32.5 -78.5t-79.5 -32.5z" />
<glyph unicode="&#xb8;" horiz-adv-x="781" d="M346 42l65 -30l-51 -146q33 12 73.5 8.5t76 -15t59.5 -40.5t24 -69q0 -80 -65.5 -126t-149.5 -46q-58 0 -112 18t-83 40l54 65q22 -18 60 -32.5t76 -14.5q55 0 92 24t37 62t-26.5 57.5t-72.5 19.5q-57 0 -97 -14l-36 20z" />
<glyph unicode="&#xb9;" horiz-adv-x="245" d="M135 1271l-90 -53v42l103 61h29v-500h-42v450z" />
<glyph unicode="&#xba;" horiz-adv-x="847" d="M132 1074q0 115 83.5 192.5t190.5 77.5q106 0 188.5 -77.5t82.5 -192.5t-80.5 -191.5t-190.5 -76.5q-115 0 -194.5 76t-79.5 192zM226 1074q0 -82 52 -136.5t127 -54.5q72 0 126.5 55t54.5 136q0 82 -55.5 137t-125.5 55t-124.5 -55t-54.5 -137z" />
<glyph unicode="&#xbb;" horiz-adv-x="944" d="M456 131l251 314l-251 315l59 46l285 -361l-285 -363zM84 131l251 314l-251 315l61 46l284 -361l-284 -363z" />
<glyph unicode="&#xbc;" horiz-adv-x="1331" d="M263 1246l-139 -82v65l159 95h45v-774h-65v696zM993 1320h72l-768 -1320h-72zM1127 770v-548h88v-60h-88v-162h-64v162h-327v56l328 552h63zM1063 222v432l-255 -432h255z" />
<glyph unicode="&#xbd;" horiz-adv-x="1471" d="M273 1246l-140 -82v65l160 95h45v-774h-65v696zM1003 1320h72l-768 -1320h-72zM1128 723q-40 0 -76 -14t-59 -33t-41.5 -41t-26 -34t-9.5 -18l-58 25q2 6 11 22.5t31 43.5t51 50.5t76 40.5t101 17q110 0 169 -58.5t59 -169.5q0 -55 -37 -125t-83.5 -125.5t-110.5 -116.5 t-93.5 -85.5t-57.5 -46.5h376v-60h-481v55q184 149 275 247q146 158 146 257q0 91 -40.5 130t-121.5 39z" />
<glyph unicode="&#xbe;" horiz-adv-x="1493" d="M112 1224q4 12 17 29.5t37.5 39.5t68 37t95.5 15q106 0 165 -57t59 -144q0 -69 -40 -118.5t-93 -57.5q58 -4 106.5 -55t48.5 -131q0 -101 -69 -167.5t-179 -66.5q-96 0 -160 45.5t-84 102.5l59 32q16 -46 64.5 -83t119.5 -37q85 0 134 50t49 125q0 76 -53 116t-130 40 h-15v53h19q67 0 114.5 40.5t47.5 107.5q0 65 -42.5 106.5t-122.5 41.5q-33 0 -61.5 -9t-45.5 -21t-29.5 -26t-17 -22.5t-5.5 -12.5zM1169 1320h73l-768 -1320h-73zM1272 770v-548h88v-60h-88v-162h-64v162h-327v56l327 552h64zM1208 222v432l-255 -432h255z" />
<glyph unicode="&#xbf;" horiz-adv-x="906" d="M414 1345q47 0 79.5 -32.5t32.5 -78.5q0 -48 -32.5 -80.5t-79.5 -32.5q-46 0 -78 32.5t-32 80.5q0 46 32 78.5t78 32.5zM467 986v-270q0 -54 -22.5 -84t-74.5 -61q-218 -135 -218 -292q0 -99 70.5 -150t191.5 -51q109 0 184 59.5t92 123.5l97 -44q-4 -19 -20 -47 t-48.5 -62t-75 -63t-105 -48.5t-132.5 -19.5q-170 0 -269.5 80.5t-99.5 212.5q0 59 20.5 111t60.5 96.5t81 78t100 72.5q40 25 52.5 51.5t12.5 84.5v222h103z" />
<glyph unicode="&#xc0;" horiz-adv-x="1138" d="M627 1376l-322 204l75 96l296 -237zM509 1320h121l472 -1320h-117l-122 343h-586l-125 -343h-117zM310 446h520l-259 737h-3z" />
<glyph unicode="&#xc1;" horiz-adv-x="1138" d="M493 1376l-49 63l295 237l76 -96zM509 1320h121l472 -1320h-117l-122 343h-586l-125 -343h-117zM310 446h520l-259 737h-3z" />
<glyph unicode="&#xc2;" horiz-adv-x="1138" d="M356 1407l-61 80l273 200l274 -201l-59 -81l-215 157zM509 1320h121l472 -1320h-117l-122 343h-586l-125 -343h-117zM310 446h520l-259 737h-3z" />
<glyph unicode="&#xc3;" horiz-adv-x="1138" d="M457 1490q-33 0 -57.5 -23.5t-35.5 -52.5h-109q18 68 65 123t112 55q41 0 78 -12t60 -26.5t54.5 -26.5t61.5 -12q35 0 58 24t30 53h109q-19 -68 -67.5 -123t-113.5 -55q-52 0 -97 19t-81.5 38t-66.5 19zM509 1320h121l472 -1320h-117l-122 343h-586l-125 -343h-117z M310 446h520l-259 737h-3z" />
<glyph unicode="&#xc4;" horiz-adv-x="1138" d="M377 1591q35 0 61.5 -26t26.5 -62t-26.5 -62t-61.5 -26q-36 0 -61.5 26t-25.5 62t25.5 62t61.5 26zM761 1591q35 0 61.5 -26t26.5 -62t-26.5 -62t-61.5 -26q-36 0 -62 26t-26 62t26 62t62 26zM509 1320h121l472 -1320h-117l-122 343h-586l-125 -343h-117zM310 446h520 l-259 737h-3z" />
<glyph unicode="&#xc5;" horiz-adv-x="1138" d="M394 1533q0 66 51 111.5t124 45.5q74 0 124 -45t50 -112q0 -69 -48.5 -112.5t-125.5 -43.5q-78 0 -126.5 43.5t-48.5 112.5zM482 1533q0 -40 25.5 -64.5t61.5 -24.5q37 0 61.5 24t24.5 65t-24 64.5t-62 23.5q-36 0 -61.5 -24t-25.5 -64zM509 1320h121l472 -1320h-117 l-122 343h-586l-125 -343h-117zM310 446h520l-259 737h-3z" />
<glyph unicode="&#xc6;" horiz-adv-x="1626" d="M758 1320h793v-103h-643v-504h627v-102h-627v-508h643v-103h-750v343h-471l-194 -343h-118zM375 439h426v747z" />
<glyph unicode="&#xc7;" horiz-adv-x="1251" d="M736 83q126 0 225.5 34t147.5 76l48 -95q-50 -45 -157.5 -82t-243.5 -40l-38 -110q33 12 73 8.5t75.5 -15t59.5 -40.5t24 -69q0 -80 -65.5 -126t-148.5 -46q-58 0 -112.5 18t-83.5 40l54 65q22 -18 60 -32.5t77 -14.5q55 0 92 24t37 62t-27 57.5t-72 19.5q-57 0 -97 -14 l-36 20l54 155q-133 10 -249.5 67t-198.5 147t-129 211t-47 255q0 141 51.5 267.5t141 218.5t216.5 146t270 54q142 0 255 -37.5t165 -84.5l-48 -95q-48 42 -147.5 76t-225.5 34q-154 0 -281.5 -72t-203.5 -204.5t-76 -299.5q0 -168 76 -301t203.5 -205t281.5 -72z" />
<glyph unicode="&#xc8;" horiz-adv-x="1042" d="M560 1376l-322 204l75 96l296 -237zM124 1320h751v-103h-643v-504h626v-102h-626v-508h643v-103h-751v1320z" />
<glyph unicode="&#xc9;" horiz-adv-x="1042" d="M426 1376l-49 63l295 237l76 -96zM124 1320h751v-103h-643v-504h626v-102h-626v-508h643v-103h-751v1320z" />
<glyph unicode="&#xca;" horiz-adv-x="1042" d="M288 1407l-60 80l273 200l274 -201l-60 -81l-214 157zM124 1320h751v-103h-643v-504h626v-102h-626v-508h643v-103h-751v1320z" />
<glyph unicode="&#xcb;" horiz-adv-x="1042" d="M310 1591q35 0 61.5 -26t26.5 -62t-26.5 -62t-61.5 -26q-36 0 -62 26.5t-26 61.5t26 61.5t62 26.5zM693 1591q36 0 62.5 -26t26.5 -62t-26.5 -62t-62.5 -26t-61.5 26t-25.5 62t25.5 62t61.5 26zM124 1320h751v-103h-643v-504h626v-102h-626v-508h643v-103h-751v1320z" />
<glyph unicode="&#xcc;" horiz-adv-x="432" d="M252 1376l-322 204l75 96l296 -237zM141 1320h110v-1320h-110v1320z" />
<glyph unicode="&#xcd;" horiz-adv-x="432" d="M118 1376l-49 63l295 237l76 -96zM141 1320h110v-1320h-110v1320z" />
<glyph unicode="&#xce;" horiz-adv-x="432" d="M-20 1407l-60 80l273 200l274 -201l-60 -81l-214 157zM141 1320h110v-1320h-110v1320z" />
<glyph unicode="&#xcf;" horiz-adv-x="432" d="M2 1591q35 0 61.5 -26t26.5 -62t-26.5 -62t-61.5 -26q-36 0 -62 26.5t-26 61.5t26 61.5t62 26.5zM385 1591q36 0 62.5 -26t26.5 -62t-26.5 -62t-62.5 -26t-61.5 26t-25.5 62t25.5 62t61.5 26zM141 1320h110v-1320h-110v1320z" />
<glyph unicode="&#xd0;" horiz-adv-x="1110" d="M-13 608v99h129v613h270q155 0 273 -48.5t191 -137.5t109.5 -208t36.5 -265q0 -147 -36.5 -266.5t-109.5 -208.5t-191 -137.5t-273 -48.5h-270v608h-129zM223 1216v-509h294v-99h-294v-504h154q129 0 226.5 40.5t157.5 115.5t90 175t31 224t-28.5 224.5t-89.5 175.5 t-158.5 116t-228.5 41h-154z" />
<glyph unicode="&#xd1;" horiz-adv-x="1313" d="M573 1609q-33 0 -57.5 -24t-34.5 -53h-109q17 68 64 123t113 55q51 0 95 -19t82.5 -38.5t75.5 -19.5q35 0 58 24t30 53h109q-19 -68 -67 -123t-114 -55q-41 0 -78.5 12t-61 26.5t-52 26.5t-53.5 12zM984 0l-751 1203v-1203h-109v1320h161l752 -1203v1203h108v-1320h-161z " />
<glyph unicode="&#xd2;" horiz-adv-x="1425" d="M750 1376l-322 204l76 96l295 -237zM47 661q0 190 84 346.5t232 246.5t329 90t329.5 -90t232 -246.5t83.5 -346.5q0 -191 -83 -347.5t-231.5 -247t-330.5 -90.5t-330.5 90.5t-231.5 247t-83 347.5zM159 661q0 -162 68 -294t190.5 -208t274.5 -76q153 0 275 76t189.5 208 t67.5 294t-67.5 293.5t-189.5 207.5t-275 76q-114 0 -213.5 -44.5t-169.5 -121t-110 -183.5t-40 -228z" />
<glyph unicode="&#xd3;" horiz-adv-x="1425" d="M616 1376l-49 63l296 237l75 -96zM47 661q0 190 84 346.5t232 246.5t329 90t329.5 -90t232 -246.5t83.5 -346.5q0 -191 -83 -347.5t-231.5 -247t-330.5 -90.5t-330.5 90.5t-231.5 247t-83 347.5zM159 661q0 -162 68 -294t190.5 -208t274.5 -76q153 0 275 76t189.5 208 t67.5 294t-67.5 293.5t-189.5 207.5t-275 76q-114 0 -213.5 -44.5t-169.5 -121t-110 -183.5t-40 -228z" />
<glyph unicode="&#xd4;" horiz-adv-x="1425" d="M479 1407l-61 80l274 200l274 -201l-60 -81l-214 157zM47 661q0 190 84 346.5t232 246.5t329 90t329.5 -90t232 -246.5t83.5 -346.5q0 -191 -83 -347.5t-231.5 -247t-330.5 -90.5t-330.5 90.5t-231.5 247t-83 347.5zM159 661q0 -162 68 -294t190.5 -208t274.5 -76 q153 0 275 76t189.5 208t67.5 294t-67.5 293.5t-189.5 207.5t-275 76q-114 0 -213.5 -44.5t-169.5 -121t-110 -183.5t-40 -228z" />
<glyph unicode="&#xd5;" horiz-adv-x="1425" d="M596 1609q-33 0 -57.5 -24t-34.5 -53h-109q17 68 64 123t113 55q51 0 95 -19t82.5 -38.5t75.5 -19.5q35 0 58 24t30 53h109q-19 -68 -67 -123t-114 -55q-41 0 -78.5 12t-61 26.5t-52 26.5t-53.5 12zM47 661q0 190 84 346.5t232 246.5t329 90t329.5 -90t232 -246.5 t83.5 -346.5q0 -191 -83 -347.5t-231.5 -247t-330.5 -90.5t-330.5 90.5t-231.5 247t-83 347.5zM159 661q0 -162 68 -294t190.5 -208t274.5 -76q153 0 275 76t189.5 208t67.5 294t-67.5 293.5t-189.5 207.5t-275 76q-114 0 -213.5 -44.5t-169.5 -121t-110 -183.5t-40 -228z " />
<glyph unicode="&#xd6;" horiz-adv-x="1425" d="M500 1591q35 0 61.5 -26t26.5 -62t-26.5 -62t-61.5 -26q-36 0 -61.5 26t-25.5 62t25.5 62t61.5 26zM884 1591q35 0 61.5 -26t26.5 -62t-26.5 -62t-61.5 -26q-36 0 -62 26.5t-26 61.5t26 61.5t62 26.5zM47 661q0 190 84 346.5t232 246.5t329 90t329.5 -90t232 -246.5 t83.5 -346.5q0 -191 -83 -347.5t-231.5 -247t-330.5 -90.5t-330.5 90.5t-231.5 247t-83 347.5zM159 661q0 -162 68 -294t190.5 -208t274.5 -76q153 0 275 76t189.5 208t67.5 294t-67.5 293.5t-189.5 207.5t-275 76q-114 0 -213.5 -44.5t-169.5 -121t-110 -183.5t-40 -228z " />
<glyph unicode="&#xd7;" horiz-adv-x="992" d="M547 664l291 -290l-68 -69l-290 290l-292 -290l-69 70l291 289l-290 290l69 69l291 -290l288 290l70 -69z" />
<glyph unicode="&#xd8;" horiz-adv-x="1395" d="M47 661q0 190 84 346.5t232 246.5t329 90q130 0 245 -47.5t202 -134.5l155 158l57 -52l-161 -164q147 -189 147 -443q0 -191 -83 -347.5t-231.5 -247t-330.5 -90.5q-128 0 -240.5 45.5t-198.5 128.5l-177 -180l-57 52l182 185q-154 191 -154 454zM159 661 q0 -217 120 -375l784 798q-149 154 -371 154q-114 0 -213.5 -44.5t-169.5 -121t-110 -183.5t-40 -228zM1224 661q0 209 -112 364l-782 -797q148 -145 362 -145q153 0 275 76t189.5 208t67.5 294z" />
<glyph unicode="&#xd9;" horiz-adv-x="1229" d="M656 1376l-323 204l76 96l296 -237zM979 1320h109v-824q0 -120 -38 -219t-104 -164.5t-155.5 -101t-192.5 -35.5q-138 0 -249 61t-177 180.5t-66 278.5v824h108v-818q0 -188 110 -304.5t274 -116.5q163 0 272 116.5t109 304.5v818z" />
<glyph unicode="&#xda;" horiz-adv-x="1229" d="M522 1376l-49 63l295 237l76 -96zM979 1320h109v-824q0 -120 -38 -219t-104 -164.5t-155.5 -101t-192.5 -35.5q-138 0 -249 61t-177 180.5t-66 278.5v824h108v-818q0 -188 110 -304.5t274 -116.5q163 0 272 116.5t109 304.5v818z" />
<glyph unicode="&#xdb;" horiz-adv-x="1229" d="M384 1407l-60 80l273 200l274 -201l-60 -81l-214 157zM979 1320h109v-824q0 -120 -38 -219t-104 -164.5t-155.5 -101t-192.5 -35.5q-138 0 -249 61t-177 180.5t-66 278.5v824h108v-818q0 -188 110 -304.5t274 -116.5q163 0 272 116.5t109 304.5v818z" />
<glyph unicode="&#xdc;" horiz-adv-x="1229" d="M406 1591q35 0 61.5 -26t26.5 -62t-26.5 -62t-61.5 -26q-36 0 -62 26.5t-26 61.5t26 61.5t62 26.5zM789 1591q35 0 61.5 -26t26.5 -62t-26.5 -62t-61.5 -26q-36 0 -61.5 26t-25.5 62t25.5 62t61.5 26zM979 1320h109v-824q0 -120 -38 -219t-104 -164.5t-155.5 -101 t-192.5 -35.5q-138 0 -249 61t-177 180.5t-66 278.5v824h108v-818q0 -188 110 -304.5t274 -116.5q163 0 272 116.5t109 304.5v818z" />
<glyph unicode="&#xdd;" horiz-adv-x="1060" d="M432 1376l-49 63l295 237l76 -96zM453 475l-438 845h131l362 -714l361 714h130l-436 -845v-475h-110v475z" />
<glyph unicode="&#xde;" horiz-adv-x="989" d="M124 1320h108v-245h271q178 0 284.5 -103.5t106.5 -302.5q0 -200 -107.5 -312t-283.5 -112h-271v-245h-108v1320zM232 341h255q137 0 215.5 86.5t78.5 243.5q0 154 -77.5 231t-216.5 77h-255v-638z" />
<glyph unicode="&#xdf;" horiz-adv-x="965" d="M396 77q172 0 261 85.5t89 215.5q0 142 -92.5 219.5t-257.5 77.5v93q140 0 223 82t83 214q0 126 -63.5 182t-166.5 56q-86 0 -148 -47.5t-90.5 -119t-28.5 -156.5v-979h-106v981q0 187 104.5 303t267.5 116q154 0 245.5 -88t91.5 -252q0 -65 -24 -124.5t-61.5 -101 t-79 -69.5t-80.5 -37q50 -7 101 -35t94.5 -72t71 -108.5t27.5 -136.5q0 -189 -123.5 -294.5t-337.5 -105.5v101z" />
<glyph unicode="&#xe0;" horiz-adv-x="1032" d="M658 990l-322 204l75 96l296 -237zM786 0v172q-5 -22 -29.5 -53.5t-63.5 -64.5t-100 -55.5t-128 -22.5q-84 0 -158.5 30t-130.5 84.5t-89 137.5t-33 182q0 198 119 316.5t292 118.5q67 0 127.5 -21.5t100 -53t64 -63.5t28.5 -57v171h110v-821h-109zM164 410 q0 -150 94 -243t220 -93q133 0 218.5 92t85.5 244q0 151 -85.5 244t-218.5 93q-126 0 -220 -93.5t-94 -243.5z" />
<glyph unicode="&#xe1;" horiz-adv-x="1032" d="M383 990l-48 63l294 237l77 -96zM786 0v172q-5 -22 -29.5 -53.5t-63.5 -64.5t-100 -55.5t-128 -22.5q-84 0 -158.5 30t-130.5 84.5t-89 137.5t-33 182q0 198 119 316.5t292 118.5q67 0 127.5 -21.5t100 -53t64 -63.5t28.5 -57v171h110v-821h-109zM164 410q0 -150 94 -243 t220 -93q133 0 218.5 92t85.5 244q0 151 -85.5 244t-218.5 93q-126 0 -220 -93.5t-94 -243.5z" />
<glyph unicode="&#xe2;" horiz-adv-x="1032" d="M291 929l-60 80l273 200l274 -201l-60 -81l-214 157zM786 0v172q-5 -22 -29.5 -53.5t-63.5 -64.5t-100 -55.5t-128 -22.5q-84 0 -158.5 30t-130.5 84.5t-89 137.5t-33 182q0 198 119 316.5t292 118.5q67 0 127.5 -21.5t100 -53t64 -63.5t28.5 -57v171h110v-821h-109z M164 410q0 -150 94 -243t220 -93q133 0 218.5 92t85.5 244q0 151 -85.5 244t-218.5 93q-126 0 -220 -93.5t-94 -243.5z" />
<glyph unicode="&#xe3;" horiz-adv-x="1032" d="M408 1110q-33 0 -57.5 -24t-35.5 -53h-109q18 68 65 123t112 55q41 0 78 -12t60 -26.5t54.5 -26.5t61.5 -12q34 0 57.5 24t30.5 53h109q-20 -68 -68 -123t-113 -55q-52 0 -97.5 19.5t-81.5 38.5t-66 19zM786 0v172q-5 -22 -29.5 -53.5t-63.5 -64.5t-100 -55.5t-128 -22.5 q-84 0 -158.5 30t-130.5 84.5t-89 137.5t-33 182q0 198 119 316.5t292 118.5q67 0 127.5 -21.5t100 -53t64 -63.5t28.5 -57v171h110v-821h-109zM164 410q0 -150 94 -243t220 -93q133 0 218.5 92t85.5 244q0 151 -85.5 244t-218.5 93q-126 0 -220 -93.5t-94 -243.5z" />
<glyph unicode="&#xe4;" horiz-adv-x="1032" d="M327 1096q35 0 61.5 -26.5t26.5 -62.5t-26 -61.5t-62 -25.5t-62 26t-26 61q0 36 26 62.5t62 26.5zM710 1096q35 0 61.5 -26.5t26.5 -62.5t-26 -61.5t-62 -25.5t-61.5 26t-25.5 61q0 36 25.5 62.5t61.5 26.5zM786 0v172q-5 -22 -29.5 -53.5t-63.5 -64.5t-100 -55.5 t-128 -22.5q-84 0 -158.5 30t-130.5 84.5t-89 137.5t-33 182q0 198 119 316.5t292 118.5q67 0 127.5 -21.5t100 -53t64 -63.5t28.5 -57v171h110v-821h-109zM164 410q0 -150 94 -243t220 -93q133 0 218.5 92t85.5 244q0 151 -85.5 244t-218.5 93q-126 0 -220 -93.5 t-94 -243.5z" />
<glyph unicode="&#xe5;" horiz-adv-x="1032" d="M323 1089q0 69 52.5 115.5t128.5 46.5t128 -46.5t52 -115.5q0 -71 -50.5 -116t-129.5 -45q-81 0 -131 44.5t-50 116.5zM415 1089q0 -41 26 -65.5t63 -24.5q38 0 62.5 24.5t24.5 65.5q0 42 -24.5 66t-62.5 24q-37 0 -63 -24.5t-26 -65.5zM786 0v172q-5 -22 -29.5 -53.5 t-63.5 -64.5t-100 -55.5t-128 -22.5q-84 0 -158.5 30t-130.5 84.5t-89 137.5t-33 182q0 198 119 316.5t292 118.5q67 0 127.5 -21.5t100 -53t64 -63.5t28.5 -57v171h110v-821h-109zM164 410q0 -150 94 -243t220 -93q133 0 218.5 92t85.5 244q0 151 -85.5 244t-218.5 93 q-126 0 -220 -93.5t-94 -243.5z" />
<glyph unicode="&#xe6;" horiz-adv-x="1444" d="M369 -24q-133 0 -221 70.5t-88 204.5q0 117 93 191.5t226 74.5q91 0 156.5 -29t89.5 -55v45q0 63 -16 112.5t-40.5 79t-57.5 49t-63.5 26.5t-60.5 7q-74 0 -136.5 -29.5t-93.5 -66.5l-65 88q39 39 119.5 70t180.5 31q120 0 196 -61.5t105 -145.5q23 76 109 141.5 t191 65.5q167 0 262.5 -111t95.5 -324q0 -6 -1 -11.5t-1 -10.5h-612q0 -156 66.5 -236.5t197.5 -80.5q49 0 94 17.5t77 44.5t52 49t32 42l78 -63q-21 -30 -51 -59.5t-72.5 -59t-99.5 -48t-118 -18.5q-107 0 -197 52t-122 125q-23 -58 -108.5 -117.5t-196.5 -59.5zM745 467 h494q-1 30 -6 61t-20.5 75t-40 76.5t-69.5 56t-104 23.5q-113 0 -179 -78.5t-75 -213.5zM373 61q100 -1 170 61t70 137q0 80 -62.5 128.5t-157.5 48.5q-56 0 -107.5 -21t-87.5 -64.5t-36 -100.5q0 -81 60 -134t151 -55z" />
<glyph unicode="&#xe7;" horiz-adv-x="812" d="M474 74q53 0 102 14.5t70.5 27.5t34.5 24l59 -86q-12 -11 -44 -27t-97 -33.5t-132 -17.5q-24 0 -49 3l-39 -113q33 12 73.5 8.5t75.5 -15t59 -40.5t24 -69q0 -80 -65 -126t-149 -46q-58 0 -112.5 18t-83.5 40l55 65q21 -18 59 -32.5t77 -14.5q55 0 92 24t37 62t-27 57.5 t-72 19.5q-57 0 -97 -14l-36 20l59 171q-123 39 -202.5 146.5t-79.5 270.5q0 104 34.5 188.5t92 137t128.5 80.5t146 28q95 0 167 -31.5t100 -58.5l-58 -85q-82 77 -202 77q-117 0 -208.5 -92t-91.5 -244t91.5 -244.5t208.5 -92.5z" />
<glyph unicode="&#xe8;" horiz-adv-x="934" d="M608 990l-322 204l76 96l295 -237zM166 397q1 -139 80.5 -233.5t226.5 -94.5q59 0 109 16t83 42t53 50t33 49l71 -70q-59 -91 -142 -135.5t-213 -44.5q-128 0 -222.5 59t-142.5 159t-48 227q0 185 109 304.5t296 119.5q173 0 277.5 -111t104.5 -292q0 -25 -2 -45h-673z M727 492q-1 44 -15.5 86.5t-43.5 83t-83 65.5t-125 25q-75 0 -131.5 -24t-88.5 -64t-48.5 -82.5t-20.5 -89.5h556z" />
<glyph unicode="&#xe9;" horiz-adv-x="934" d="M333 990l-48 63l294 237l77 -96zM166 397q1 -139 80.5 -233.5t226.5 -94.5q59 0 109 16t83 42t53 50t33 49l71 -70q-59 -91 -142 -135.5t-213 -44.5q-128 0 -222.5 59t-142.5 159t-48 227q0 185 109 304.5t296 119.5q173 0 277.5 -111t104.5 -292q0 -25 -2 -45h-673z M727 492q-1 44 -15.5 86.5t-43.5 83t-83 65.5t-125 25q-75 0 -131.5 -24t-88.5 -64t-48.5 -82.5t-20.5 -89.5h556z" />
<glyph unicode="&#xea;" horiz-adv-x="934" d="M242 929l-61 80l273 200l275 -201l-60 -81l-215 157zM166 397q1 -139 80.5 -233.5t226.5 -94.5q59 0 109 16t83 42t53 50t33 49l71 -70q-59 -91 -142 -135.5t-213 -44.5q-128 0 -222.5 59t-142.5 159t-48 227q0 185 109 304.5t296 119.5q173 0 277.5 -111t104.5 -292 q0 -25 -2 -45h-673zM727 492q-1 44 -15.5 86.5t-43.5 83t-83 65.5t-125 25q-75 0 -131.5 -24t-88.5 -64t-48.5 -82.5t-20.5 -89.5h556z" />
<glyph unicode="&#xeb;" horiz-adv-x="934" d="M277 1096q35 0 61.5 -26.5t26.5 -62.5t-26 -61.5t-62 -25.5t-61.5 26t-25.5 61q0 36 25.5 62.5t61.5 26.5zM661 1096q35 0 61.5 -26.5t26.5 -62.5t-26 -61.5t-62 -25.5t-62 26t-26 61q0 36 26 62.5t62 26.5zM166 397q1 -139 80.5 -233.5t226.5 -94.5q59 0 109 16t83 42 t53 50t33 49l71 -70q-59 -91 -142 -135.5t-213 -44.5q-128 0 -222.5 59t-142.5 159t-48 227q0 185 109 304.5t296 119.5q173 0 277.5 -111t104.5 -292q0 -25 -2 -45h-673zM727 492q-1 44 -15.5 86.5t-43.5 83t-83 65.5t-125 25q-75 0 -131.5 -24t-88.5 -64t-48.5 -82.5 t-20.5 -89.5h556z" />
<glyph unicode="&#xec;" horiz-adv-x="358" d="M314 990l-322 204l76 96l295 -237zM107 0v821h107v-821h-107z" />
<glyph unicode="&#xed;" horiz-adv-x="358" d="M40 990l-48 63l293 237l78 -96zM107 0v821h107v-821h-107z" />
<glyph unicode="&#xee;" horiz-adv-x="358" d="M-52 929l-61 80l274 200l274 -201l-60 -81l-214 157zM107 0v821h107v-821h-107z" />
<glyph unicode="&#xef;" horiz-adv-x="358" d="M-17 1096q35 0 61.5 -26.5t26.5 -62.5t-26 -61.5t-62 -25.5t-61.5 26t-25.5 61q0 36 25.5 62.5t61.5 26.5zM367 1096q35 0 61.5 -26.5t26.5 -62.5t-26 -61.5t-62 -25.5t-62 26t-26 61q0 36 26 62.5t62 26.5zM107 0v821h107v-821h-107z" />
<glyph unicode="&#xf0;" horiz-adv-x="1079" d="M87 410q0 132 60.5 233t156.5 151.5t209 50.5q67 0 124 -13t93.5 -33.5t55.5 -35t33 -29.5q-29 95 -123.5 199.5t-202.5 162.5l-156 -166l-71 69l134 136q-36 18 -101.5 40.5t-99.5 29.5l35 93q55 -14 129 -40.5t112 -44.5l133 142l81 -70l-128 -117q72 -42 131 -88.5 t113 -112t90.5 -142t58 -177t21.5 -217.5q0 -201 -117.5 -328t-323.5 -127q-208 0 -327.5 120t-119.5 314zM197 410q0 -147 91.5 -242t243.5 -95q162 0 247 93.5t85 243.5q0 336 -332 336q-152 0 -243.5 -91t-91.5 -245z" />
<glyph unicode="&#xf1;" horiz-adv-x="982" d="M362 1110q-33 0 -57.5 -24t-35.5 -53h-109q18 68 65 123t112 55q52 0 96 -19.5t82.5 -38.5t75.5 -19q35 0 58 24t30 53h109q-20 -68 -68 -123t-113 -55q-52 0 -97 19.5t-81.5 38.5t-66.5 19zM524 845q60 0 115.5 -19t102 -57t74.5 -103t28 -148v-518h-113v491 q0 133 -61.5 196.5t-167.5 63.5q-103 0 -186 -86t-83 -206v-459h-111v821h111v-159q12 60 99 121.5t192 61.5z" />
<glyph unicode="&#xf2;" horiz-adv-x="989" d="M629 990l-322 204l75 96l296 -237zM476 -24q-182 0 -302 124.5t-120 307.5q0 184 120 310.5t302 126.5t301 -126.5t119 -310.5q0 -183 -118.5 -307.5t-301.5 -124.5zM476 77q139 0 225.5 94t86.5 237q0 144 -86.5 240t-225.5 96q-138 0 -225.5 -96t-87.5 -240 q0 -143 87 -237t226 -94z" />
<glyph unicode="&#xf3;" horiz-adv-x="989" d="M354 990l-48 63l293 237l78 -96zM476 -24q-182 0 -302 124.5t-120 307.5q0 184 120 310.5t302 126.5t301 -126.5t119 -310.5q0 -183 -118.5 -307.5t-301.5 -124.5zM476 77q139 0 225.5 94t86.5 237q0 144 -86.5 240t-225.5 96q-138 0 -225.5 -96t-87.5 -240 q0 -143 87 -237t226 -94z" />
<glyph unicode="&#xf4;" horiz-adv-x="989" d="M262 929l-60 80l273 200l274 -201l-60 -81l-214 157zM476 -24q-182 0 -302 124.5t-120 307.5q0 184 120 310.5t302 126.5t301 -126.5t119 -310.5q0 -183 -118.5 -307.5t-301.5 -124.5zM476 77q139 0 225.5 94t86.5 237q0 144 -86.5 240t-225.5 96q-138 0 -225.5 -96 t-87.5 -240q0 -143 87 -237t226 -94z" />
<glyph unicode="&#xf5;" d="M359 1110q-33 0 -58 -24t-35 -53h-109q18 68 64.5 123t112.5 55q51 0 95 -19.5t82.5 -38.5t75.5 -19q35 0 58 23.5t31 53.5h108q-19 -68 -67 -123t-114 -55q-52 0 -97 19.5t-81 38.5t-66 19zM476 -24q-182 0 -302 124.5t-120 307.5q0 184 120 310.5t302 126.5t301 -126.5 t119 -310.5q0 -183 -118.5 -307.5t-301.5 -124.5zM476 77q139 0 225.5 94t86.5 237q0 144 -86.5 240t-225.5 96q-138 0 -225.5 -96t-87.5 -240q0 -143 87 -237t226 -94z" />
<glyph unicode="&#xf6;" horiz-adv-x="989" d="M298 1096q35 0 61.5 -26.5t26.5 -62.5t-26 -61.5t-62 -25.5t-62 26t-26 61q0 36 26 62.5t62 26.5zM681 1096q35 0 61.5 -26.5t26.5 -62.5t-26 -61.5t-62 -25.5t-61.5 26t-25.5 61q0 36 25.5 62.5t61.5 26.5zM476 -24q-182 0 -302 124.5t-120 307.5q0 184 120 310.5 t302 126.5t301 -126.5t119 -310.5q0 -183 -118.5 -307.5t-301.5 -124.5zM476 77q139 0 225.5 94t86.5 237q0 144 -86.5 240t-225.5 96q-138 0 -225.5 -96t-87.5 -240q0 -143 87 -237t226 -94z" />
<glyph unicode="&#xf7;" horiz-adv-x="1012" d="M485 1059q36 0 60.5 -25t24.5 -60q0 -33 -24.5 -57t-60.5 -24q-34 0 -58 24t-24 57q0 36 24 60.5t58 24.5zM117 611v98h740v-98h-740zM485 434q36 0 60.5 -24.5t24.5 -60.5q0 -33 -25 -57t-60 -24q-33 0 -57.5 24t-24.5 57q0 36 24 60.5t58 24.5z" />
<glyph unicode="&#xf8;" d="M476 -24q-163 0 -280 103l-103 -105l-52 48l107 108q-94 119 -94 278q0 184 120 310.5t302 126.5q161 0 276 -102l108 110l52 -48l-112 -113q96 -120 96 -284q0 -183 -118.5 -307.5t-301.5 -124.5zM163 408q0 -117 59 -202l458 463q-83 75 -204 75q-138 0 -225.5 -96 t-87.5 -240zM476 77q139 0 225.5 94t86.5 237q0 121 -62 209l-457 -464q84 -76 207 -76z" />
<glyph unicode="&#xf9;" horiz-adv-x="988" d="M629 990l-322 204l76 96l295 -237zM218 391q0 -148 65.5 -231t191.5 -83t191.5 83t65.5 231v430h110v-450q0 -176 -97 -285.5t-270 -109.5q-172 0 -269.5 109.5t-97.5 285.5v450h110v-430z" />
<glyph unicode="&#xfa;" horiz-adv-x="988" d="M354 990l-48 63l294 237l77 -96zM218 391q0 -148 65.5 -231t191.5 -83t191.5 83t65.5 231v430h110v-450q0 -176 -97 -285.5t-270 -109.5q-172 0 -269.5 109.5t-97.5 285.5v450h110v-430z" />
<glyph unicode="&#xfb;" horiz-adv-x="988" d="M263 929l-61 80l273 200l274 -201l-59 -81l-215 157zM218 391q0 -148 65.5 -231t191.5 -83t191.5 83t65.5 231v430h110v-450q0 -176 -97 -285.5t-270 -109.5q-172 0 -269.5 109.5t-97.5 285.5v450h110v-430z" />
<glyph unicode="&#xfc;" horiz-adv-x="988" d="M298 1096q35 0 61.5 -26.5t26.5 -62.5t-26 -61.5t-62 -25.5t-62 26t-26 61q0 36 26 62.5t62 26.5zM681 1096q36 0 62.5 -26.5t26.5 -62.5t-26.5 -61.5t-62.5 -25.5t-61.5 26t-25.5 61q0 36 25.5 62.5t61.5 26.5zM218 391q0 -148 65.5 -231t191.5 -83t191.5 83t65.5 231 v430h110v-450q0 -176 -97 -285.5t-270 -109.5q-172 0 -269.5 109.5t-97.5 285.5v450h110v-430z" />
<glyph unicode="&#xfd;" horiz-adv-x="873" d="M297 990l-48 63l294 237l77 -96zM421 108l303 713h115l-549 -1237h-115l185 416l-337 821h117z" />
<glyph unicode="&#xfe;" horiz-adv-x="1014" d="M222 -416h-110v1792h113v-726q9 60 105.5 127.5t226.5 67.5q172 0 284.5 -118t112.5 -317t-112.5 -316.5t-284.5 -117.5q-66 0 -129 21.5t-105 53t-69 64t-32 57.5v-588zM842 410q0 152 -87.5 244.5t-210.5 92.5q-134 0 -226.5 -93.5t-92.5 -243.5t92 -243t227 -93 q123 0 210.5 92t87.5 244z" />
<glyph unicode="&#xff;" horiz-adv-x="873" d="M241 1096q35 0 61.5 -26.5t26.5 -62.5t-26 -61.5t-62 -25.5t-62 26t-26 61q0 36 26 62.5t62 26.5zM624 1096q36 0 62.5 -26.5t26.5 -62.5t-26.5 -61.5t-62.5 -25.5t-61.5 26t-25.5 61q0 36 25.5 62.5t61.5 26.5zM421 108l303 713h115l-549 -1237h-115l185 416l-337 821 h117z" />
<glyph unicode="&#x131;" horiz-adv-x="358" d="M107 0v821h107v-821h-107z" />
<glyph unicode="&#x152;" horiz-adv-x="1565" d="M680 0q-287 0 -452.5 183t-165.5 478q0 190 78.5 340.5t219.5 234.5t320 84h737v-103h-566v-504h547v-102h-547v-508h566v-103h-737zM679 99h65v1125h-65q-152 0 -267.5 -76.5t-174.5 -203.5t-59 -283q0 -158 56 -283.5t171.5 -202t273.5 -76.5z" />
<glyph unicode="&#x153;" horiz-adv-x="1670" d="M476 -24q-182 0 -302 124.5t-120 307.5q0 184 120 310.5t302 126.5q118 0 212.5 -56t148.5 -153q49 98 141 153.5t217 55.5q173 0 277.5 -111t104.5 -292q0 -6 -1 -23t-1 -22h-673q1 -139 80.5 -233.5t226.5 -94.5q59 0 109 16t83 42t53 50t33 49l71 -70 q-59 -91 -142 -135.5t-214 -44.5q-126 0 -218.5 56.5t-142.5 155.5q-53 -98 -148.5 -155t-216.5 -57zM1463 492q-1 35 -10 69t-29 69t-49 61.5t-75.5 43.5t-103.5 17q-75 0 -131.5 -24t-88.5 -64t-48.5 -82.5t-20.5 -89.5h556zM476 77q139 0 225.5 94t86.5 237 q0 144 -86.5 240t-225.5 96q-138 0 -225.5 -96t-87.5 -240q0 -143 87 -237t226 -94z" />
<glyph unicode="&#x178;" horiz-adv-x="1060" d="M316 1591q35 0 61.5 -26t26.5 -62t-26.5 -62t-61.5 -26q-36 0 -62 26.5t-26 61.5t26 61.5t62 26.5zM699 1591q36 0 62.5 -26t26.5 -62t-26.5 -62t-62.5 -26t-61.5 26t-25.5 62t25.5 62t61.5 26zM453 475l-438 845h131l362 -714l361 714h130l-436 -845v-475h-110v475z" />
<glyph unicode="&#x237;" horiz-adv-x="449" d="M59 -440q-98 0 -150 40l51 88q29 -27 85 -27q31 0 53.5 12.5t35.5 33.5t20.5 55.5t10 70t2.5 86.5v902h112v-942q0 -156 -50.5 -237.5t-169.5 -81.5z" />
<glyph unicode="&#x2c6;" horiz-adv-x="998" d="M269 1037l-61 81l274 200l274 -201l-60 -81l-214 157z" />
<glyph unicode="&#x2dc;" horiz-adv-x="1030" d="M385 1110q-33 0 -58 -24t-35 -53h-109q18 68 64.5 123t112.5 55q51 0 95 -19.5t82.5 -38.5t75.5 -19q35 0 58 23.5t31 53.5h108q-19 -68 -67 -123t-114 -55q-52 0 -97 19.5t-81 38.5t-66 19z" />
<glyph unicode="&#x2000;" horiz-adv-x="855" />
<glyph unicode="&#x2001;" horiz-adv-x="1710" />
<glyph unicode="&#x2002;" horiz-adv-x="855" />
<glyph unicode="&#x2003;" horiz-adv-x="1710" />
<glyph unicode="&#x2004;" horiz-adv-x="570" />
<glyph unicode="&#x2005;" horiz-adv-x="427" />
<glyph unicode="&#x2006;" horiz-adv-x="285" />
<glyph unicode="&#x2007;" horiz-adv-x="285" />
<glyph unicode="&#x2008;" horiz-adv-x="213" />
<glyph unicode="&#x2009;" horiz-adv-x="342" />
<glyph unicode="&#x200a;" horiz-adv-x="95" />
<glyph unicode="&#x2010;" horiz-adv-x="774" d="M111 406v99h515v-99h-515z" />
<glyph unicode="&#x2011;" horiz-adv-x="774" d="M111 406v99h515v-99h-515z" />
<glyph unicode="&#x2012;" horiz-adv-x="774" d="M111 406v99h515v-99h-515z" />
<glyph unicode="&#x2013;" horiz-adv-x="863" d="M21 406v99h783v-99h-783z" />
<glyph unicode="&#x2014;" horiz-adv-x="1603" d="M31 406v99h1502v-99h-1502z" />
<glyph unicode="&#x2018;" horiz-adv-x="436" d="M219 892q-61 0 -99.5 41.5t-38.5 114.5q0 97 51.5 167.5t120.5 107.5l44 -59q-40 -15 -80.5 -65.5t-41.5 -93.5q8 12 30 21t46 9q44 0 74.5 -30.5t30.5 -77.5q0 -61 -38.5 -98t-98.5 -37z" />
<glyph unicode="&#x2019;" horiz-adv-x="436" d="M184 1293q60 0 99 -42t39 -114q0 -98 -51.5 -167.5t-120.5 -107.5l-44 59q40 15 80 65t42 94q-8 -12 -30 -21t-46 -9q-44 0 -75 30t-31 78q0 61 39 98t99 37z" />
<glyph unicode="&#x201a;" horiz-adv-x="466" d="M235 208q55 0 93 -38.5t38 -98.5q0 -95 -54.5 -175.5t-134.5 -123.5l-58 56q50 23 95.5 65t56.5 91q-22 -11 -49 -11q-46 0 -78 34t-32 78q0 54 34.5 88.5t88.5 34.5z" />
<glyph unicode="&#x201c;" horiz-adv-x="859" d="M637 892q-61 0 -99.5 41.5t-38.5 114.5q0 97 51.5 167.5t120.5 107.5l44 -59q-40 -15 -80.5 -65.5t-41.5 -93.5q8 12 30 21t46 9q44 0 74.5 -30.5t30.5 -77.5q0 -61 -38.5 -98t-98.5 -37zM267 892q-61 0 -99.5 41.5t-38.5 114.5q0 97 51.5 167.5t120.5 107.5l44 -59 q-40 -15 -80.5 -65.5t-41.5 -93.5q8 12 30 21t46 9q44 0 74.5 -30.5t30.5 -77.5q0 -61 -38.5 -98t-98.5 -37z" />
<glyph unicode="&#x201d;" horiz-adv-x="859" d="M219 1284q60 0 99 -42t39 -114q0 -98 -51.5 -167.5t-120.5 -107.5l-44 59q40 15 80 65t42 94q-8 -12 -30 -21t-46 -9q-44 0 -75 30t-31 78q0 61 39 98t99 37zM589 1284q60 0 99 -42t39 -114q0 -98 -51.5 -167.5t-120.5 -107.5l-44 59q40 15 80 65t42 94q-8 -12 -30 -21 t-46 -9q-44 0 -75 30t-31 78q0 61 39 98t99 37z" />
<glyph unicode="&#x201e;" horiz-adv-x="807" d="M596 208q55 0 93 -38.5t38 -98.5q0 -95 -54 -175.5t-134 -123.5l-59 56q51 23 96.5 65t56.5 91q-23 -11 -50 -11q-45 0 -77.5 34t-32.5 78q0 54 34.5 88.5t88.5 34.5zM235 208q55 0 93 -38.5t38 -98.5q0 -95 -54.5 -175.5t-134.5 -123.5l-58 56q50 23 95.5 65t56.5 91 q-22 -11 -49 -11q-46 0 -78 34t-32 78q0 54 34.5 88.5t88.5 34.5z" />
<glyph unicode="&#x2022;" horiz-adv-x="983" d="M471 750q76 0 128 -52t52 -128q0 -74 -52 -125.5t-128 -51.5q-73 0 -125 51.5t-52 125.5q0 76 51.5 128t125.5 52z" />
<glyph unicode="&#x2026;" horiz-adv-x="1484" d="M261 -24q-46 0 -78.5 32.5t-32.5 78.5q0 48 32 80.5t79 32.5t79.5 -32.5t32.5 -80.5q0 -46 -33 -78.5t-79 -32.5zM740 -24q-46 0 -78.5 32.5t-32.5 78.5q0 48 32.5 80.5t78.5 32.5q47 0 79.5 -32.5t32.5 -80.5q0 -46 -32.5 -78.5t-79.5 -32.5zM1219 -24q-46 0 -79 32.5 t-33 78.5q0 48 32.5 80.5t79.5 32.5t79.5 -32.5t32.5 -80.5q0 -46 -33 -78.5t-79 -32.5z" />
<glyph unicode="&#x202f;" horiz-adv-x="342" />
<glyph unicode="&#x2039;" horiz-adv-x="569" d="M421 131l-59 -49l-286 363l286 361l59 -46l-251 -315z" />
<glyph unicode="&#x203a;" horiz-adv-x="567" d="M84 131l252 314l-252 315l59 46l286 -361l-286 -363z" />
<glyph unicode="&#x205f;" horiz-adv-x="427" />
<glyph unicode="&#x2074;" horiz-adv-x="461" d="M312 1321v-375h60v-41h-60v-111h-44v111h-224v38l224 378h44zM268 946v296l-175 -296h175z" />
<glyph unicode="&#x20ac;" horiz-adv-x="1301" d="M30 565h106q-6 45 -6 93t6 94h-106v80h121q56 226 236 369t422 143q143 0 256 -37.5t165 -84.5l-49 -95q-46 42 -146 76t-226 34q-192 0 -339.5 -110.5t-199.5 -294.5h755v-80h-771q-6 -44 -6 -91q0 -53 7 -96h770v-81h-753q52 -183 199 -292t338 -109q126 0 226 34 t146 76l49 -95q-52 -47 -165 -84.5t-256 -37.5q-242 0 -422 142t-236 366h-121v81z" />
<glyph unicode="&#x2116;" horiz-adv-x="2301" d="M1789 459q-183 0 -302.5 124.5t-119.5 307.5q0 184 119.5 310.5t302.5 126.5q182 0 300.5 -126t118.5 -311q0 -184 -118 -308t-301 -124zM984 0l-751 1203v-1203h-109v1320h161l752 -1203v1203h108v-1320h-161zM1789 560q139 0 225 94t86 238t-86 240t-225 96t-226 -96.5 t-87 -239.5q0 -144 87 -238t226 -94zM1364 99h846v-99h-846v99z" />
<glyph unicode="&#x2122;" horiz-adv-x="798" d="M50 1320h293v-51h-120v-362h-53v362h-120v51zM708 907h-53l-25 327h-1l-59 -324h-65l-59 324h-1l-26 -327h-52l37 413h69l65 -301l63 301h69z" />
<glyph unicode="&#x25fc;" horiz-adv-x="820" d="M0 820h820v-820h-820v820z" />
<glyph unicode="&#xfb03;" horiz-adv-x="1676" d="M31 821h184v240q0 92 23 160t62 105.5t83.5 55.5t95.5 18q46 0 86 -11.5t55.5 -20.5t24.5 -17l-48 -88q-43 37 -114 37q-32 0 -57.5 -10t-50 -35t-38 -78t-13.5 -131v-225h248v-100h-248v-721h-109v721h-184v100zM650 821h184v240q0 92 23 160t62 105.5t83.5 55.5 t95.5 18q45 0 85.5 -11.5t56.5 -21t24 -16.5l-48 -88q-49 37 -115 37q-32 0 -57.5 -10t-49.5 -35t-37.5 -78t-13.5 -131v-225h248v-100h-248v-721h-109v721h-184v100zM1443 1156q-36 0 -61 25.5t-25 60.5q0 36 25.5 61.5t60.5 25.5q36 0 62.5 -25.5t26.5 -61.5 q0 -35 -26.5 -60.5t-62.5 -25.5zM1386 0v821h111v-821h-111z" />
<glyph unicode="&#xfb04;" horiz-adv-x="1646" d="M31 821h184v240q0 92 23 160t62 105.5t83.5 55.5t95.5 18q46 0 86 -11.5t55.5 -20.5t24.5 -17l-48 -88q-43 37 -114 37q-32 0 -57.5 -10t-50 -35t-38 -78t-13.5 -131v-225h248v-100h-248v-721h-109v721h-184v100zM650 821h184v240q0 92 23 160t62 105.5t83.5 55.5 t95.5 18q45 0 85.5 -11.5t56.5 -21t24 -16.5l-48 -88q-49 37 -115 37q-32 0 -57.5 -10t-49.5 -35t-37.5 -78t-13.5 -131v-225h248v-100h-248v-721h-109v721h-184v100zM1485 0h-113v1376h113v-1376z" />
<glyph horiz-adv-x="1077" d="M949 1169q-108 71 -278 71q-100 0 -192 -40.5t-163 -113t-113 -183.5t-42 -242q0 -132 40.5 -242.5t110 -184t162.5 -114t197 -40.5q164 0 278 76v-115q-36 -25 -112 -45t-166 -20q-149 0 -268.5 52.5t-196.5 145.5t-118 217t-41 270q0 143 45 268.5t125 217.5 t197.5 144.5t256.5 52.5q184 0 278 -59v-116z" />
<glyph horiz-adv-x="1077" d="M949 1169q-108 71 -278 71q-100 0 -192 -40.5t-163 -113t-113 -183.5t-42 -242q0 -132 40.5 -242.5t110 -184t162.5 -114t197 -40.5q164 0 278 76v-115q-36 -25 -112 -45t-166 -20h-23l-39 -110q33 12 73.5 8.5t76 -15t59.5 -40.5t24 -69q0 -80 -65.5 -126t-148.5 -46 q-59 0 -113 18t-83 40l54 65q22 -18 60 -32.5t77 -14.5q55 0 92 24t37 62t-27 57.5t-73 19.5q-55 0 -97 -14l-35 20l55 159q-168 21 -289 116.5t-180 239.5t-59 323q0 143 45 268.5t125 217.5t197.5 144.5t256.5 52.5q184 0 278 -59v-116z" />
<glyph horiz-adv-x="1392" d="M47 661q0 190 84 346.5t232 246.5t329 90t329.5 -90t232 -246.5t83.5 -346.5q0 -174 -70.5 -320t-193.5 -240l156 -267h-124l-123 210q-133 -68 -290 -68q-182 0 -330.5 90.5t-231.5 247t-83 347.5zM159 661q0 -162 68 -294t190.5 -208t274.5 -76q128 0 236 54l-189 324 h123l156 -266q97 79 151.5 200.5t54.5 265.5q0 162 -67.5 293.5t-189.5 207.5t-275 76q-114 0 -213.5 -44.5t-169.5 -121t-110 -183.5t-40 -228z" />
<glyph horiz-adv-x="1417" d="M674 -24q-191 0 -332.5 91t-213.5 245.5t-72 348.5q0 191 78 347t220 246t320 90q179 0 320.5 -90.5t218.5 -246t77 -346.5q0 -248 -121 -428q154 -76 220 -90l-51 -95q-109 30 -235 102q-171 -174 -429 -174zM674 88q94 0 180 32t148 94q-156 103 -249 204l58 70 q102 -105 258 -199q105 155 105 372q0 156 -58.5 285t-174 208t-267.5 79q-114 0 -210 -46t-159 -124.5t-98 -182t-35 -219.5q0 -117 33 -220t95 -182t158.5 -125t215.5 -46z" />
<glyph horiz-adv-x="984" d="M397 -24q-66 0 -125.5 15.5t-109 47.5t-79 87.5t-29.5 128.5q0 61 20.5 108.5t54.5 78t81.5 51t98 28.5t106.5 8q110 0 197 -30t123 -69v45q0 135 -83 204.5t-216 69.5q-194 0 -287 -139l-80 65q14 25 43 52t73.5 54.5t112 45.5t143.5 18q111 0 200.5 -37t147 -119.5 t57.5 -200.5v-488h-111v94q-43 -49 -135 -83.5t-203 -34.5zM419 67q102 0 192 42t124 94v116q-32 49 -118.5 86t-187.5 37q-262 0 -262 -187q0 -53 22 -91.5t60 -58.5t79.5 -29t90.5 -9z" />
<glyph d="M336 990l-48 63l294 237l77 -96zM397 -24q-66 0 -125.5 15.5t-109 47.5t-79 87.5t-29.5 128.5q0 61 20.5 108.5t54.5 78t81.5 51t98 28.5t106.5 8q110 0 197 -30t123 -69v45q0 135 -83 204.5t-216 69.5q-194 0 -287 -139l-80 65q14 25 43 52t73.5 54.5t112 45.5t143.5 18 q111 0 200.5 -37t147 -119.5t57.5 -200.5v-488h-111v94q-43 -49 -135 -83.5t-203 -34.5zM419 67q102 0 192 42t124 94v116q-32 49 -118.5 86t-187.5 37q-262 0 -262 -187q0 -53 22 -91.5t60 -58.5t79.5 -29t90.5 -9z" />
<glyph d="M245 929l-61 80l274 200l274 -201l-60 -81l-214 157zM397 -24q-66 0 -125.5 15.5t-109 47.5t-79 87.5t-29.5 128.5q0 61 20.5 108.5t54.5 78t81.5 51t98 28.5t106.5 8q110 0 197 -30t123 -69v45q0 135 -83 204.5t-216 69.5q-194 0 -287 -139l-80 65q14 25 43 52 t73.5 54.5t112 45.5t143.5 18q111 0 200.5 -37t147 -119.5t57.5 -200.5v-488h-111v94q-43 -49 -135 -83.5t-203 -34.5zM419 67q102 0 192 42t124 94v116q-32 49 -118.5 86t-187.5 37q-262 0 -262 -187q0 -53 22 -91.5t60 -58.5t79.5 -29t90.5 -9z" />
<glyph d="M280 1096q35 0 61.5 -26.5t26.5 -62.5t-26 -61.5t-62 -25.5t-61.5 26t-25.5 61q0 36 25.5 62.5t61.5 26.5zM664 1096q35 0 61.5 -26.5t26.5 -62.5t-26 -61.5t-62 -25.5t-62 26t-26 61q0 36 26 62.5t62 26.5zM397 -24q-66 0 -125.5 15.5t-109 47.5t-79 87.5t-29.5 128.5 q0 61 20.5 108.5t54.5 78t81.5 51t98 28.5t106.5 8q110 0 197 -30t123 -69v45q0 135 -83 204.5t-216 69.5q-194 0 -287 -139l-80 65q14 25 43 52t73.5 54.5t112 45.5t143.5 18q111 0 200.5 -37t147 -119.5t57.5 -200.5v-488h-111v94q-43 -49 -135 -83.5t-203 -34.5zM419 67 q102 0 192 42t124 94v116q-32 49 -118.5 86t-187.5 37q-262 0 -262 -187q0 -53 22 -91.5t60 -58.5t79.5 -29t90.5 -9z" />
<glyph d="M611 990l-322 204l76 96l295 -237zM397 -24q-66 0 -125.5 15.5t-109 47.5t-79 87.5t-29.5 128.5q0 61 20.5 108.5t54.5 78t81.5 51t98 28.5t106.5 8q110 0 197 -30t123 -69v45q0 135 -83 204.5t-216 69.5q-194 0 -287 -139l-80 65q14 25 43 52t73.5 54.5t112 45.5 t143.5 18q111 0 200.5 -37t147 -119.5t57.5 -200.5v-488h-111v94q-43 -49 -135 -83.5t-203 -34.5zM419 67q102 0 192 42t124 94v116q-32 49 -118.5 86t-187.5 37q-262 0 -262 -187q0 -53 22 -91.5t60 -58.5t79.5 -29t90.5 -9z" />
<glyph d="M277 1089q0 69 52 115.5t128 46.5q77 0 128.5 -46t51.5 -116q0 -71 -50.5 -116t-129.5 -45q-81 0 -130.5 44.5t-49.5 116.5zM369 1089q0 -41 25.5 -65.5t62.5 -24.5q38 0 63 24.5t25 65.5q0 42 -24.5 66t-63.5 24q-36 0 -62 -24.5t-26 -65.5zM397 -24q-66 0 -125.5 15.5 t-109 47.5t-79 87.5t-29.5 128.5q0 61 20.5 108.5t54.5 78t81.5 51t98 28.5t106.5 8q110 0 197 -30t123 -69v45q0 135 -83 204.5t-216 69.5q-194 0 -287 -139l-80 65q14 25 43 52t73.5 54.5t112 45.5t143.5 18q111 0 200.5 -37t147 -119.5t57.5 -200.5v-488h-111v94 q-43 -49 -135 -83.5t-203 -34.5zM419 67q102 0 192 42t124 94v116q-32 49 -118.5 86t-187.5 37q-262 0 -262 -187q0 -53 22 -91.5t60 -58.5t79.5 -29t90.5 -9z" />
<glyph d="M361 1110q-33 0 -57.5 -24t-34.5 -53h-109q17 68 64 123t113 55q51 0 95 -19.5t82.5 -38.5t75.5 -19q35 0 58 24t30 53h109q-19 -68 -67 -123t-114 -55q-52 0 -97 19.5t-81.5 38.5t-66.5 19zM397 -24q-66 0 -125.5 15.5t-109 47.5t-79 87.5t-29.5 128.5q0 61 20.5 108.5 t54.5 78t81.5 51t98 28.5t106.5 8q110 0 197 -30t123 -69v45q0 135 -83 204.5t-216 69.5q-194 0 -287 -139l-80 65q14 25 43 52t73.5 54.5t112 45.5t143.5 18q111 0 200.5 -37t147 -119.5t57.5 -200.5v-488h-111v94q-43 -49 -135 -83.5t-203 -34.5zM419 67q102 0 192 42 t124 94v116q-32 49 -118.5 86t-187.5 37q-262 0 -262 -187q0 -53 22 -91.5t60 -58.5t79.5 -29t90.5 -9z" />
<glyph horiz-adv-x="358" d="M144 1206q35 0 61.5 -26t26.5 -62t-26 -61.5t-62 -25.5t-62 26t-26 61q0 36 26 62t62 26zM107 0v821h107v-821h-107z" />
<glyph horiz-adv-x="1214" d="M426 124q118 -44 245 -44q155 0 234.5 83t79.5 220q0 159 -108 229.5t-335 35.5v110l320 467q-117 29 -249 29q-206 0 -295.5 -97t-89.5 -317v-840h-109v890q0 462 490 462q145 0 365 -47l-4 -97l-319 -469q55 8 109 2.5t103.5 -17t92 -39.5t74 -67t49.5 -97.5t18 -131.5 q0 -195 -117 -302t-298 -107q-146 0 -256 41v103z" />
<glyph horiz-adv-x="482" d="M239 333q-46 0 -78.5 32.5t-32.5 78.5q0 48 32 80.5t79 32.5t79.5 -32.5t32.5 -80.5q0 -46 -33 -78.5t-79 -32.5z" />
</font>
</defs>
</svg>
