<?xml version="1.0" standalone="no"?>
<!DOCTYPE svg PUBLIC "-//W3C//DTD SVG 1.1//EN" "http://www.w3.org/Graphics/SVG/1.1/DTD/svg11.dtd" >
<svg xmlns="http://www.w3.org/2000/svg" xmlns:xlink="http://www.w3.org/1999/xlink" version="1.1">
<metadata></metadata>
<defs>
<font id="league_spartanbold" horiz-adv-x="1347" >
<font-face units-per-em="2000" ascent="1600" descent="-400" />
<missing-glyph horiz-adv-x="529" />
<glyph unicode="&#xfb01;" horiz-adv-x="1226" d="M21 821h137v217q0 87 30 157.5t79.5 114t111.5 67t129 23.5q65 0 119.5 -15t77.5 -29t37 -28l-115 -219q-29 37 -78 37q-92 0 -92 -134v-191h204v-247h-204v-574h-299v574h-137v247zM953 993q-70 0 -120 50t-50 120q0 69 50 120t120 51q69 0 120 -50.5t51 -120.5 t-50.5 -120t-120.5 -50zM800 0v821h299v-821h-299z" />
<glyph unicode="&#xfb02;" horiz-adv-x="1202" d="M21 821h137v217q0 87 30 157.5t79.5 114t111.5 67t129 23.5q65 0 119.5 -15t77.5 -29t37 -28l-115 -219q-29 37 -78 37q-92 0 -92 -134v-191h204v-247h-204v-574h-299v574h-137v247zM1089 0h-301v1376h301v-1376z" />
<glyph horiz-adv-x="0" />
<glyph horiz-adv-x="666" />
<glyph unicode="&#xd;" horiz-adv-x="1200" />
<glyph unicode=" "  horiz-adv-x="529" />
<glyph unicode="&#x09;" horiz-adv-x="529" />
<glyph unicode="&#xa0;" horiz-adv-x="529" />
<glyph unicode="!" horiz-adv-x="607" d="M188 428l-60 948h323l-61 -948h-202zM288 -24q-73 0 -126 53t-53 127q0 75 52.5 128t126.5 53q76 0 129 -53t53 -128q0 -74 -53 -127t-129 -53z" />
<glyph unicode="&#x22;" horiz-adv-x="817" d="M217 1343q54 0 94.5 -36.5t40.5 -82.5v-7q0 -76 -108 -453h-83q-78 376 -78 453v7q0 46 40.5 82.5t93.5 36.5zM570 1343q53 0 94 -36.5t41 -82.5v-7q0 -73 -109 -453h-83q-77 383 -77 453v7q0 46 40.5 82.5t93.5 36.5z" />
<glyph unicode="#" horiz-adv-x="1328" d="M154 542h153l63 238h-170l58 194h163l92 346h200l-91 -346h217l92 346h200l-91 -346h161l-58 -194h-155l-63 -238h172l-58 -193h-165l-92 -349h-200l92 349h-217l-93 -349h-200l92 349h-160zM508 542h217l63 238h-217z" />
<glyph unicode="$" horiz-adv-x="1117" d="M465 1534h170v-193q92 -8 177.5 -36t123.5 -49t56 -36l-142 -238q-39 30 -110.5 62t-145.5 32q-81 0 -127.5 -28t-46.5 -83q0 -54 55 -94t183 -88q361 -131 361 -418q0 -83 -30 -150.5t-83.5 -114t-121.5 -75.5t-149 -41v-190h-170v184q-84 5 -165.5 25t-136.5 44 t-89.5 44t-45.5 31l148 247q39 -31 146.5 -76.5t202.5 -45.5q91 0 139 35.5t48 96.5q0 63 -61.5 108.5t-201.5 100.5q-72 29 -126 61t-104 78.5t-76 111t-26 144.5q0 138 98.5 232.5t249.5 120.5v198z" />
<glyph unicode="%" horiz-adv-x="1594" d="M53 1029q0 131 97.5 222t248.5 91t248.5 -91t97.5 -222q0 -130 -97 -221.5t-249 -91.5t-249 91.5t-97 221.5zM1107 1320h196l-825 -1320h-196zM257 1029q0 -65 39 -105t103 -40q62 0 100.5 39.5t38.5 105.5q0 64 -39 106t-100 42q-62 0 -102 -42t-40 -106zM838 291 q0 131 97.5 222t249.5 91q151 0 248.5 -91t97.5 -222q0 -130 -97.5 -221.5t-248.5 -91.5q-153 0 -250 91.5t-97 221.5zM1042 291q0 -65 39.5 -105t102.5 -40q62 0 101 40t39 105t-39.5 106t-100.5 41q-62 0 -102 -41.5t-40 -105.5z" />
<glyph unicode="&#x26;" horiz-adv-x="1393" d="M35 355q0 70 29 132t69.5 101.5t92.5 72t88.5 47.5t67.5 24q-55 29 -106 108.5t-51 177.5q0 136 111.5 231t305.5 95q188 0 289 -92t101 -239q0 -60 -28.5 -116.5t-74.5 -99t-86.5 -70.5t-82.5 -49l192 -204q75 59 171 192l195 -177q-29 -43 -79.5 -101.5t-95.5 -94.5 l279 -293h-370l-131 140q-94 -75 -199.5 -119.5t-247.5 -44.5q-118 0 -216 42t-160.5 130t-62.5 207zM640 1121q-58 0 -92 -32t-34 -75q0 -34 24.5 -78t42 -64.5t30.5 -33.5q15 5 38 18.5t50 35.5t46 55t19 67q0 46 -33.5 76.5t-90.5 30.5zM525 556q-155 -72 -155 -174 q0 -65 44 -98t115 -33q56 0 112.5 26t91.5 59z" />
<glyph unicode="'" horiz-adv-x="483" d="M226 1343q58 0 97 -40.5t39 -113.5q0 -59 -19.5 -142.5t-37.5 -136t-52 -146.5h-83q-78 296 -78 425q0 72 39 113t95 41z" />
<glyph unicode="(" horiz-adv-x="653" d="M365 -416q-49 58 -96.5 145.5t-91 201t-70 257t-26.5 287.5q0 148 28.5 296.5t75 267t98 209.5t103.5 152l176 -79q-85 -106 -154.5 -334.5t-69.5 -511.5q0 -268 63 -488t140 -323z" />
<glyph unicode=")" horiz-adv-x="653" d="M263 -416l-177 80q78 103 141 323t63 488q0 148 -21.5 289t-55.5 247t-72 184t-76 126l176 79q53 -60 104 -152t98 -210t75.5 -266.5t28.5 -296.5q0 -144 -26.5 -287.5t-70 -257t-91 -201t-96.5 -145.5z" />
<glyph unicode="*" horiz-adv-x="830" d="M470 1187l182 58l42 -126l-192 -63l125 -151l-115 -82l-112 147l-112 -148l-116 83l128 151l-193 63l41 126l183 -58l1 189h137z" />
<glyph unicode="+" horiz-adv-x="1062" d="M640 543v-290h-244v290h-290v242h290v289h244v-289h287v-242h-287z" />
<glyph unicode="," horiz-adv-x="579" d="M274 337q79 0 131 -54t52 -151q0 -128 -78.5 -249t-188.5 -182l-80 90q61 32 118.5 87.5t75.5 116.5q-19 -11 -55 -11q-63 0 -109 47.5t-46 124.5q0 76 53 128.5t127 52.5z" />
<glyph unicode="-" horiz-adv-x="756" d="M106 327v255h515v-255h-515z" />
<glyph unicode="." horiz-adv-x="607" d="M288 -24q-74 0 -126.5 53t-52.5 127q0 75 52.5 128t126.5 53q75 0 128 -53t53 -128q0 -74 -53 -127t-128 -53z" />
<glyph unicode="/" horiz-adv-x="991" d="M690 1376h237l-660 -1568h-236z" />
<glyph unicode="0" horiz-adv-x="1186" d="M44 659q0 166 44 299t119 216t170 126.5t202 43.5q108 0 203 -43.5t169.5 -126.5t118 -216t43.5 -299q0 -177 -43 -311.5t-118.5 -214t-169 -118.5t-203.5 -39q-109 0 -202.5 39t-169.5 118.5t-119.5 214t-43.5 311.5zM340 659q0 -211 63 -317t176 -106t176 106.5 t63 316.5q0 201 -64 313t-175 112t-175 -112t-64 -313z" />
<glyph unicode="1" horiz-adv-x="654" d="M236 947l-211 -111v280l366 204h139v-1320h-294v947z" />
<glyph unicode="2" horiz-adv-x="1137" d="M558 1094q-50 0 -96.5 -22t-76.5 -51.5t-54.5 -64t-35 -55.5t-13.5 -30l-252 116q3 18 18 53t55.5 89.5t96 100.5t150.5 80t208 34q107 0 191.5 -27t136.5 -69.5t86.5 -100t48 -114t13.5 -116.5q0 -70 -27.5 -144t-67 -133.5t-97.5 -121t-103.5 -101.5t-101 -81t-75 -54 t-39.5 -25h500v-257h-944v234q1 0 69 49.5t130.5 97t151 124t152.5 143.5t110 141.5t46 131.5q0 92 -45.5 132.5t-134.5 40.5z" />
<glyph unicode="3" horiz-adv-x="1074" d="M68 1058q9 34 30 70.5t59.5 75.5t88 70t121 50.5t152.5 19.5q190 0 311 -102.5t121 -267.5q0 -96 -50.5 -171t-116.5 -92q81 -12 149 -95.5t68 -206.5q0 -189 -137.5 -311t-348.5 -122q-85 0 -160 20.5t-129 53t-97 75.5t-68.5 86.5t-37.5 87.5l270 133 q20 -76 78.5 -138.5t141.5 -62.5q91 0 143.5 52t52.5 135q0 82 -55.5 125.5t-140.5 43.5h-26v210h34q71 0 118.5 43t47.5 113q0 67 -45.5 110.5t-125.5 43.5q-48 0 -88 -17.5t-64 -44.5t-38 -52.5t-19 -47.5z" />
<glyph unicode="4" horiz-adv-x="1050" d="M846 1320v-784h153v-258h-153v-278h-294v278h-544v234l500 808h338zM552 536v405h-2l-246 -405h248z" />
<glyph unicode="5" horiz-adv-x="1079" d="M296 369q20 -63 70 -104.5t135 -41.5q93 0 145.5 59t52.5 158q-1 92 -50 144.5t-135 52.5q-73 0 -123.5 -35t-68.5 -75l-245 88l118 705h739v-257h-492l-42 -254q11 17 69.5 40.5t132.5 23.5q60 0 115.5 -15t106.5 -48t88.5 -81t60 -118t22.5 -154q1 -217 -134 -349 t-349 -132q-102 0 -186 25.5t-139 68t-90 89t-54 98.5z" />
<glyph unicode="6" horiz-adv-x="1124" d="M619 879q78 0 152.5 -31t133.5 -86.5t95 -139.5t36 -183q0 -132 -66 -238.5t-178 -165.5t-246 -59q-211 0 -351.5 129t-140.5 345q0 148 47 258.5t127 207.5l330 404h345l-408 -477q36 36 124 36zM546 217q88 0 150 62.5t62 150.5t-62 150.5t-150 62.5t-151 -62.5 t-63 -150.5t62.5 -150.5t151.5 -62.5z" />
<glyph unicode="7" horiz-adv-x="1088" d="M103 1320h946v-198l-638 -1122h-325l619 1063h-602v257z" />
<glyph unicode="8" horiz-adv-x="1121" d="M548 -24q-129 0 -239 49.5t-176.5 139.5t-66.5 202q0 239 234 345q-85 47 -131.5 113.5t-46.5 172.5q0 155 122.5 250.5t301.5 95.5q182 0 301 -95t119 -251q0 -107 -45 -172.5t-128 -113.5q235 -108 235 -345q0 -112 -66 -202t-175.5 -139.5t-238.5 -49.5zM548 805 q63 0 108.5 46t45.5 110q0 63 -45.5 109t-108.5 46q-64 0 -110 -46t-46 -109q0 -65 46 -110.5t110 -45.5zM546 233q73 0 124 50t51 122t-51 122.5t-124 50.5q-72 0 -123 -50.5t-51 -122.5t51 -122t123 -50z" />
<glyph unicode="9" horiz-adv-x="1124" d="M465 441q-78 0 -152.5 31t-133.5 86.5t-95 139.5t-36 183q0 132 66 238.5t178 165.5t246 59q211 0 351 -129t140 -345q0 -149 -46.5 -259t-126.5 -207l-330 -404h-345l408 477q-36 -36 -124 -36zM538 1103q-88 0 -150 -62.5t-62 -150.5t62 -150.5t150 -62.5t151 62.5 t63 150.5t-62.5 150.5t-151.5 62.5z" />
<glyph unicode=":" horiz-adv-x="567" d="M284 559q-74 0 -126.5 52.5t-52.5 127.5t52.5 128t126.5 53q75 0 128 -53t53 -128t-53 -127.5t-128 -52.5zM284 -24q-74 0 -126.5 53t-52.5 127q0 75 52.5 128t126.5 53q75 0 128 -53t53 -128q0 -74 -53 -127t-128 -53z" />
<glyph unicode=";" horiz-adv-x="573" d="M265 559q-74 0 -127 53t-53 127q0 75 52.5 128t127.5 53t128 -52.5t53 -128.5q0 -74 -53 -127t-128 -53zM261 337q79 0 131 -54t52 -151q0 -128 -78.5 -249t-188.5 -182l-80 90q61 32 118.5 87.5t75.5 116.5q-19 -11 -55 -11q-63 0 -109 47.5t-46 124.5q0 76 52.5 128.5 t127.5 52.5z" />
<glyph unicode="&#x3c;" horiz-adv-x="1090" d="M961 183l-872 371v223l872 373v-261l-566 -224l566 -222v-260z" />
<glyph unicode="=" horiz-adv-x="1039" d="M96 733v243h819v-243h-819zM96 351v242h819v-242h-819z" />
<glyph unicode="&#x3e;" horiz-adv-x="1090" d="M91 183v260l566 222l-566 224v261l872 -373v-223z" />
<glyph unicode="?" horiz-adv-x="965" d="M315 428v189q0 118 116 181q150 83 150 183q0 115 -146 115q-49 0 -88.5 -25.5t-59.5 -55.5t-31 -64l-244 98q2 17 17.5 48t52 75t86 81.5t130 64t174.5 26.5q189 0 308.5 -86.5t119.5 -231.5q0 -61 -23 -115t-65 -95.5t-74.5 -66t-78.5 -52.5q-48 -29 -67 -65.5 t-19 -97.5v-106h-258zM448 -24q-74 0 -126.5 53t-52.5 127q0 75 52.5 128t126.5 53q76 0 129.5 -52.5t53.5 -128.5q0 -74 -53.5 -127t-129.5 -53z" />
<glyph unicode="@" horiz-adv-x="1523" d="M751 -24q-195 0 -355 85.5t-254.5 243t-94.5 356.5q0 149 58 277.5t156.5 217t230.5 138.5t278 50q140 0 269.5 -47t227.5 -129t157 -202.5t59 -258.5q0 -72 -20 -131.5t-53 -99.5t-77 -67.5t-90.5 -40t-94.5 -12.5q-63 0 -109.5 28.5t-67.5 71.5q-62 -134 -263 -134 q-139 0 -232.5 98.5t-93.5 237.5q0 136 85.5 225t217.5 89q117 0 206 -85v65h185v-315q0 -91 73 -91q49 0 78 43t29 129q0 182 -138 302t-348 120q-205 0 -351 -140.5t-146 -338.5q0 -129 63 -236t173 -167.5t242 -60.5q101 0 178 31.5t108 70.5l187 -159 q-49 -63 -174.5 -113.5t-298.5 -50.5zM758 518q59 0 96 39.5t37 96.5q0 56 -39 93t-94 37q-58 0 -97 -38t-39 -94q0 -57 38.5 -95.5t97.5 -38.5z" />
<glyph unicode="A" d="M511 1320h293l520 -1320h-314l-97 267h-509l-99 -267h-315zM501 525h314l-155 440h-3z" />
<glyph unicode="B" horiz-adv-x="1116" d="M92 1320h450q88 0 161.5 -17.5t134 -54t94.5 -100.5t34 -151q0 -114 -62 -194.5t-150 -100.5q52 -7 98 -29t84.5 -60.5t61.5 -100t23 -137.5q0 -170 -112 -272.5t-313 -102.5h-504v1320zM386 790h125q79 0 121 41.5t42 112.5q0 78 -44.5 109t-130.5 31h-113v-294z M386 236h140q185 0 185 165q0 158 -190 158h-135v-323z" />
<glyph unicode="C" horiz-adv-x="1288" d="M781 268q84 0 161 24.5t121 55.5l126 -250q-55 -47 -170.5 -84.5t-258.5 -37.5q-144 0 -274.5 52.5t-225.5 142.5t-151 217t-56 270q0 191 95 349t257 247.5t355 89.5q143 0 258.5 -37.5t170.5 -84.5l-126 -250q-44 31 -121 55.5t-161 24.5q-99 0 -178 -32t-129 -87 t-76 -124.5t-26 -147.5q0 -165 107.5 -279t301.5 -114z" />
<glyph unicode="D" horiz-adv-x="1199" d="M87 1320h394q155 0 275 -48.5t196.5 -137t115.5 -208t39 -265.5t-39 -266t-115.5 -209t-196.5 -137.5t-275 -48.5h-394v1320zM380 1058v-796h74q165 0 252 109.5t88 287.5t-86.5 288.5t-253.5 110.5h-74z" />
<glyph unicode="E" horiz-adv-x="1069" d="M84 1320h841v-258h-547v-275h541v-251h-541v-278h547v-258h-841v1320z" />
<glyph unicode="F" horiz-adv-x="958" d="M92 1320h760v-258h-466v-272h431v-257h-431v-533h-294v1320z" />
<glyph unicode="G" horiz-adv-x="1469" d="M708 737h673v-83q0 -188 -82.5 -342.5t-235 -245t-345.5 -90.5q-198 0 -354 92t-239.5 247.5t-83.5 345.5q0 142 49 267t136.5 217t215 145.5t276.5 53.5q399 0 580 -301l-279 -132q-103 158 -301 158q-161 0 -265.5 -119t-104.5 -289q0 -171 104.5 -289.5t265.5 -118.5 q142 0 231.5 71.5t99.5 187.5h-341v225z" />
<glyph unicode="H" horiz-adv-x="1276" d="M839 533h-461v-533h-294v1320h294v-530h461v530h293v-1320h-293v533z" />
<glyph unicode="I" horiz-adv-x="539" d="M95 1320h295v-1320h-295v1320z" />
<glyph unicode="J" horiz-adv-x="819" d="M697 406q0 -202 -111 -316t-303 -114q-120 0 -207.5 41.5t-109.5 74.5l111 256q22 -33 64.5 -60t97.5 -27q75 0 119 48t44 153v858h295v-914z" />
<glyph unicode="K" horiz-adv-x="1153" d="M616 682l503 -682h-352l-409 578v-578h-294v1320h294v-543l377 543h333z" />
<glyph unicode="L" horiz-adv-x="978" d="M92 1320h295v-1062h480v-258h-775v1320z" />
<glyph unicode="M" horiz-adv-x="1638" d="M1483 1320v-1320h-294v783l13 218l-51 -250l-225 -646h-289l-224 646l-50 250l13 -218v-783h-294v1320h414l268 -886l18 -103l18 103l269 886h414z" />
<glyph unicode="N" horiz-adv-x="1443" d="M895 0l-517 1008v-1008h-294v1320h402l519 -1003v1003h294v-1320h-404z" />
<glyph unicode="O" horiz-adv-x="1483" d="M41 661q0 190 88.5 346.5t244 246.5t344.5 90q191 0 346.5 -90t243 -246.5t87.5 -346.5q0 -192 -85.5 -348t-241 -246.5t-350.5 -90.5q-149 0 -276 53t-214.5 144.5t-137 217.5t-49.5 270zM348 661q0 -173 104 -290.5t266 -117.5q163 0 267 117.5t104 290.5t-104 290.5 t-267 117.5q-162 0 -266 -117.5t-104 -290.5z" />
<glyph unicode="P" horiz-adv-x="1104" d="M86 1320h477q199 0 325.5 -104.5t126.5 -300.5q0 -132 -60.5 -229.5t-162 -145.5t-229.5 -48h-182v-492h-295v1320zM381 725h100q99 0 159 44.5t60 138.5t-59.5 136.5t-159.5 42.5h-100v-362z" />
<glyph unicode="Q" horiz-adv-x="1459" d="M41 661q0 190 88.5 346.5t244 246.5t344.5 90q191 0 346.5 -90t243 -246.5t87.5 -346.5q0 -247 -140 -430t-370 -236q4 -1 22.5 -6.5t24 -7t21.5 -5.5t23.5 -5.5t22 -4.5t24.5 -4t23 -2t26 -1q51 0 100.5 13.5t75.5 27t31 20.5l101 -194q-34 -55 -115 -96.5t-191 -41.5 q-66 0 -124.5 17.5t-96 38.5t-96.5 38.5t-125 17.5q-56 0 -107.5 -19t-75.5 -36.5t-27 -23.5l-121 143q85 96 223 137q-221 59 -352 239t-131 421zM348 661q0 -173 104 -290.5t266 -117.5q163 0 267 117.5t104 290.5t-104 290.5t-267 117.5q-162 0 -266 -117.5t-104 -290.5z " />
<glyph unicode="R" horiz-adv-x="1180" d="M78 1320h536q176 0 287.5 -108.5t111.5 -293.5q0 -72 -17.5 -133t-45.5 -101.5t-64.5 -70.5t-71 -45t-68.5 -20l321 -548h-331l-287 525h-76v-525h-295v1320zM373 730h135q89 0 145.5 42.5t56.5 136.5t-55 136t-145 42h-137v-357z" />
<glyph unicode="S" horiz-adv-x="1117" d="M563 1344q85 0 165 -16t134 -39t85 -40.5t45 -28.5l-142 -238q-39 30 -110.5 62t-145.5 32q-81 0 -127.5 -28t-46.5 -83q0 -54 55 -94t183 -88q361 -131 361 -418q0 -78 -27 -142.5t-74 -109.5t-110 -76.5t-135 -46t-150 -14.5q-95 0 -187 18.5t-154.5 45t-101.5 48 t-52 34.5l148 247q39 -31 146.5 -76.5t202.5 -45.5q91 0 139 35.5t48 96.5q0 63 -61.5 108.5t-201.5 100.5q-72 29 -126 61t-104 78.5t-76 111t-26 144.5q0 107 63 190.5t164 127t219 43.5z" />
<glyph unicode="T" horiz-adv-x="1019" d="M330 1062h-315v258h926v-258h-316v-1062h-295v1062z" />
<glyph unicode="U" horiz-adv-x="1272" d="M849 1320h294v-811q0 -246 -141.5 -389.5t-388.5 -143.5t-389.5 143.5t-142.5 389.5v811h294v-795q0 -136 63.5 -208.5t174.5 -72.5t173.5 72.5t62.5 208.5v795z" />
<glyph unicode="V" horiz-adv-x="1346" d="M811 0h-333l-471 1320h333l304 -945l306 945h332z" />
<glyph unicode="W" horiz-adv-x="1824" d="M1429 0h-354l-199 819l-200 -819h-355l-301 1320h338l159 -923l247 923h223l247 -923l159 923h339z" />
<glyph unicode="X" horiz-adv-x="1407" d="M858 710l495 -710h-384l-307 465l-298 -465h-355l468 710l-425 610h375l246 -383l244 383h359z" />
<glyph unicode="Y" horiz-adv-x="1197" d="M421 475l-455 845h358l244 -508l244 508h356l-452 -845v-475h-295v475z" />
<glyph unicode="Z" horiz-adv-x="1258" d="M104 1320h1080l-658 -1062h615v-258h-1130l657 1062h-564v258z" />
<glyph unicode="[" horiz-adv-x="720" d="M90 -416v1792h511v-213h-276v-1366h276v-213h-511z" />
<glyph unicode="\" horiz-adv-x="991" d="M931 0h-238l-659 1376h237z" />
<glyph unicode="]" horiz-adv-x="720" d="M601 -416h-511v213h276v1366h-276v213h511v-1792z" />
<glyph unicode="^" horiz-adv-x="843" d="M811 968h-252l-151 179l-150 -179h-253l330 376h146z" />
<glyph unicode="_" horiz-adv-x="843" d="M10 -195v170h816v-170h-816z" />
<glyph unicode="`" horiz-adv-x="670" d="M466 941l-379 221l143 180l325 -280z" />
<glyph unicode="a" horiz-adv-x="1127" d="M722 0v134q-8 -18 -30 -43t-56.5 -52t-87 -45t-109.5 -18q-176 0 -288 125t-112 309t112 309.5t288 125.5q105 0 180 -46.5t100 -98.5v121h298v-821h-295zM333 410q0 -86 56.5 -142.5t137.5 -56.5q84 0 137.5 56.5t53.5 142.5t-54 143t-137 57q-80 0 -137 -57.5 t-57 -142.5z" />
<glyph unicode="b" horiz-adv-x="1115" d="M80 0v1376h299v-676q16 49 97.5 97t189.5 48q175 0 283.5 -125t108.5 -310t-108.5 -309.5t-283.5 -124.5q-95 0 -176 48.5t-114 109.5v-134h-296zM764 410q0 86 -54.5 143t-134.5 57q-84 0 -140 -57.5t-56 -142.5t56 -142t140 -57q80 0 134.5 56.5t54.5 142.5z" />
<glyph unicode="c" horiz-adv-x="851" d="M528 211q90 0 145 52l138 -204q-35 -28 -111.5 -55.5t-174.5 -27.5q-212 0 -342 118.5t-130 316.5t129.5 316t342.5 118q97 0 175 -28t111 -57l-140 -204q-58 54 -143 54q-77 0 -133 -57t-56 -142t56 -142.5t133 -57.5z" />
<glyph unicode="d" horiz-adv-x="1115" d="M1023 0h-297v134q-32 -61 -113 -109.5t-176 -48.5q-175 0 -283.5 124.5t-108.5 309.5t108.5 310t283.5 125q109 0 190 -48t96 -97v676h300v-1376zM338 410q0 -86 55 -142.5t135 -56.5q83 0 139 57t56 142t-56 142.5t-139 57.5q-80 0 -135 -57t-55 -143z" />
<glyph unicode="e" horiz-adv-x="996" d="M326 347q5 -69 58.5 -110.5t144.5 -41.5q80 0 143.5 23.5t95.5 55.5l118 -188q-104 -110 -377 -110q-210 0 -339.5 117t-129.5 327q0 185 119.5 305t325.5 120q205 0 321.5 -111.5t116.5 -322.5q0 -51 -3 -64h-594zM637 505q-3 55 -40 96t-107 41q-72 0 -113 -40t-44 -97 h304z" />
<glyph unicode="f" horiz-adv-x="704" d="M21 821h137v217q0 87 30 157.5t79.5 114t111.5 67t129 23.5q65 0 119.5 -15t77.5 -29t37 -28l-115 -219q-29 37 -78 37q-92 0 -92 -134v-191h204v-247h-204v-574h-299v574h-137v247z" />
<glyph unicode="g" horiz-adv-x="1129" d="M515 -439q-319 0 -450 165l175 183q95 -114 261 -114q101 0 161 52.5t60 147.5v139q-8 -18 -30 -43t-56.5 -52t-87 -45t-109.5 -18q-176 0 -288 125t-112 309t112 309.5t288 125.5q105 0 180 -46.5t100 -98.5v121h298v-844q0 -133 -67.5 -228.5t-179.5 -141.5t-255 -46z M333 410q0 -86 56.5 -142.5t137.5 -56.5q84 0 137.5 56.5t53.5 142.5t-54 143t-137 57q-80 0 -137 -57.5t-57 -142.5z" />
<glyph unicode="h" horiz-adv-x="1106" d="M653 845q67 0 128.5 -20t113.5 -59.5t83 -108t31 -156.5v-501h-301v452q0 87 -39.5 133t-108.5 46q-72 0 -126.5 -54.5t-54.5 -135.5v-441h-300v1376h300v-677q17 53 97 99.5t177 46.5z" />
<glyph unicode="i" horiz-adv-x="521" d="M248 993q-70 0 -119.5 50t-49.5 120q0 69 50 120t119 51q70 0 121 -50.5t51 -120.5t-50.5 -120t-121.5 -50zM95 0v821h299v-821h-299z" />
<glyph unicode="j" horiz-adv-x="536" d="M262 993q-70 0 -120 50t-50 120q0 69 50 120t120 51t120 -50.5t50 -120.5t-50 -120t-120 -50zM92 -440q-148 0 -234 53l93 222q32 -24 75 -24q83 0 83 135v875h300v-922q0 -154 -78.5 -246.5t-238.5 -92.5z" />
<glyph unicode="k" horiz-adv-x="1019" d="M643 821h340l-389 -392l428 -429h-347l-319 331v-331h-300v1376h300v-842z" />
<glyph unicode="l" horiz-adv-x="497" d="M384 0h-300v1376h300v-1376z" />
<glyph unicode="m" horiz-adv-x="1618" d="M1209 845q146 0 230.5 -90.5t84.5 -272.5v-482h-295v437q0 95 -28.5 144t-101.5 49q-71 0 -113.5 -52.5t-42.5 -140.5v-437h-275v437q0 193 -130 193q-71 0 -113.5 -52t-42.5 -141v-437h-297v821h297v-117q20 50 102.5 95.5t178.5 45.5q181 0 252 -158q22 59 106.5 108.5 t187.5 49.5z" />
<glyph unicode="n" horiz-adv-x="1095" d="M646 845q67 0 128.5 -20t113 -59.5t82.5 -108t31 -156.5v-501h-300v452q0 87 -41.5 133t-112.5 46q-70 0 -122.5 -54t-52.5 -136v-441h-299v821h299v-122q18 53 98 99.5t176 46.5z" />
<glyph unicode="o" horiz-adv-x="1032" d="M501 -24q-201 0 -331.5 122t-130.5 310q0 189 130.5 313t331.5 124t329 -124t128 -313t-128 -310.5t-329 -121.5zM501 223q79 0 126.5 51.5t47.5 134.5t-47.5 136t-126.5 53t-127 -53t-48 -136t48 -134.5t127 -51.5z" />
<glyph unicode="p" horiz-adv-x="1130" d="M379 -416h-296v1237h299v-121q24 51 106 98t190 47q174 0 278.5 -124.5t104.5 -310.5q0 -184 -110 -309t-285 -125q-61 0 -115 18t-88.5 45t-55.5 51.5t-28 43.5v-550zM768 410q0 86 -55.5 143t-135.5 57q-83 0 -139 -57.5t-56 -142.5t56 -142t139 -57q80 0 135.5 56.5 t55.5 142.5z" />
<glyph unicode="q" horiz-adv-x="1130" d="M751 -416v550q-7 -19 -28 -43.5t-55.5 -51.5t-88.5 -45t-115 -18q-175 0 -285 125t-110 309q0 186 104.5 310.5t279.5 124.5q107 0 188.5 -47t106.5 -98v121h299v-1237h-296zM363 410q0 -86 55 -142.5t135 -56.5q84 0 139.5 56.5t55.5 142.5q0 85 -55.5 142.5 t-139.5 57.5q-80 0 -135 -57t-55 -143z" />
<glyph unicode="r" horiz-adv-x="790" d="M359 0h-299v821h299v-116q25 50 91.5 95t166.5 45q52 0 100.5 -16t73.5 -35l-116 -244q-16 21 -53 37.5t-85 16.5q-85 0 -131.5 -60.5t-46.5 -130.5v-413z" />
<glyph unicode="s" horiz-adv-x="858" d="M451 845q105 0 197 -25.5t120 -46.5l-98 -177q-25 20 -77 39t-108 19q-51 0 -83.5 -15.5t-32.5 -45.5t35.5 -49.5t108.5 -34.5q41 -8 74.5 -19t71 -31t63 -45.5t42 -65t16.5 -88.5q0 -81 -37 -139.5t-99 -88.5t-128 -43t-140 -13q-123 0 -209.5 30t-124.5 61l96 197 q32 -28 91.5 -52.5t119.5 -24.5q63 0 99.5 19.5t36.5 52.5q0 34 -34.5 52.5t-107.5 34.5q-47 10 -87 26.5t-81.5 45t-66 75.5t-24.5 108q0 78 52.5 134.5t134.5 83t180 26.5z" />
<glyph unicode="t" horiz-adv-x="724" d="M15 821h141v337h296v-337h185v-247h-185v-234q0 -115 71 -115q24 0 44 10t26 18l102 -213q-10 -9 -42 -22.5t-93 -27.5t-123 -14q-128 0 -204.5 71.5t-76.5 211.5v315h-141v247z" />
<glyph unicode="u" horiz-adv-x="1093" d="M368 440q0 -217 164 -217t164 217v381h295v-413q0 -200 -121 -316t-338 -116t-338 116.5t-121 315.5v413h295v-381z" />
<glyph unicode="v" horiz-adv-x="1090" d="M10 821h320l201 -549l201 549h319l-344 -821h-351z" />
<glyph unicode="w" horiz-adv-x="1456" d="M714 480l-192 -480h-276l-270 821h318l132 -500l189 484h198l187 -484l133 500h319l-270 -821h-275z" />
<glyph unicode="x" horiz-adv-x="1085" d="M700 440l349 -440h-333l-196 255l-197 -255h-309l348 418l-313 403h335l154 -213l162 213h303z" />
<glyph unicode="y" horiz-adv-x="1026" d="M496 260l224 561h294l-564 -1237h-300l190 416l-343 821h299z" />
<glyph unicode="z" horiz-adv-x="897" d="M62 821h810l-412 -612h380v-209h-844l413 613h-347v208z" />
<glyph unicode="{" horiz-adv-x="731" d="M92 572q53 0 83 28t30 82v427q0 53 13.5 99t42 84.5t79.5 61t118 22.5h152v-218h-77q-48 0 -71 -23.5t-23 -74.5v-409q0 -69 -27.5 -110t-92.5 -62q66 -21 93 -62t27 -108v-409q0 -98 94 -98h77v-218h-152q-67 0 -118 22.5t-79.5 61t-42 84.5t-13.5 99v427q0 54 -30 82.5 t-83 28.5v183z" />
<glyph unicode="|" horiz-adv-x="440" d="M345 -253h-266v1672h266v-1672z" />
<glyph unicode="}" horiz-adv-x="763" d="M627 572v-183q-54 0 -84 -28.5t-30 -82.5v-427q0 -53 -13.5 -99t-42 -84.5t-79 -61t-117.5 -22.5h-152v218h76q50 0 72 24.5t22 73.5v409q0 66 27.5 107.5t93.5 62.5q-65 21 -93 62t-28 110v409q0 51 -23 74.5t-71 23.5h-76v218h152q67 0 117.5 -22.5t79 -61t42 -84.5 t13.5 -99v-427q0 -54 30 -82t84 -28z" />
<glyph unicode="~" horiz-adv-x="1159" d="M1047 713q-48 -85 -132 -154t-173 -69q-54 0 -106 20.5t-85 44.5t-71 44.5t-68 20.5q-46 0 -89.5 -34t-69.5 -76l-170 107q49 85 133 153.5t173 68.5q55 0 107.5 -20t85 -44.5t70 -44.5t67.5 -20q47 0 90.5 34t69.5 76z" />
<glyph unicode="&#xa1;" horiz-adv-x="607" d="M304 1346q76 0 129 -53t53 -127q0 -75 -53 -128t-129 -53q-74 0 -126.5 53t-52.5 128q0 74 53 127t126 53zM204 894h202l61 -948h-323z" />
<glyph unicode="&#xa2;" horiz-adv-x="851" d="M528 211q90 0 145 52l138 -204q-30 -24 -91.5 -49t-142.5 -32v-184h-169v193q-164 31 -259.5 143.5t-95.5 280.5q0 169 95.5 281t259.5 142v184h169v-175q80 -8 143.5 -33.5t90.5 -49.5l-140 -204q-58 54 -143 54q-77 0 -133 -57t-56 -142t56 -142.5t133 -57.5z" />
<glyph unicode="&#xa3;" horiz-adv-x="1224" d="M84 647h166q-77 144 -77 292q0 178 116.5 292.5t327.5 114.5q97 0 178 -28.5t133 -74.5t83.5 -96.5t42.5 -102.5l-242 -121q-10 72 -57.5 130t-126.5 58q-80 0 -123.5 -49t-43.5 -135q0 -60 23.5 -140.5t49.5 -139.5h299v-170h-244q8 -41 8 -90q0 -36 -9.5 -73.5 t-16.5 -50.5q19 -1 89 -32t123 -31q50 0 80 34.5t36 63.5l237 -86q-11 -41 -35.5 -80.5t-62.5 -75.5t-95 -58t-123 -22q-67 0 -131 15t-106 32.5t-97 32.5t-107 15q-36 0 -65 -24t-37 -47h-212q2 117 80 198t183 81q24 37 24 99q0 42 -21 99h-247v170z" />
<glyph unicode="&#xa4;" horiz-adv-x="1043" d="M524 136q-139 0 -248 61l-125 -124l-120 119l116 117q-85 110 -85 259q0 146 82 258l-113 113l120 119l120 -119q112 66 253 66t253 -66l120 119l120 -119l-115 -115q79 -112 79 -256q0 -145 -81 -258l117 -118l-120 -119l-125 125q-108 -62 -248 -62zM524 383 q79 0 126 51.5t47 134.5q0 84 -47 136.5t-126 52.5t-127 -53t-48 -136t48 -134.5t127 -51.5z" />
<glyph unicode="&#xa5;" horiz-adv-x="1197" d="M80 388h341v87l-19 35h-322v182h224l-338 628h358l244 -508l244 508h356l-336 -628h225v-182h-322l-19 -35v-87h341v-182h-341v-206h-295v206h-341v182z" />
<glyph unicode="&#xa6;" horiz-adv-x="440" d="M326 845h-239v531h239v-531zM326 0h-239v531h239v-531z" />
<glyph unicode="&#xa7;" horiz-adv-x="1073" d="M472 -440q-94 0 -173 27.5t-129 72t-80.5 93.5t-41.5 99l262 70q12 -47 54.5 -85.5t107.5 -38.5q135 0 135 103q0 51 -59.5 92t-197.5 90q-154 54 -227 137t-73 205q0 101 78.5 186t160.5 112q-167 120 -167 292q0 139 112 234t305 95q87 0 159.5 -26.5t118.5 -69.5 t74.5 -90t38.5 -96l-253 -60q-12 39 -48 71.5t-87 32.5q-55 0 -87.5 -24t-32.5 -61q0 -51 49 -90t178 -86q163 -59 251.5 -145.5t88.5 -215.5q0 -197 -227 -298q155 -92 155 -281q0 -148 -117.5 -246.5t-327.5 -98.5zM447 625q-55 -16 -91.5 -54t-36.5 -90q0 -50 47.5 -86 t132.5 -73q47 -19 88 -39q57 15 95 50.5t38 91.5q0 80 -203 170q-37 13 -70 30z" />
<glyph unicode="&#xa8;" horiz-adv-x="947" d="M258 1264q60 0 102.5 -43t42.5 -103t-42.5 -102.5t-102.5 -42.5t-102.5 42.5t-42.5 102.5t42.5 103t102.5 43zM660 1264q59 0 101.5 -43t42.5 -103t-42.5 -102.5t-101.5 -42.5q-60 0 -102.5 42.5t-42.5 102.5t42.5 103t102.5 43z" />
<glyph unicode="&#xa9;" horiz-adv-x="1491" d="M47 659q0 139 54.5 266t146 218.5t217.5 146t265 54.5t266 -54.5t218.5 -146t146 -218.5t54.5 -266t-54.5 -265t-146 -217.5t-218.5 -146t-266 -54.5q-138 0 -264.5 54.5t-218 146t-146 218t-54.5 264.5zM220 659q0 -103 40.5 -197.5t109 -163t163 -109t197.5 -40.5 q104 0 198.5 40.5t163.5 109t109.5 163t40.5 197.5q0 104 -40.5 198.5t-109.5 163.5t-163.5 109.5t-198.5 40.5q-103 0 -197.5 -40.5t-163 -109.5t-109 -163.5t-40.5 -198.5zM773 811q-62 0 -103.5 -44.5t-41.5 -108.5q0 -66 41.5 -110.5t104.5 -44.5t99 26l67 -137 q-10 -6 -31.5 -16.5t-71 -23t-97.5 -12.5q-134 0 -232.5 92.5t-98.5 222.5q0 133 98.5 227t232.5 94q58 0 107.5 -13t69 -24.5t23.5 -16.5l-66 -136q-6 6 -39.5 15.5t-61.5 9.5z" />
<glyph unicode="&#xaa;" horiz-adv-x="847" d="M114 1074q0 113 71.5 191.5t180.5 78.5q99 0 169 -65v50l172 -1v-507h-170v59h-2q-66 -74 -169 -74q-109 0 -180.5 78t-71.5 190zM298 1074q0 -53 33.5 -87t85.5 -34q53 0 87 34.5t34 86.5q0 53 -35 87.5t-86 34.5q-50 0 -84.5 -34.5t-34.5 -87.5z" />
<glyph unicode="&#xab;" horiz-adv-x="1008" d="M502 161l-145 -114l-312 398l312 398l145 -114l-222 -284zM901 161l-146 -114l-310 398l310 398l146 -114l-222 -284z" />
<glyph unicode="&#xac;" horiz-adv-x="1023" d="M872 582v-463h-255v208h-511v255h766z" />
<glyph unicode="&#xad;" horiz-adv-x="756" d="M106 327v255h515v-255h-515z" />
<glyph unicode="&#xae;" horiz-adv-x="839" d="M47 984q0 148 105 254t252 106q150 0 255 -105.5t105 -254.5q0 -148 -105 -252.5t-255 -104.5q-147 0 -252 104.5t-105 252.5zM146 984q0 -108 75.5 -183t182.5 -75q110 0 186 75t76 183t-76 184.5t-186 76.5q-107 0 -182.5 -76.5t-75.5 -184.5zM295 1152h117 q48 0 78 -25.5t30 -72.5q0 -70 -68 -96l116 -137h-97l-99 131h-2v-131h-75v331zM370 1006h8q18 0 29 1.5t22.5 11.5t11.5 29q0 20 -12 30.5t-23 12t-29 1.5h-7v-86z" />
<glyph unicode="&#xaf;" horiz-adv-x="926" d="M125 1017v187h649v-187h-649z" />
<glyph unicode="&#xb0;" horiz-adv-x="619" d="M110 1235q0 72 53.5 118t131.5 46t130.5 -46t52.5 -118t-51 -118t-132 -46t-133 46t-52 118zM225 1235q0 -31 19.5 -52.5t50.5 -21.5q30 0 50.5 22t20.5 52q0 31 -20.5 52t-50.5 21q-29 0 -49.5 -21t-20.5 -52z" />
<glyph unicode="&#xb1;" horiz-adv-x="1062" d="M640 679v-290h-244v290h-290v242h290v289h244v-289h287v-242h-287zM94 61v243h848v-243h-848z" />
<glyph unicode="&#xb2;" horiz-adv-x="484" d="M251 1247q-24 0 -45.5 -12.5t-34.5 -29.5t-19.5 -28.5t-8.5 -16.5l-98 45q1 7 7 20.5t22 35t37.5 39.5t58.5 31t81 13q98 0 141.5 -50t43.5 -116q0 -38 -20.5 -78t-45 -68t-58.5 -56t-48.5 -38t-26.5 -17h195v-100h-367v91q1 1 26.5 19.5t50.5 37.5t59 48t59 55.5 t43 55.5t18 51q0 68 -70 68z" />
<glyph unicode="&#xb3;" horiz-adv-x="440" d="M37 1232q11 40 57.5 77t121.5 37q76 0 124 -41t48 -107q0 -38 -20 -68t-46 -36q32 -5 59 -38.5t27 -82.5q0 -75 -54.5 -123.5t-138.5 -48.5q-80 0 -131.5 39.5t-64.5 88.5l107 53q8 -30 31.5 -55t56.5 -25q36 0 57 20.5t21 54.5q0 32 -22.5 49.5t-55.5 17.5h-10v84h13 q28 0 47 17t19 45q0 27 -18 44t-50 17q-36 0 -57.5 -21.5t-25.5 -42.5z" />
<glyph unicode="&#xb4;" horiz-adv-x="955" d="M318 941l-88 121l324 280l143 -180z" />
<glyph unicode="&#xb5;" horiz-adv-x="1093" d="M368 440q0 -217 164 -217t164 217v381h295v-413q0 -200 -121 -316t-338 -116q-90 0 -164 21v-389h-295v1213h295v-381z" />
<glyph unicode="&#xb6;" horiz-adv-x="1107" d="M1005 0h-161v1157h-99v-1157h-162v494h-151q-125 0 -221.5 59.5t-146 155t-49.5 207.5q0 172 114 288t303 116h573v-1320z" />
<glyph unicode="&#xb7;" horiz-adv-x="567" d="M284 251q-74 0 -126.5 52.5t-52.5 127.5t52.5 128t126.5 53q75 0 128 -53t53 -128t-53 -127.5t-128 -52.5z" />
<glyph unicode="&#xb8;" horiz-adv-x="763" d="M332 42l105 -36l-36 -91q88 6 153.5 -35.5t65.5 -116.5q0 -89 -67.5 -142.5t-165.5 -53.5q-85 0 -152 26t-97 58l99 112q21 -23 56 -42t70 -19q36 0 58 17t22 45q0 33 -26 50t-65 17q-60 0 -81 -14l-16 12z" />
<glyph unicode="&#xb9;" horiz-adv-x="258" d="M98 1179l-80 -41v105l139 78h53v-500h-112v358z" />
<glyph unicode="&#xba;" horiz-adv-x="865" d="M115 1074q0 117 88.5 193.5t216.5 76.5q127 0 214.5 -76.5t87.5 -193.5t-85.5 -192.5t-216.5 -75.5q-136 0 -220.5 75t-84.5 193zM298 1074q0 -53 33.5 -87.5t87.5 -34.5q52 0 86.5 35t34.5 87q0 53 -35.5 88t-85.5 35q-51 0 -86 -35t-35 -88z" />
<glyph unicode="&#xbb;" horiz-adv-x="1008" d="M478 161l222 284l-222 284l144 114l312 -398l-312 -398zM79 161l221 284l-221 284l145 114l311 -398l-311 -398z" />
<glyph unicode="&#xbc;" horiz-adv-x="1405" d="M225 1105l-123 -65v164l214 120h82v-774h-173v555zM984 1320h178l-768 -1320h-178zM1237 770v-458h89v-150h-89v-162h-171v162h-318v137l292 471h197zM1066 312v237h-2l-143 -237h145z" />
<glyph unicode="&#xbd;" horiz-adv-x="1525" d="M210 1105l-124 -65v164l215 120h81v-774h-172v555zM973 1320h179l-768 -1320h-179zM1164 636q-36 0 -68 -18.5t-51 -44t-30 -44t-12 -24.5l-148 68q2 11 10.5 31t32.5 52t56 59t88 47t122 20q63 0 112.5 -15.5t80 -40.5t50.5 -59t28 -67t8 -68q0 -57 -31 -117.5 t-67.5 -102t-88.5 -85t-72 -56.5l-40 -26h293v-150h-553v137l40 29q39 29 76.5 57t89 72.5t89 83.5t64.5 83t27 77q0 54 -26.5 78t-79.5 24z" />
<glyph unicode="&#xbe;" horiz-adv-x="1534" d="M89 1178q15 59 83 113t179 54t181.5 -59.5t70.5 -155.5q0 -57 -29.5 -100.5t-67.5 -53.5q47 -7 86.5 -55.5t39.5 -120.5q0 -110 -80 -181t-203 -71q-117 0 -192 58t-95 130l158 78q12 -45 45.5 -81.5t82.5 -36.5q52 0 83 30.5t31 78.5t-32.5 73.5t-81.5 25.5h-15v123h20 q41 0 68.5 24.5t27.5 65.5q0 40 -26 65t-73 25q-53 0 -84.5 -31.5t-38.5 -63.5zM1111 1320h179l-768 -1320h-179zM1337 770v-458h89v-150h-89v-162h-172v162h-317v137l291 471h198zM1165 312v237h-1l-143 -237h144z" />
<glyph unicode="&#xbf;" horiz-adv-x="965" d="M488 1342q74 0 127 -52.5t53 -126.5q0 -76 -52.5 -129t-127.5 -53t-128.5 53t-53.5 129q0 74 53.5 126.5t128.5 52.5zM622 890v-188q0 -119 -116 -181q-150 -84 -150 -183q0 -115 146 -115q70 0 115 44.5t63 100.5l245 -98q-3 -17 -18 -48.5t-52 -75.5t-86.5 -81.5 t-129.5 -64t-174 -26.5q-188 0 -308 87t-120 232q0 49 17 95t40 78.5t59.5 65t62.5 50.5t62 40q48 28 66.5 65t18.5 98v105h259z" />
<glyph unicode="&#xc0;" d="M722 1376l-378 221l142 180l325 -280zM511 1320h293l520 -1320h-314l-97 267h-509l-99 -267h-315zM501 525h314l-155 440h-3z" />
<glyph unicode="&#xc1;" d="M573 1376l-89 121l325 280l143 -180zM511 1320h293l520 -1320h-314l-97 267h-509l-99 -267h-315zM501 525h314l-155 440h-3z" />
<glyph unicode="&#xc2;" d="M414 1398l-108 142l351 257l351 -257l-107 -143l-244 178zM511 1320h293l520 -1320h-314l-97 267h-509l-99 -267h-315zM501 525h314l-155 440h-3z" />
<glyph unicode="&#xc3;" d="M522 1483q-26 0 -45 -22.5t-28 -51.5h-160q10 64 35.5 122.5t74 103.5t107.5 45q68 0 157 -37t130 -37q26 0 45.5 23t26.5 51h161q-11 -64 -36.5 -122.5t-73.5 -103.5t-107 -45q-68 0 -157.5 37t-129.5 37zM511 1320h293l520 -1320h-314l-97 267h-509l-99 -267h-315z M501 525h314l-155 440h-3z" />
<glyph unicode="&#xc4;" d="M457 1692q60 0 102.5 -43t42.5 -103t-42.5 -103t-102.5 -43t-102.5 43t-42.5 103t42.5 103t102.5 43zM859 1692q60 0 102.5 -43t42.5 -103t-42.5 -103t-102.5 -43t-102.5 43t-42.5 103t42.5 103t102.5 43zM511 1320h293l520 -1320h-314l-97 267h-509l-99 -267h-315z M501 525h314l-155 440h-3z" />
<glyph unicode="&#xc5;" d="M432 1560q0 86 65.5 143t160.5 57q96 0 160.5 -57t64.5 -143q0 -88 -63 -144t-162 -56q-101 0 -163.5 55.5t-62.5 144.5zM583 1560q0 -36 21.5 -57.5t53.5 -21.5q31 0 52.5 22t21.5 57q0 34 -21.5 55t-52.5 21q-32 0 -53.5 -21t-21.5 -55zM511 1320h293l520 -1320h-314 l-97 267h-509l-99 -267h-315zM501 525h314l-155 440h-3z" />
<glyph unicode="&#xc6;" horiz-adv-x="1717" d="M695 1320h933v-258h-547v-275h542v-251h-542v-278h547v-258h-840v267h-344l-141 -267h-320zM555 491h233v419z" />
<glyph unicode="&#xc7;" horiz-adv-x="1288" d="M781 268q84 0 161 24.5t121 55.5l126 -250q-49 -42 -151 -78t-229 -43l-25 -62q88 6 153.5 -35.5t65.5 -116.5q0 -89 -67.5 -142.5t-164.5 -53.5q-86 0 -153 26t-97 58l99 112q21 -23 56 -42t70 -19q36 0 58.5 17t22.5 45q0 33 -26.5 50t-65.5 17q-58 0 -81 -14l-15 12 l54 150q-133 12 -251 68t-203.5 145t-135.5 210t-50 256q0 191 95 349t257 247.5t355 89.5q143 0 258.5 -37.5t170.5 -84.5l-126 -250q-44 31 -121 55.5t-161 24.5q-99 0 -178 -32t-129 -87t-76 -124.5t-26 -147.5q0 -165 107.5 -279t301.5 -114z" />
<glyph unicode="&#xc8;" horiz-adv-x="1069" d="M547 1376l-379 221l142 180l326 -280zM84 1320h841v-258h-547v-275h541v-251h-541v-278h547v-258h-841v1320z" />
<glyph unicode="&#xc9;" horiz-adv-x="1069" d="M397 1376l-89 121l325 280l143 -180zM84 1320h841v-258h-547v-275h541v-251h-541v-278h547v-258h-841v1320z" />
<glyph unicode="&#xca;" horiz-adv-x="1069" d="M238 1398l-107 142l351 257l350 -257l-107 -143l-243 178zM84 1320h841v-258h-547v-275h541v-251h-541v-278h547v-258h-841v1320z" />
<glyph unicode="&#xcb;" horiz-adv-x="1069" d="M281 1692q60 0 102.5 -43t42.5 -103t-42.5 -103t-102.5 -43t-102.5 43t-42.5 103t42.5 103t102.5 43zM683 1692q60 0 102.5 -43t42.5 -103t-42.5 -103t-102.5 -43t-102.5 43t-42.5 103t42.5 103t102.5 43zM84 1320h841v-258h-547v-275h541v-251h-541v-278h547v-258h-841 v1320z" />
<glyph unicode="&#xcc;" horiz-adv-x="539" d="M307 1376l-379 221l142 180l326 -280zM95 1320h295v-1320h-295v1320z" />
<glyph unicode="&#xcd;" horiz-adv-x="539" d="M157 1376l-89 121l325 280l143 -180zM95 1320h295v-1320h-295v1320z" />
<glyph unicode="&#xce;" horiz-adv-x="539" d="M-2 1398l-107 142l351 257l350 -257l-107 -143l-243 178zM95 1320h295v-1320h-295v1320z" />
<glyph unicode="&#xcf;" horiz-adv-x="539" d="M41 1692q60 0 102.5 -43t42.5 -103t-42.5 -103t-102.5 -43t-102.5 43t-42.5 103t42.5 103t102.5 43zM443 1692q60 0 102.5 -43t42.5 -103t-42.5 -103t-102.5 -43t-102.5 43t-42.5 103t42.5 103t102.5 43zM95 1320h295v-1320h-295v1320z" />
<glyph unicode="&#xd0;" horiz-adv-x="1199" d="M-18 529v255h105v536h394q155 0 275 -48.5t196.5 -137t115.5 -208t39 -265.5t-39 -266t-115.5 -209t-196.5 -137.5t-275 -48.5h-394v529h-105zM380 1058v-274h190v-255h-190v-267h74q165 0 252 109.5t88 287.5t-86.5 288.5t-253.5 110.5h-74z" />
<glyph unicode="&#xd1;" horiz-adv-x="1443" d="M583 1559q-25 0 -44.5 -23t-27.5 -51h-160q10 64 35.5 123t73.5 103.5t108 44.5q67 0 156.5 -37t129.5 -37q26 0 45.5 23t27.5 51h160q-8 -46 -24.5 -91.5t-43 -87t-65.5 -67t-84 -25.5q-68 0 -157.5 37t-129.5 37zM895 0l-517 1008v-1008h-294v1320h402l519 -1003v1003 h294v-1320h-404z" />
<glyph unicode="&#xd2;" horiz-adv-x="1483" d="M783 1376l-379 221l143 180l325 -280zM41 661q0 190 88.5 346.5t244 246.5t344.5 90q191 0 346.5 -90t243 -246.5t87.5 -346.5q0 -192 -85.5 -348t-241 -246.5t-350.5 -90.5q-149 0 -276 53t-214.5 144.5t-137 217.5t-49.5 270zM348 661q0 -173 104 -290.5t266 -117.5 q163 0 267 117.5t104 290.5t-104 290.5t-267 117.5q-162 0 -266 -117.5t-104 -290.5z" />
<glyph unicode="&#xd3;" horiz-adv-x="1483" d="M633 1376l-89 121l326 280l142 -180zM41 661q0 190 88.5 346.5t244 246.5t344.5 90q191 0 346.5 -90t243 -246.5t87.5 -346.5q0 -192 -85.5 -348t-241 -246.5t-350.5 -90.5q-149 0 -276 53t-214.5 144.5t-137 217.5t-49.5 270zM348 661q0 -173 104 -290.5t266 -117.5 q163 0 267 117.5t104 290.5t-104 290.5t-267 117.5q-162 0 -266 -117.5t-104 -290.5z" />
<glyph unicode="&#xd4;" horiz-adv-x="1483" d="M474 1398l-107 142l351 257l351 -257l-108 -143l-243 178zM41 661q0 190 88.5 346.5t244 246.5t344.5 90q191 0 346.5 -90t243 -246.5t87.5 -346.5q0 -192 -85.5 -348t-241 -246.5t-350.5 -90.5q-149 0 -276 53t-214.5 144.5t-137 217.5t-49.5 270zM348 661 q0 -173 104 -290.5t266 -117.5q163 0 267 117.5t104 290.5t-104 290.5t-267 117.5q-162 0 -266 -117.5t-104 -290.5z" />
<glyph unicode="&#xd5;" horiz-adv-x="1483" d="M598 1559q-25 0 -44.5 -23t-27.5 -51h-160q10 64 35.5 123t73.5 103.5t108 44.5q67 0 156.5 -37t129.5 -37q26 0 45.5 23t27.5 51h160q-8 -46 -24.5 -91.5t-43 -87t-65.5 -67t-84 -25.5q-68 0 -157.5 37t-129.5 37zM41 661q0 190 88.5 346.5t244 246.5t344.5 90 q191 0 346.5 -90t243 -246.5t87.5 -346.5q0 -192 -85.5 -348t-241 -246.5t-350.5 -90.5q-149 0 -276 53t-214.5 144.5t-137 217.5t-49.5 270zM348 661q0 -173 104 -290.5t266 -117.5q163 0 267 117.5t104 290.5t-104 290.5t-267 117.5q-162 0 -266 -117.5t-104 -290.5z" />
<glyph unicode="&#xd6;" horiz-adv-x="1483" d="M517 1692q60 0 102.5 -43t42.5 -103t-42.5 -103t-102.5 -43t-102.5 43t-42.5 103t42.5 103t102.5 43zM919 1692q60 0 102.5 -43t42.5 -103t-42.5 -103t-102.5 -43t-102.5 43t-42.5 103t42.5 103t102.5 43zM41 661q0 190 88.5 346.5t244 246.5t344.5 90q191 0 346.5 -90 t243 -246.5t87.5 -346.5q0 -192 -85.5 -348t-241 -246.5t-350.5 -90.5q-149 0 -276 53t-214.5 144.5t-137 217.5t-49.5 270zM348 661q0 -173 104 -290.5t266 -117.5q163 0 267 117.5t104 290.5t-104 290.5t-267 117.5q-162 0 -266 -117.5t-104 -290.5z" />
<glyph unicode="&#xd7;" horiz-adv-x="1033" d="M674 663l242 -241l-170 -171l-243 242l-242 -242l-171 174l240 239l-240 242l172 170l241 -240l240 240l173 -171z" />
<glyph unicode="&#xd8;" horiz-adv-x="1459" d="M41 661q0 190 88.5 346.5t244 246.5t344.5 90q239 0 420 -140l161 167l104 -93l-165 -171q157 -187 157 -446q0 -192 -85.5 -348t-241 -246.5t-350.5 -90.5q-251 0 -433 145l-181 -188l-104 94l187 194q-146 185 -146 440zM348 661q0 -121 53 -219l535 554 q-94 73 -218 73q-162 0 -266 -117.5t-104 -290.5zM1089 661q0 127 -60 230l-539 -558q98 -80 228 -80q163 0 267 117.5t104 290.5z" />
<glyph unicode="&#xd9;" horiz-adv-x="1272" d="M678 1376l-379 221l143 180l325 -280zM849 1320h294v-811q0 -246 -141.5 -389.5t-388.5 -143.5t-389.5 143.5t-142.5 389.5v811h294v-795q0 -136 63.5 -208.5t174.5 -72.5t173.5 72.5t62.5 208.5v795z" />
<glyph unicode="&#xda;" horiz-adv-x="1272" d="M529 1376l-89 121l325 280l142 -180zM849 1320h294v-811q0 -246 -141.5 -389.5t-388.5 -143.5t-389.5 143.5t-142.5 389.5v811h294v-795q0 -136 63.5 -208.5t174.5 -72.5t173.5 72.5t62.5 208.5v795z" />
<glyph unicode="&#xdb;" horiz-adv-x="1272" d="M369 1398l-107 142l351 257l351 -257l-108 -143l-243 178zM849 1320h294v-811q0 -246 -141.5 -389.5t-388.5 -143.5t-389.5 143.5t-142.5 389.5v811h294v-795q0 -136 63.5 -208.5t174.5 -72.5t173.5 72.5t62.5 208.5v795z" />
<glyph unicode="&#xdc;" horiz-adv-x="1272" d="M413 1692q59 0 101.5 -43t42.5 -103t-42.5 -103t-101.5 -43q-61 0 -103.5 43t-42.5 103t43 103t103 43zM814 1692q60 0 102.5 -43t42.5 -103t-42.5 -103t-102.5 -43t-102.5 43t-42.5 103t42.5 103t102.5 43zM849 1320h294v-811q0 -246 -141.5 -389.5t-388.5 -143.5 t-389.5 143.5t-142.5 389.5v811h294v-795q0 -136 63.5 -208.5t174.5 -72.5t173.5 72.5t62.5 208.5v795z" />
<glyph unicode="&#xdd;" horiz-adv-x="1197" d="M483 1376l-89 121l325 280l143 -180zM421 475l-455 845h358l244 -508l244 508h356l-452 -845v-475h-295v475z" />
<glyph unicode="&#xde;" horiz-adv-x="1099" d="M84 1320h294v-245h196q195 0 318.5 -104.5t123.5 -301.5q0 -198 -124.5 -311t-317.5 -113h-196v-245h-294v1320zM378 478h136q83 0 131.5 49t48.5 138t-48 133t-132 44h-136v-364z" />
<glyph unicode="&#xdf;" horiz-adv-x="1123" d="M532 227q94 0 151.5 54.5t57.5 146.5q0 96 -56 146.5t-153 50.5v209q75 0 129 48.5t54 128.5q0 78 -40.5 116.5t-113.5 38.5q-81 0 -127.5 -61t-46.5 -156v-949h-276v924q0 223 122.5 349.5t322.5 126.5q195 0 307 -98t112 -278q0 -99 -54 -177t-131 -110 q104 -27 174 -112.5t70 -217.5q0 -188 -143.5 -309.5t-358.5 -121.5v251z" />
<glyph unicode="&#xe0;" horiz-adv-x="1127" d="M709 941l-378 221l142 180l325 -280zM722 0v134q-8 -18 -30 -43t-56.5 -52t-87 -45t-109.5 -18q-176 0 -288 125t-112 309t112 309.5t288 125.5q105 0 180 -46.5t100 -98.5v121h298v-821h-295zM333 410q0 -86 56.5 -142.5t137.5 -56.5q84 0 137.5 56.5t53.5 142.5 t-54 143t-137 57q-80 0 -137 -57.5t-57 -142.5z" />
<glyph unicode="&#xe1;" horiz-adv-x="1127" d="M419 941l-88 121l324 280l143 -180zM722 0v134q-8 -18 -30 -43t-56.5 -52t-87 -45t-109.5 -18q-176 0 -288 125t-112 309t112 309.5t288 125.5q105 0 180 -46.5t100 -98.5v121h298v-821h-295zM333 410q0 -86 56.5 -142.5t137.5 -56.5q84 0 137.5 56.5t53.5 142.5t-54 143 t-137 57q-80 0 -137 -57.5t-57 -142.5z" />
<glyph unicode="&#xe2;" horiz-adv-x="1127" d="M305 891l-107 143l351 256l350 -257l-107 -143l-243 179zM722 0v134q-8 -18 -30 -43t-56.5 -52t-87 -45t-109.5 -18q-176 0 -288 125t-112 309t112 309.5t288 125.5q105 0 180 -46.5t100 -98.5v121h298v-821h-295zM333 410q0 -86 56.5 -142.5t137.5 -56.5 q84 0 137.5 56.5t53.5 142.5t-54 143t-137 57q-80 0 -137 -57.5t-57 -142.5z" />
<glyph unicode="&#xe3;" horiz-adv-x="1127" d="M428 1060q-25 0 -44.5 -23t-27.5 -51h-161q10 64 35.5 122.5t74 103.5t107.5 45q68 0 157.5 -37t129.5 -37q26 0 45.5 23t27.5 51h160q-8 -46 -25 -91.5t-43 -87t-65 -67t-84 -25.5q-68 0 -157.5 37t-129.5 37zM722 0v134q-8 -18 -30 -43t-56.5 -52t-87 -45t-109.5 -18 q-176 0 -288 125t-112 309t112 309.5t288 125.5q105 0 180 -46.5t100 -98.5v121h298v-821h-295zM333 410q0 -86 56.5 -142.5t137.5 -56.5q84 0 137.5 56.5t53.5 142.5t-54 143t-137 57q-80 0 -137 -57.5t-57 -142.5z" />
<glyph unicode="&#xe4;" horiz-adv-x="1127" d="M362 1227q59 0 101.5 -43t42.5 -103t-42.5 -102.5t-101.5 -42.5q-60 0 -103 43t-43 102q0 60 42.5 103t103.5 43zM763 1227q60 0 102.5 -43t42.5 -103t-42.5 -102.5t-102.5 -42.5t-102.5 43t-42.5 102q0 60 42.5 103t102.5 43zM722 0v134q-8 -18 -30 -43t-56.5 -52 t-87 -45t-109.5 -18q-176 0 -288 125t-112 309t112 309.5t288 125.5q105 0 180 -46.5t100 -98.5v121h298v-821h-295zM333 410q0 -86 56.5 -142.5t137.5 -56.5q84 0 137.5 56.5t53.5 142.5t-54 143t-137 57q-80 0 -137 -57.5t-57 -142.5z" />
<glyph unicode="&#xe5;" horiz-adv-x="1127" d="M292 1145q0 97 74 161t182 64t181 -64t73 -161q0 -100 -71.5 -163t-182.5 -63q-114 0 -185 63t-71 163zM465 1145q0 -40 23.5 -63.5t59.5 -23.5q35 0 58 24t23 63q0 38 -23.5 61t-57.5 23q-35 0 -59 -23t-24 -61zM722 0v134q-8 -18 -30 -43t-56.5 -52t-87 -45t-109.5 -18 q-176 0 -288 125t-112 309t112 309.5t288 125.5q105 0 180 -46.5t100 -98.5v121h298v-821h-295zM333 410q0 -86 56.5 -142.5t137.5 -56.5q84 0 137.5 56.5t53.5 142.5t-54 143t-137 57q-80 0 -137 -57.5t-57 -142.5z" />
<glyph unicode="&#xe6;" horiz-adv-x="1573" d="M379 -24q-137 0 -224 75t-87 205q0 109 95.5 184t240.5 75q137 0 216 -60v23q0 72 -55.5 115.5t-156.5 43.5q-73 0 -136.5 -19.5t-96.5 -43.5l-123 190q48 31 150 56t229 25q115 0 203 -43.5t121 -106.5q48 61 132.5 105.5t184.5 44.5q195 0 311 -109.5t116 -325.5 q0 -6 -1 -20t-1 -19h-597q0 -45 19 -81t49 -56t61 -30t60 -10q64 0 125.5 29t98.5 67l161 -168q-157 -146 -402 -146q-104 0 -194.5 44.5t-142.5 114.5q-33 -58 -128.5 -108.5t-227.5 -50.5zM908 522h326q-4 23 -11.5 43.5t-23.5 46.5t-46.5 41.5t-71.5 15.5q-69 0 -117 -42 t-56 -105zM435 147q52 0 89.5 34.5t37.5 78.5q0 46 -35 76t-85 30q-49 0 -87 -30.5t-38 -78.5q0 -46 34 -77.5t84 -32.5z" />
<glyph unicode="&#xe7;" horiz-adv-x="817" d="M528 211q90 0 145 52l138 -204q-35 -28 -111.5 -55.5t-174.5 -27.5q-39 0 -70 4l-25 -65q88 6 153.5 -35.5t65.5 -116.5q0 -89 -67.5 -142.5t-165.5 -53.5q-85 0 -152 26t-98 58l100 112q22 -23 56.5 -42t69.5 -19q36 0 58 17t22 45q0 33 -26 50t-65 17q-60 0 -81 -14 l-16 12l63 173q-137 43 -215.5 150.5t-78.5 258.5q0 198 129.5 316t342.5 118q97 0 175 -28t111 -57l-140 -204q-58 54 -143 54q-77 0 -133 -57t-56 -142t56 -142.5t133 -57.5z" />
<glyph unicode="&#xe8;" horiz-adv-x="996" d="M649 941l-379 221l143 180l325 -280zM326 347q5 -69 58.5 -110.5t144.5 -41.5q80 0 143.5 23.5t95.5 55.5l118 -188q-104 -110 -377 -110q-210 0 -339.5 117t-129.5 327q0 185 119.5 305t325.5 120q205 0 321.5 -111.5t116.5 -322.5q0 -51 -3 -64h-594zM637 505 q-3 55 -40 96t-107 41q-72 0 -113 -40t-44 -97h304z" />
<glyph unicode="&#xe9;" horiz-adv-x="996" d="M358 941l-88 121l324 280l143 -180zM326 347q5 -69 58.5 -110.5t144.5 -41.5q80 0 143.5 23.5t95.5 55.5l118 -188q-104 -110 -377 -110q-210 0 -339.5 117t-129.5 327q0 185 119.5 305t325.5 120q205 0 321.5 -111.5t116.5 -322.5q0 -51 -3 -64h-594zM637 505 q-3 55 -40 96t-107 41q-72 0 -113 -40t-44 -97h304z" />
<glyph unicode="&#xea;" horiz-adv-x="996" d="M245 891l-108 143l351 256l351 -257l-107 -143l-244 179zM326 347q5 -69 58.5 -110.5t144.5 -41.5q80 0 143.5 23.5t95.5 55.5l118 -188q-104 -110 -377 -110q-210 0 -339.5 117t-129.5 327q0 185 119.5 305t325.5 120q205 0 321.5 -111.5t116.5 -322.5q0 -51 -3 -64 h-594zM637 505q-3 55 -40 96t-107 41q-72 0 -113 -40t-44 -97h304z" />
<glyph unicode="&#xeb;" horiz-adv-x="996" d="M301 1227q60 0 102.5 -43t42.5 -103t-42.5 -102.5t-102.5 -42.5t-102.5 42.5t-42.5 102.5t42.5 103t102.5 43zM703 1227q60 0 102.5 -43t42.5 -103t-42.5 -102.5t-102.5 -42.5t-102.5 42.5t-42.5 102.5t42.5 103t102.5 43zM326 347q5 -69 58.5 -110.5t144.5 -41.5 q80 0 143.5 23.5t95.5 55.5l118 -188q-104 -110 -377 -110q-210 0 -339.5 117t-129.5 327q0 185 119.5 305t325.5 120q205 0 321.5 -111.5t116.5 -322.5q0 -51 -3 -64h-594zM637 505q-3 55 -40 96t-107 41q-72 0 -113 -40t-44 -97h304z" />
<glyph unicode="&#xec;" horiz-adv-x="433" d="M364 941l-379 221l143 180l325 -280zM64 0v821h277v-821h-277z" />
<glyph unicode="&#xed;" horiz-adv-x="433" d="M74 941l-88 121l324 280l143 -180zM64 0v821h277v-821h-277z" />
<glyph unicode="&#xee;" horiz-adv-x="433" d="M-40 891l-108 143l352 256l350 -257l-107 -143l-243 179zM64 0v821h277v-821h-277z" />
<glyph unicode="&#xef;" horiz-adv-x="433" d="M16 1227q60 0 102.5 -43t42.5 -103t-42.5 -102.5t-102.5 -42.5t-102.5 43t-42.5 102q0 60 42.5 103t102.5 43zM418 1227q60 0 102.5 -43t42.5 -103t-42.5 -102.5t-102.5 -42.5t-102.5 43t-42.5 102q0 60 42.5 103t102.5 43zM64 0v821h277v-821h-277z" />
<glyph unicode="&#xf0;" horiz-adv-x="1116" d="M64 410q0 104 40.5 189.5t106 137.5t142 80t153.5 28q145 0 206 -66q-19 58 -78.5 133t-119.5 111l-151 -149l-121 122l101 101q-107 49 -179 64l65 234q136 -30 301 -111l117 115l119 -124l-85 -84q164 -110 264 -296t100 -442q0 -215 -136.5 -346t-350.5 -131 q-221 0 -357.5 121t-136.5 313zM359 410q0 -84 54 -140.5t142 -56.5q92 0 143.5 55.5t51.5 141.5q0 93 -51.5 145.5t-143.5 52.5q-88 0 -142 -55t-54 -143z" />
<glyph unicode="&#xf1;" horiz-adv-x="1095" d="M403 1060q-26 0 -45 -22.5t-28 -51.5h-160q10 64 35.5 122.5t74 103.5t107.5 45q53 0 106 -18.5t99 -37t82 -18.5q26 0 45.5 23t26.5 51h161q-11 -64 -36.5 -122.5t-73.5 -103.5t-107 -45q-68 0 -157.5 37t-129.5 37zM646 845q67 0 128.5 -20t113 -59.5t82.5 -108 t31 -156.5v-501h-300v452q0 87 -41.5 133t-112.5 46q-70 0 -122.5 -54t-52.5 -136v-441h-299v821h299v-122q18 53 98 99.5t176 46.5z" />
<glyph unicode="&#xf2;" horiz-adv-x="1032" d="M660 941l-379 221l142 180l326 -280zM501 -24q-201 0 -331.5 122t-130.5 310q0 189 130.5 313t331.5 124t329 -124t128 -313t-128 -310.5t-329 -121.5zM501 223q79 0 126.5 51.5t47.5 134.5t-47.5 136t-126.5 53t-127 -53t-48 -136t48 -134.5t127 -51.5z" />
<glyph unicode="&#xf3;" horiz-adv-x="1032" d="M369 941l-88 121l324 280l143 -180zM501 -24q-201 0 -331.5 122t-130.5 310q0 189 130.5 313t331.5 124t329 -124t128 -313t-128 -310.5t-329 -121.5zM501 223q79 0 126.5 51.5t47.5 134.5t-47.5 136t-126.5 53t-127 -53t-48 -136t48 -134.5t127 -51.5z" />
<glyph unicode="&#xf4;" horiz-adv-x="1032" d="M255 891l-107 143l351 256l351 -257l-108 -143l-243 179zM501 -24q-201 0 -331.5 122t-130.5 310q0 189 130.5 313t331.5 124t329 -124t128 -313t-128 -310.5t-329 -121.5zM501 223q79 0 126.5 51.5t47.5 134.5t-47.5 136t-126.5 53t-127 -53t-48 -136t48 -134.5 t127 -51.5z" />
<glyph unicode="&#xf5;" horiz-adv-x="1012" d="M354 1060q-25 0 -44.5 -23t-27.5 -51h-160q10 64 35.5 123t73.5 103.5t108 44.5q67 0 156.5 -37t129.5 -37q26 0 45.5 23t27.5 51h160q-8 -46 -24.5 -91.5t-43 -87t-65.5 -67t-84 -25.5q-68 0 -157.5 37t-129.5 37zM501 -24q-201 0 -331.5 122t-130.5 310 q0 189 130.5 313t331.5 124t329 -124t128 -313t-128 -310.5t-329 -121.5zM501 223q79 0 126.5 51.5t47.5 134.5t-47.5 136t-126.5 53t-127 -53t-48 -136t48 -134.5t127 -51.5z" />
<glyph unicode="&#xf6;" horiz-adv-x="1032" d="M312 1227q60 0 102.5 -43t42.5 -103t-42.5 -102.5t-102.5 -42.5t-102.5 42.5t-42.5 102.5t42.5 103t102.5 43zM714 1227q59 0 101.5 -43t42.5 -103t-42.5 -102.5t-101.5 -42.5q-60 0 -102.5 42.5t-42.5 102.5t42.5 103t102.5 43zM501 -24q-201 0 -331.5 122t-130.5 310 q0 189 130.5 313t331.5 124t329 -124t128 -313t-128 -310.5t-329 -121.5zM501 223q79 0 126.5 51.5t47.5 134.5t-47.5 136t-126.5 53t-127 -53t-48 -136t48 -134.5t127 -51.5z" />
<glyph unicode="&#xf7;" horiz-adv-x="1039" d="M503 1149q55 0 92.5 -38t37.5 -92q0 -52 -38 -89t-92 -37q-52 0 -89.5 37t-37.5 89q0 54 37 92t90 38zM96 541v243h819v-243h-819zM503 434q55 0 92.5 -38t37.5 -92q0 -52 -38 -89t-92 -37q-52 0 -89.5 37t-37.5 89q0 54 37 92t90 38z" />
<glyph unicode="&#xf8;" horiz-adv-x="1012" d="M501 -24q-161 0 -281 82l-100 -102l-81 71l101 102q-101 115 -101 279q0 189 130.5 313t331.5 124q154 0 269 -76l99 102l82 -71l-100 -101q107 -120 107 -291q0 -189 -128 -310.5t-329 -121.5zM326 409q0 -40 13 -77l244 247q-35 19 -82 19q-79 0 -127 -53t-48 -136z M501 223q79 0 126.5 51.5t47.5 134.5q0 49 -19 92l-249 -253q41 -25 94 -25z" />
<glyph unicode="&#xf9;" horiz-adv-x="1093" d="M693 941l-379 221l143 180l325 -280zM368 440q0 -217 164 -217t164 217v381h295v-413q0 -200 -121 -316t-338 -116t-338 116.5t-121 315.5v413h295v-381z" />
<glyph unicode="&#xfa;" horiz-adv-x="1093" d="M403 941l-88 121l324 280l143 -180zM368 440q0 -217 164 -217t164 217v381h295v-413q0 -200 -121 -316t-338 -116t-338 116.5t-121 315.5v413h295v-381z" />
<glyph unicode="&#xfb;" horiz-adv-x="1093" d="M289 891l-108 143l351 256l351 -257l-107 -143l-244 179zM368 440q0 -217 164 -217t164 217v381h295v-413q0 -200 -121 -316t-338 -116t-338 116.5t-121 315.5v413h295v-381z" />
<glyph unicode="&#xfc;" horiz-adv-x="1093" d="M345 1227q60 0 102.5 -43t42.5 -103t-42.5 -102.5t-102.5 -42.5t-102.5 43t-42.5 102q0 60 42.5 103t102.5 43zM747 1227q60 0 102.5 -43t42.5 -103t-42.5 -102.5t-102.5 -42.5t-102.5 42.5t-42.5 102.5t42.5 103t102.5 43zM368 440q0 -217 164 -217t164 217v381h295 v-413q0 -200 -121 -316t-338 -116t-338 116.5t-121 315.5v413h295v-381z" />
<glyph unicode="&#xfd;" horiz-adv-x="1026" d="M370 941l-88 121l324 280l143 -180zM496 260l224 561h294l-564 -1237h-300l190 416l-343 821h299z" />
<glyph unicode="&#xfe;" horiz-adv-x="1115" d="M376 -416h-296v1792h299v-676q16 49 97.5 97t189.5 48q175 0 283.5 -125t108.5 -310t-108.5 -309.5t-283.5 -124.5q-95 0 -176 48.5t-114 109.5v-550zM764 410q0 86 -54.5 143t-134.5 57q-84 0 -140 -57.5t-56 -142.5t56 -142t140 -57q80 0 134.5 56.5t54.5 142.5z" />
<glyph unicode="&#xff;" horiz-adv-x="1026" d="M312 1227q60 0 102.5 -43t42.5 -103t-42.5 -102.5t-102.5 -42.5t-102.5 43t-42.5 102q0 60 42.5 103t102.5 43zM714 1227q60 0 102.5 -43t42.5 -103t-42.5 -102.5t-102.5 -42.5t-102.5 42.5t-42.5 102.5t42.5 103t102.5 43zM496 260l224 561h294l-564 -1237h-300l190 416 l-343 821h299z" />
<glyph unicode="&#x131;" horiz-adv-x="433" d="M64 0v821h277v-821h-277z" />
<glyph unicode="&#x152;" horiz-adv-x="1658" d="M694 0q-181 0 -333 83.5t-242 235.5t-90 341q0 188 90.5 340.5t242.5 236t332 83.5h832v-258h-458v-272h439v-257h-439v-275h458v-258h-832zM726 264h48v793h-48q-168 0 -273.5 -113.5t-105.5 -282.5q0 -170 105.5 -283.5t273.5 -113.5z" />
<glyph unicode="&#x153;" horiz-adv-x="1654" d="M501 -24q-201 0 -331.5 122t-130.5 310q0 189 130.5 313t331.5 124q193 0 320 -116q122 116 322 116q205 0 321 -111.5t116 -322.5q0 -55 -3 -64h-594q5 -69 59 -110.5t145 -41.5q79 0 142.5 23.5t95.5 55.5l118 -188q-104 -110 -376 -110q-215 0 -341 118 q-126 -118 -325 -118zM1295 505q-3 55 -40.5 96t-107.5 41q-71 0 -112.5 -40t-44.5 -97h305zM501 223q79 0 126.5 51.5t47.5 134.5t-47.5 136t-126.5 53t-127 -53t-48 -136t48 -134.5t127 -51.5z" />
<glyph unicode="&#x178;" horiz-adv-x="1197" d="M367 1692q60 0 102.5 -43t42.5 -103t-42.5 -103t-102.5 -43t-102.5 43t-42.5 103t42.5 103t102.5 43zM769 1692q60 0 102.5 -43t42.5 -103t-42.5 -103t-102.5 -43t-102.5 43t-42.5 103t42.5 103t102.5 43zM421 475l-455 845h358l244 -508l244 508h356l-452 -845v-475 h-295v475z" />
<glyph unicode="&#x237;" horiz-adv-x="536" d="M92 -440q-148 0 -234 53l93 222q32 -24 75 -24q83 0 83 135v875h300v-922q0 -154 -78.5 -246.5t-238.5 -92.5z" />
<glyph unicode="&#x2c6;" horiz-adv-x="980" d="M234 943l-108 143l351 257l351 -257l-107 -143l-244 178z" />
<glyph unicode="&#x2dc;" horiz-adv-x="1012" d="M356 1060q-25 0 -44.5 -23t-27.5 -51h-160q10 64 35.5 123t73.5 103.5t108 44.5q67 0 156.5 -37t129.5 -37q26 0 45.5 23t27.5 51h160q-8 -46 -24.5 -91.5t-43 -87t-65.5 -67t-84 -25.5q-68 0 -157.5 37t-129.5 37z" />
<glyph unicode="&#x2000;" horiz-adv-x="898" />
<glyph unicode="&#x2001;" horiz-adv-x="1797" />
<glyph unicode="&#x2002;" horiz-adv-x="898" />
<glyph unicode="&#x2003;" horiz-adv-x="1797" />
<glyph unicode="&#x2004;" horiz-adv-x="599" />
<glyph unicode="&#x2005;" horiz-adv-x="449" />
<glyph unicode="&#x2006;" horiz-adv-x="299" />
<glyph unicode="&#x2007;" horiz-adv-x="299" />
<glyph unicode="&#x2008;" horiz-adv-x="224" />
<glyph unicode="&#x2009;" horiz-adv-x="359" />
<glyph unicode="&#x200a;" horiz-adv-x="99" />
<glyph unicode="&#x2010;" horiz-adv-x="756" d="M106 327v255h515v-255h-515z" />
<glyph unicode="&#x2011;" horiz-adv-x="756" d="M106 327v255h515v-255h-515z" />
<glyph unicode="&#x2012;" horiz-adv-x="756" d="M106 327v255h515v-255h-515z" />
<glyph unicode="&#x2013;" horiz-adv-x="890" d="M0 327v255h862v-255h-862z" />
<glyph unicode="&#x2014;" horiz-adv-x="1713" d="M-18 327v255h1720v-255h-1720z" />
<glyph unicode="&#x2018;" horiz-adv-x="483" d="M254 767q-81 0 -131.5 56.5t-50.5 159.5q0 128 70 222.5t174 140.5l71 -62q-50 -22 -107.5 -79.5t-57.5 -116.5q18 23 79 23q55 0 95.5 -41t40.5 -116q0 -85 -52 -136t-131 -51z" />
<glyph unicode="&#x2019;" horiz-adv-x="483" d="M211 1348q81 0 131.5 -56.5t50.5 -159.5q0 -128 -70 -222.5t-174 -140.5l-71 62q50 22 107 79t58 117q-20 -23 -79 -23q-55 0 -95.5 41t-40.5 116q0 85 52 136t131 51z" />
<glyph unicode="&#x201a;" horiz-adv-x="493" d="M258 337q79 0 131 -54t52 -151q0 -128 -78.5 -249t-188.5 -182l-80 90q61 32 118.5 87.5t75.5 116.5q-19 -11 -55 -11q-63 0 -109 47.5t-46 124.5q0 76 53 128.5t127 52.5z" />
<glyph unicode="&#x201c;" horiz-adv-x="1033" d="M756 767q-81 0 -131.5 56.5t-50.5 159.5q0 128 70 222.5t174 140.5l71 -62q-50 -22 -107.5 -79.5t-57.5 -116.5q18 23 79 23q55 0 95.5 -41t40.5 -116q0 -85 -52 -136t-131 -51zM302 767q-81 0 -131.5 56.5t-50.5 159.5q0 128 70 222.5t174 140.5l71 -62 q-50 -22 -107.5 -79.5t-57.5 -116.5q18 23 79 23q55 0 95.5 -41t40.5 -116q0 -85 -52 -136t-131 -51z" />
<glyph unicode="&#x201d;" horiz-adv-x="1033" d="M258 1344q81 0 131.5 -56.5t50.5 -159.5q0 -128 -70 -222.5t-174 -141.5l-71 63q50 22 107 79t58 116q-20 -22 -79 -22q-55 0 -95.5 40.5t-40.5 115.5q0 85 52 136.5t131 51.5zM712 1344q81 0 131.5 -56.5t50.5 -159.5q0 -128 -70 -222.5t-174 -141.5l-71 63 q50 22 107 79t58 116q-20 -22 -79 -22q-55 0 -95.5 40.5t-40.5 115.5q0 85 52 136.5t131 51.5z" />
<glyph unicode="&#x201e;" horiz-adv-x="953" d="M690 337q79 0 130.5 -54t51.5 -151q0 -128 -78 -249t-188 -182l-80 90q61 32 118.5 87.5t75.5 116.5q-21 -11 -56 -11q-62 0 -108 47.5t-46 124.5q0 76 53 128.5t127 52.5zM258 337q79 0 131 -54t52 -151q0 -128 -78.5 -249t-188.5 -182l-80 90q61 32 118.5 87.5 t75.5 116.5q-19 -11 -55 -11q-63 0 -109 47.5t-46 124.5q0 76 53 128.5t127 52.5z" />
<glyph unicode="&#x2022;" horiz-adv-x="1118" d="M543 881q129 0 220 -91t91 -220q0 -128 -91 -218t-220 -90q-127 0 -217.5 90.5t-90.5 217.5q0 128 90.5 219.5t217.5 91.5z" />
<glyph unicode="&#x2026;" horiz-adv-x="1638" d="M264 -24q-75 0 -127.5 53t-52.5 127q0 75 52.5 128t127.5 53t127.5 -53t52.5 -128q0 -74 -52.5 -127t-127.5 -53zM821 -24q-74 0 -126.5 53t-52.5 127q0 75 52.5 128t126.5 53q76 0 128.5 -53t52.5 -128q0 -74 -53 -127t-128 -53zM1377 -24q-74 0 -127 53t-53 127 q0 75 53 128t127 53q75 0 128 -53t53 -128q0 -74 -53 -127t-128 -53z" />
<glyph unicode="&#x202f;" horiz-adv-x="359" />
<glyph unicode="&#x2039;" horiz-adv-x="616" d="M505 161l-144 -114l-312 398l312 398l144 -114l-221 -284z" />
<glyph unicode="&#x203a;" horiz-adv-x="616" d="M81 161l221 284l-221 284l144 114l312 -398l-312 -398z" />
<glyph unicode="&#x205f;" horiz-adv-x="449" />
<glyph unicode="&#x2074;" horiz-adv-x="455" d="M343 1321v-313h61v-103h-61v-111h-118v111h-217v93l200 323h135zM225 1008v162l-99 -162h99z" />
<glyph unicode="&#x20ac;" horiz-adv-x="1310" d="M15 606h102q-2 34 -2 52q0 19 2 53h-102v162h134q69 210 254 340.5t419 130.5q143 0 259 -37.5t171 -84.5l-126 -250q-44 31 -121 55.5t-161 24.5q-123 0 -213 -48t-140 -131h519v-162h-573q-2 -32 -2 -50q0 -28 3 -55h572v-162h-517q51 -82 140 -129t211 -47 q84 0 161 24.5t121 55.5l126 -250q-55 -47 -171 -84.5t-259 -37.5q-234 0 -419 129.5t-254 338.5h-134v162z" />
<glyph unicode="&#x2116;" horiz-adv-x="2475" d="M1945 461q-202 0 -332 122t-130 310q0 189 130.5 313t331.5 124t328.5 -123.5t127.5 -313.5q0 -189 -127.5 -310.5t-328.5 -121.5zM895 0l-517 1008v-1008h-294v1320h402l519 -1003v1003h294v-1320h-404zM1945 708q79 0 126 51.5t47 135.5q0 83 -47.5 135.5t-125.5 52.5 q-79 0 -127 -52.5t-48 -135.5q0 -84 47.5 -135.5t127.5 -51.5zM1498 229h890v-229h-890v229z" />
<glyph unicode="&#x2122;" horiz-adv-x="841" d="M24 1320h293v-82h-99v-331h-95v331h-99v82zM787 907h-95l-19 249h-1l-85 -246h-56l-84 246h-1l-22 -249h-92l36 413h100l91 -239l89 239h100z" />
<glyph unicode="&#x25fc;" horiz-adv-x="820" d="M0 820h820v-820h-820v820z" />
<glyph unicode="&#xfb03;" horiz-adv-x="1920" d="M21 821h137v217q0 87 30 157.5t79.5 114t111.5 67t129 23.5q65 0 119.5 -15t77.5 -29t37 -28l-115 -219q-29 37 -78 37q-92 0 -92 -134v-191h204v-247h-204v-574h-299v574h-137v247zM715 821h138v217q0 87 29.5 157.5t79.5 114t111.5 67t128.5 23.5q65 0 119.5 -15 t77.5 -29t37 -28l-115 -219q-29 37 -78 37q-92 0 -92 -134v-191h205v-247h-205v-574h-298v574h-138v247zM1647 993q-70 0 -119.5 50t-49.5 120t49.5 120.5t119.5 50.5q69 0 120.5 -50.5t51.5 -120.5t-50.5 -120t-121.5 -50zM1494 0v821h299v-821h-299z" />
<glyph unicode="&#xfb04;" horiz-adv-x="1896" d="M21 821h137v217q0 87 30 157.5t79.5 114t111.5 67t129 23.5q65 0 119.5 -15t77.5 -29t37 -28l-115 -219q-29 37 -78 37q-92 0 -92 -134v-191h204v-247h-204v-574h-299v574h-137v247zM715 821h138v217q0 87 29.5 157.5t79.5 114t111.5 67t128.5 23.5q65 0 119.5 -15 t77.5 -29t37 -28l-115 -219q-29 37 -78 37q-92 0 -92 -134v-191h205v-247h-205v-574h-298v574h-138v247zM1783 0h-300v1376h300v-1376z" />
<glyph horiz-adv-x="1163" d="M1043 994q-99 79 -293 79q-177 0 -289.5 -114t-112.5 -298q0 -185 111 -298.5t291 -113.5q191 0 293 74v-297q-43 -21 -125.5 -35.5t-167.5 -14.5q-168 0 -303.5 52.5t-223.5 145.5t-135 217t-47 270q0 144 51 269t142 217t224.5 144.5t291.5 52.5q199 0 293 -52v-298z " />
<glyph horiz-adv-x="1163" d="M1043 994q-99 79 -293 79q-177 0 -289.5 -114t-112.5 -298q0 -185 111 -298.5t291 -113.5q191 0 293 74v-297q-43 -21 -125.5 -35.5t-167.5 -14.5h-26l-25 -61q88 6 154 -35.5t66 -116.5q0 -89 -68 -142.5t-165 -53.5q-86 0 -152.5 26t-97.5 58l99 112q59 -61 127 -61 q36 0 58 17t22 45q0 33 -26 50t-66 17q-58 0 -81 -14l-15 12l56 157q-180 27 -310 122.5t-194.5 237t-64.5 315.5q0 144 51 269t142 217t224.5 144.5t291.5 52.5q199 0 293 -52v-298z" />
<glyph horiz-adv-x="1456" d="M41 661q0 190 88.5 346.5t244 246.5t344.5 90q191 0 346.5 -90t243 -246.5t87.5 -346.5q0 -152 -55.5 -283.5t-156.5 -226.5l185 -317h-317l-104 178q-110 -36 -229 -36q-149 0 -276 53t-214.5 144.5t-137 217.5t-49.5 270zM348 661q0 -173 104 -290.5t266 -117.5 q44 0 83 9l-116 199h317l22 -38q65 104 65 238q0 173 -104 290.5t-267 117.5q-162 0 -266 -117.5t-104 -290.5z" />
<glyph horiz-adv-x="1466" d="M694 -24q-191 0 -341.5 90.5t-232.5 246.5t-82 348q0 142 52 269t140 217.5t209 143.5t255 53q180 0 330.5 -90t237.5 -247t87 -346q0 -208 -99 -372q104 -43 182 -65l-129 -263q-127 49 -242 126q-159 -111 -367 -111zM694 278q62 0 102 12q-103 97 -165 179l126 156 q62 -62 91 -88q66 -57 134 -103q49 97 49 227q0 77 -20 144.5t-59.5 121.5t-105.5 85.5t-152 31.5q-112 0 -190.5 -55t-113 -139.5t-34.5 -188.5q0 -62 11 -117t36.5 -104.5t63.5 -84.5t96 -56t131 -21z" />
<glyph horiz-adv-x="1028" d="M350 -24q-128 0 -218 75t-90 204q0 59 21 106t55 75.5t79.5 47.5t90.5 26.5t92 7.5q84 0 156 -22.5t104 -57.5v12q0 79 -60 125t-165 46q-153 0 -241 -72l-130 199q29 28 138.5 62.5t252.5 34.5q77 0 146 -12t134.5 -41t113 -73t76.5 -112.5t29 -154.5v-452h-294v87 q-36 -47 -110.5 -79t-179.5 -32zM467 164q51 0 100 26.5t67 66.5q-19 38 -67.5 64.5t-99.5 26.5q-55 0 -90.5 -24.5t-35.5 -70.5q0 -44 36 -66.5t90 -22.5z" />
<glyph horiz-adv-x="1029" d="M366 941l-88 121l324 280l143 -180zM350 -24q-128 0 -218 75t-90 204q0 59 21 106t55 75.5t79.5 47.5t90.5 26.5t92 7.5q84 0 156 -22.5t104 -57.5v12q0 79 -60 125t-165 46q-153 0 -241 -72l-130 199q29 28 138.5 62.5t252.5 34.5q77 0 146 -12t134.5 -41t113 -73 t76.5 -112.5t29 -154.5v-452h-294v87q-36 -47 -110.5 -79t-179.5 -32zM467 164q51 0 100 26.5t67 66.5q-19 38 -67.5 64.5t-99.5 26.5q-55 0 -90.5 -24.5t-35.5 -70.5q0 -44 36 -66.5t90 -22.5z" />
<glyph horiz-adv-x="1029" d="M252 891l-107 143l351 256l351 -257l-108 -143l-243 179zM350 -24q-128 0 -218 75t-90 204q0 59 21 106t55 75.5t79.5 47.5t90.5 26.5t92 7.5q84 0 156 -22.5t104 -57.5v12q0 79 -60 125t-165 46q-153 0 -241 -72l-130 199q29 28 138.5 62.5t252.5 34.5q77 0 146 -12 t134.5 -41t113 -73t76.5 -112.5t29 -154.5v-452h-294v87q-36 -47 -110.5 -79t-179.5 -32zM467 164q51 0 100 26.5t67 66.5q-19 38 -67.5 64.5t-99.5 26.5q-55 0 -90.5 -24.5t-35.5 -70.5q0 -44 36 -66.5t90 -22.5z" />
<glyph horiz-adv-x="1029" d="M309 1227q59 0 101.5 -43t42.5 -103t-42.5 -102.5t-101.5 -42.5q-60 0 -102.5 42.5t-42.5 102.5t42.5 103t102.5 43zM711 1227q59 0 101.5 -43t42.5 -103t-42.5 -102.5t-101.5 -42.5q-61 0 -103.5 43t-42.5 102q0 60 42.5 103t103.5 43zM350 -24q-128 0 -218 75t-90 204 q0 59 21 106t55 75.5t79.5 47.5t90.5 26.5t92 7.5q84 0 156 -22.5t104 -57.5v12q0 79 -60 125t-165 46q-153 0 -241 -72l-130 199q29 28 138.5 62.5t252.5 34.5q77 0 146 -12t134.5 -41t113 -73t76.5 -112.5t29 -154.5v-452h-294v87q-36 -47 -110.5 -79t-179.5 -32zM467 164 q51 0 100 26.5t67 66.5q-19 38 -67.5 64.5t-99.5 26.5q-55 0 -90.5 -24.5t-35.5 -70.5q0 -44 36 -66.5t90 -22.5z" />
<glyph horiz-adv-x="1029" d="M656 941l-378 221l142 180l325 -280zM350 -24q-128 0 -218 75t-90 204q0 59 21 106t55 75.5t79.5 47.5t90.5 26.5t92 7.5q84 0 156 -22.5t104 -57.5v12q0 79 -60 125t-165 46q-153 0 -241 -72l-130 199q29 28 138.5 62.5t252.5 34.5q77 0 146 -12t134.5 -41t113 -73 t76.5 -112.5t29 -154.5v-452h-294v87q-36 -47 -110.5 -79t-179.5 -32zM467 164q51 0 100 26.5t67 66.5q-19 38 -67.5 64.5t-99.5 26.5q-55 0 -90.5 -24.5t-35.5 -70.5q0 -44 36 -66.5t90 -22.5z" />
<glyph horiz-adv-x="1029" d="M240 1145q0 97 73.5 161t181.5 64t181 -64t73 -161q0 -100 -71.5 -163t-182.5 -63q-114 0 -184.5 63t-70.5 163zM412 1145q0 -40 23.5 -63.5t59.5 -23.5q35 0 58 24t23 63q0 38 -23.5 61t-57.5 23q-35 0 -59 -23t-24 -61zM350 -24q-128 0 -218 75t-90 204q0 59 21 106 t55 75.5t79.5 47.5t90.5 26.5t92 7.5q84 0 156 -22.5t104 -57.5v12q0 79 -60 125t-165 46q-153 0 -241 -72l-130 199q29 28 138.5 62.5t252.5 34.5q77 0 146 -12t134.5 -41t113 -73t76.5 -112.5t29 -154.5v-452h-294v87q-36 -47 -110.5 -79t-179.5 -32zM467 164 q51 0 100 26.5t67 66.5q-19 38 -67.5 64.5t-99.5 26.5q-55 0 -90.5 -24.5t-35.5 -70.5q0 -44 36 -66.5t90 -22.5z" />
<glyph horiz-adv-x="1029" d="M375 1060q-25 0 -44.5 -23t-27.5 -51h-160q10 64 35.5 123t73.5 103.5t108 44.5q67 0 156.5 -37t129.5 -37q26 0 45.5 23t27.5 51h160q-8 -46 -24.5 -91.5t-43 -87t-65.5 -67t-84 -25.5q-68 0 -157.5 37t-129.5 37zM350 -24q-128 0 -218 75t-90 204q0 59 21 106t55 75.5 t79.5 47.5t90.5 26.5t92 7.5q84 0 156 -22.5t104 -57.5v12q0 79 -60 125t-165 46q-153 0 -241 -72l-130 199q29 28 138.5 62.5t252.5 34.5q77 0 146 -12t134.5 -41t113 -73t76.5 -112.5t29 -154.5v-452h-294v87q-36 -47 -110.5 -79t-179.5 -32zM467 164q51 0 100 26.5 t67 66.5q-19 38 -67.5 64.5t-99.5 26.5q-55 0 -90.5 -24.5t-35.5 -70.5q0 -44 36 -66.5t90 -22.5z" />
<glyph horiz-adv-x="433" d="M194 1264q60 0 102.5 -43t42.5 -103t-42.5 -102.5t-102.5 -42.5t-102.5 42.5t-42.5 102.5t42.5 103t102.5 43zM64 0v821h277v-821h-277z" />
<glyph horiz-adv-x="1284" d="M496 247q93 -30 192 -30q90 0 147 48t57 127q0 94 -93 140.5t-264 26.5v256l230 280q-66 13 -145 13q-135 0 -187 -79.5t-52 -233.5v-795h-289v922q0 218 145.5 323.5t409.5 105.5q87 0 200.5 -17t207.5 -44l-1 -235l-254 -302q389 0 389 -377q0 -100 -37.5 -178 t-102.5 -126.5t-148 -73.5t-178 -25q-115 0 -227 27v247z" />
<glyph horiz-adv-x="490" d="M234 333q-74 0 -126.5 53t-52.5 127q0 75 52.5 128t126.5 53q75 0 128 -53t53 -128q0 -74 -53 -127t-128 -53z" />
</font>
</defs>
</svg>
